<?xml version="1.0" encoding="UTF-8"?>
<svg xmlns="http://www.w3.org/2000/svg" xmlns:xlink="http://www.w3.org/1999/xlink" width="24px" height="24px" viewBox="0 0 24 24" version="1.1">
<g id="surface1">
<path style=" stroke:none;fill-rule:evenodd;fill:rgb(0%,0%,0%);fill-opacity:1;" d="M 13.5 12.75 C 13.5 12.476562 13.421875 12.222656 13.292969 12 L 10.707031 12 C 10.578125 12.222656 10.5 12.476562 10.5 12.75 C 10.5 13.578125 11.171875 14.25 12 14.25 C 12.828125 14.25 13.5 13.578125 13.5 12.75 Z M 15 12.75 C 15 14.40625 13.65625 15.75 12 15.75 C 10.34375 15.75 9 14.40625 9 12.75 C 9 12.488281 9.039062 12.238281 9.105469 12 L 0 12 L 0 20.25 C 0 21.90625 1.34375 23.25 3 23.25 L 21 23.25 C 22.65625 23.25 24 21.90625 24 20.25 L 24 12 L 14.894531 12 C 14.960938 12.238281 15 12.488281 15 12.75 Z M 15 3.75 L 9 3.75 L 9 3 C 9 2.585938 9.335938 2.25 9.75 2.25 L 14.25 2.25 C 14.664062 2.25 15 2.585938 15 3 Z M 21 3.75 L 16.5 3.75 L 16.5 2.25 C 16.5 1.421875 15.828125 0.75 15 0.75 L 9 0.75 C 8.171875 0.75 7.5 1.421875 7.5 2.25 L 7.5 3.75 L 3 3.75 C 1.34375 3.75 0 5.09375 0 6.75 L 0 10.5 L 24 10.5 L 24 6.75 C 24 5.09375 22.65625 3.75 21 3.75 Z M 21 3.75 "/>
</g>
</svg>
