<?xml version="1.0" encoding="UTF-8"?>
<svg xmlns="http://www.w3.org/2000/svg" xmlns:xlink="http://www.w3.org/1999/xlink" width="800px" height="800px" viewBox="0 0 800 800" version="1.1">
<g id="surface1">
<path style=" stroke:none;fill-rule:nonzero;fill:rgb(0%,0%,0%);fill-opacity:1;" d="M 715.585938 302.773438 C 727.75 269.925781 731.261719 238.601562 722.523438 210.488281 C 718.5 210.851562 714.324219 211.039062 710.050781 211.039062 C 582.023438 211.039062 355.75 50.074219 338.625 25 C 268.0625 127.789062 120.164062 206.8125 53.3125 295.4375 C 26.261719 331.300781 12.738281 357.988281 39.648438 399.011719 L 321.511719 761.175781 C 334.226562 778.386719 359.136719 779.789062 376.875 763.914062 C 376.875 763.914062 608.023438 467.300781 775.011719 375.523438 C 762.460938 351.011719 741.574219 326.550781 715.585938 302.773438 M 316.601562 684.425781 L 315.425781 685.238281 L 314.363281 686.164062 C 310.054688 690.027344 306.226562 694.394531 302.960938 699.175781 L 58.738281 385.386719 C 41.148438 358.175781 46.136719 343.851562 72.023438 309.550781 C 101.386719 270.636719 148.3125 232.863281 198 192.875 C 249.648438 151.300781 302.851562 108.5 341.925781 59.800781 C 406.425781 112.875 586.835938 230.0625 703.574219 234.351562 C 717.574219 371.8125 432.550781 603.550781 316.601562 684.425781 "/>
<path style=" stroke:none;fill-rule:nonzero;fill:rgb(0%,0%,0%);fill-opacity:1;" d="M 249.914062 176.976562 L 564.976562 423.851562 L 576.199219 413.800781 L 258.113281 169.625 Z M 249.914062 176.976562 "/>
<path style=" stroke:none;fill-rule:nonzero;fill:rgb(0%,0%,0%);fill-opacity:1;" d="M 352.585938 308.386719 L 223.636719 200.488281 C 223.636719 200.488281 178.761719 229.136719 124.414062 291.976562 L 238.8125 410.25 L 352.585938 308.386719 "/>
<path style=" stroke:none;fill-rule:nonzero;fill:rgb(0%,0%,0%);fill-opacity:1;" d="M 70.074219 350.75 L 313.425781 649.011719 L 358.363281 608.800781 L 98.914062 312.164062 C 98.914062 312.164062 76.300781 324.398438 70.074219 350.75 "/>
<path style=" stroke:none;fill-rule:nonzero;fill:rgb(0%,0%,0%);fill-opacity:1;" d="M 342.75 367.851562 L 484.113281 496.226562 L 529.023438 456.011719 L 381.835938 332.863281 Z M 342.75 367.851562 "/>
<path style=" stroke:none;fill-rule:nonzero;fill:rgb(0%,0%,0%);fill-opacity:1;" d="M 264.574219 437.835938 L 394.289062 576.636719 L 439.1875 536.4375 L 303.664062 402.851562 Z M 264.574219 437.835938 "/>
<path style=" stroke:none;fill-rule:nonzero;fill:rgb(0%,0%,0%);fill-opacity:1;" d="M 348.210938 134.449219 L 329.148438 187.976562 L 341.101562 196.675781 L 401.789062 142.335938 L 389.914062 134.863281 L 348.101562 172.300781 L 366.585938 120.125 L 354.1875 112.300781 L 296.351562 164.074219 L 306.710938 171.613281 Z M 348.210938 134.449219 "/>
<path style=" stroke:none;fill-rule:nonzero;fill:rgb(0%,0%,0%);fill-opacity:1;" d="M 400.148438 239.738281 L 411.726562 229.351562 L 376.414062 204.25 L 392.425781 189.925781 L 423.789062 211.398438 L 434.925781 201.414062 L 403.210938 180.238281 L 416.4375 168.414062 L 451.550781 191.125 L 462.949219 180.9375 L 414.398438 150.289062 L 352.925781 205.324219 Z M 400.148438 239.738281 "/>
<path style=" stroke:none;fill-rule:nonzero;fill:rgb(0%,0%,0%);fill-opacity:1;" d="M 437.761719 267.136719 L 485.75 238.074219 L 501.460938 228.125 L 491.039062 241.601562 L 460.164062 283.488281 L 475.074219 294.351562 L 567.425781 246.863281 L 549.898438 235.800781 L 499.261719 264.773438 L 486.335938 272.601562 L 495.011719 261.1875 L 525.023438 220.101562 L 508.175781 209.476562 L 461.363281 238.488281 L 448.925781 246.351562 L 457.488281 235.460938 L 485.835938 195.375 L 470.039062 185.398438 L 424.273438 257.3125 Z M 437.761719 267.136719 "/>
<path style=" stroke:none;fill-rule:nonzero;fill:rgb(0%,0%,0%);fill-opacity:1;" d="M 611.335938 271.3125 C 599.976562 264.175781 589.363281 260.761719 579.4375 260.960938 C 569.585938 261.175781 561.511719 264.136719 555.148438 269.835938 C 548.164062 276.085938 545.8125 282.574219 548.113281 289.300781 C 549.460938 293.335938 553.761719 299.175781 561.101562 306.898438 L 568.6875 314.875 C 573.210938 319.574219 576.125 323.425781 577.398438 326.375 C 578.648438 329.363281 578.039062 331.976562 575.574219 334.175781 C 571.363281 337.9375 565.875 338.648438 559.136719 336.351562 C 554.949219 334.761719 551 332.59375 547.414062 329.914062 C 540.289062 324.835938 536.824219 319.949219 536.914062 315.238281 C 536.960938 312.664062 538.375 309.710938 541.136719 306.386719 L 524.75 294.960938 C 517.363281 301.574219 514.5625 308.949219 516.414062 317.136719 C 518.273438 325.398438 524.613281 333.550781 535.613281 341.574219 C 546.574219 349.613281 557.488281 353.914062 568.210938 354.386719 C 579.050781 354.851562 587.976562 352 594.851562 345.8125 C 601.601562 339.789062 604 333.3125 602.074219 326.425781 C 600.851562 322.011719 597.414062 316.875 591.863281 311.023438 L 579.425781 297.898438 C 574.6875 292.949219 571.863281 289.511719 570.898438 287.550781 C 569.398438 284.5625 569.9375 281.925781 572.523438 279.625 C 575.335938 277.101562 578.9375 276.074219 583.335938 276.511719 C 587.800781 276.949219 592.449219 278.738281 597.3125 281.863281 C 601.726562 284.710938 604.835938 287.664062 606.574219 290.710938 C 609.261719 295.3125 608.511719 299.75 604.386719 303.960938 L 622.851562 316.125 C 630.523438 308.726562 632.925781 300.886719 630.0625 292.648438 C 627.261719 284.488281 621 277.363281 611.335938 271.3125 "/>
</g>
</svg>
