<?xml version="1.0" encoding="UTF-8"?>
<svg xmlns="http://www.w3.org/2000/svg" xmlns:xlink="http://www.w3.org/1999/xlink" width="24px" height="24px" viewBox="0 0 24 24" version="1.1">
<g id="surface1">
<path style=" stroke:none;fill-rule:nonzero;fill:#ffffff;fill-opacity:1;" d="M 22.835938 0.582031 C 22.785156 0.480469 22.691406 0.40625 22.582031 0.382812 C 21.460938 0.140625 19.964844 0.015625 18.132812 0.015625 C 16.289062 0.015625 14.171875 0.148438 12.328125 0.378906 C 6.617188 1.09375 2.625 5.101562 2.625 10.125 L 2.625 17.128906 L 1.164062 22.585938 C 1.003906 23.183594 1.359375 23.800781 1.960938 23.960938 C 2.558594 24.121094 3.175781 23.765625 3.335938 23.167969 L 4.21875 19.875 L 11.625 19.875 C 17 19.875 21.375 15.5 21.375 10.125 C 21.375 7.625 21.375 4.203125 22.84375 0.902344 C 22.886719 0.800781 22.886719 0.679688 22.835938 0.582031 Z M 2.613281 22.972656 C 2.558594 23.171875 2.351562 23.289062 2.152344 23.238281 C 1.953125 23.183594 1.835938 22.976562 1.886719 22.777344 L 2.84375 19.144531 C 2.996094 19.398438 3.21875 19.601562 3.488281 19.726562 Z M 19.628906 3.351562 C 19.601562 3.363281 17.375 4.214844 14.175781 6.847656 C 16.265625 6.625 18.011719 7.113281 18.101562 7.140625 C 18.300781 7.195312 18.417969 7.402344 18.359375 7.601562 C 18.3125 7.765625 18.164062 7.875 18 7.875 C 17.964844 7.875 17.929688 7.871094 17.898438 7.859375 C 17.875 7.855469 15.472656 7.191406 13.054688 7.808594 C 12.558594 8.253906 12.042969 8.738281 11.515625 9.265625 C 10.898438 9.882812 10.347656 10.476562 9.84375 11.046875 C 13.671875 10.289062 17.1875 11.21875 17.347656 11.261719 C 17.546875 11.316406 17.667969 11.523438 17.613281 11.722656 C 17.566406 11.890625 17.414062 12 17.25 12 C 17.21875 12 17.183594 11.996094 17.152344 11.988281 C 17.109375 11.976562 13.070312 10.902344 9.097656 11.988281 C 9.078125 11.992188 9.058594 11.992188 9.039062 11.996094 C 8.027344 13.234375 7.28125 14.320312 6.75 15.191406 C 10.574219 14.398438 13.835938 15.347656 13.984375 15.390625 C 14.179688 15.449219 14.292969 15.660156 14.234375 15.855469 C 14.183594 16.019531 14.035156 16.125 13.875 16.125 C 13.839844 16.125 13.804688 16.121094 13.765625 16.109375 C 13.730469 16.097656 10.148438 15.058594 6.234375 16.078125 C 5.789062 16.890625 5.605469 17.367188 5.601562 17.378906 C 5.546875 17.53125 5.402344 17.625 5.25 17.625 C 5.207031 17.625 5.164062 17.617188 5.121094 17.601562 C 4.925781 17.53125 4.828125 17.316406 4.898438 17.121094 C 4.917969 17.0625 5.132812 16.5 5.652344 15.566406 C 6.339844 11.988281 5.640625 8.738281 5.632812 8.707031 C 5.589844 8.503906 5.714844 8.304688 5.917969 8.257812 C 6.121094 8.210938 6.320312 8.34375 6.367188 8.542969 C 6.390625 8.660156 6.898438 11.003906 6.632812 13.964844 C 7.164062 13.171875 7.835938 12.253906 8.683594 11.242188 C 9.316406 7.382812 8.640625 4.238281 8.632812 4.207031 C 8.589844 4.003906 8.714844 3.804688 8.917969 3.757812 C 9.121094 3.714844 9.320312 3.84375 9.367188 4.042969 C 9.394531 4.167969 9.953125 6.773438 9.582031 10.214844 C 10.011719 9.738281 10.476562 9.242188 10.984375 8.734375 C 11.464844 8.253906 11.933594 7.816406 12.386719 7.402344 L 12.386719 7.398438 C 13.089844 4.941406 12.40625 3.15625 12.402344 3.140625 C 12.324219 2.945312 12.417969 2.726562 12.613281 2.652344 C 12.804688 2.574219 13.019531 2.667969 13.097656 2.859375 C 13.125 2.933594 13.699219 4.402344 13.34375 6.558594 C 16.820312 3.617188 19.246094 2.691406 19.371094 2.648438 C 19.566406 2.578125 19.78125 2.675781 19.851562 2.871094 C 19.921875 3.0625 19.824219 3.28125 19.628906 3.351562 Z M 19.628906 3.351562 "/>
</g>
</svg>
