<?xml version="1.0" encoding="UTF-8"?>
<svg xmlns="http://www.w3.org/2000/svg" xmlns:xlink="http://www.w3.org/1999/xlink" width="24px" height="24px" viewBox="0 0 24 24" version="1.1">
<g id="surface1">
<path style=" stroke:none;fill-rule:nonzero;fill:rgb(0%,0%,0%);fill-opacity:1;" d="M 20.25 21.023438 L 18.75 21.023438 L 18.75 22.476562 L 15.75 22.476562 L 15.75 21.023438 L 7.5 21.023438 L 7.5 22.476562 L 4.5 22.476562 L 4.5 21.023438 L 3 21.023438 C 2.171875 21.023438 1.5 20.351562 1.5 19.523438 L 1.5 6.773438 C 1.5 5.945312 2.171875 5.273438 3 5.273438 L 20.25 5.273438 C 21.078125 5.273438 21.75 5.945312 21.75 6.773438 L 21.75 19.523438 C 21.75 20.351562 21.078125 21.023438 20.25 21.023438 Z M 15.75 12.023438 L 12.75 12.023438 L 12.75 9.023438 L 10.5 9.023438 L 10.5 12.023438 L 7.5 12.023438 L 7.5 14.273438 L 10.5 14.273438 L 10.5 17.273438 L 12.75 17.273438 L 12.75 14.273438 L 15.75 14.273438 Z M 14.25 3.007812 L 9.75 3.007812 L 9.75 4.523438 L 8.25 4.523438 L 8.25 3.789062 L 9 3.789062 L 9 1.523438 L 14.96875 1.523438 L 14.96875 3.773438 L 15.75 3.773438 L 15.75 4.523438 L 14.25 4.523438 Z M 14.25 3.007812 "/>
</g>
</svg>
