<?xml version="1.0" encoding="UTF-8"?>
<svg xmlns="http://www.w3.org/2000/svg" xmlns:xlink="http://www.w3.org/1999/xlink" width="24px" height="24px" viewBox="0 0 24 24" version="1.1">
<g id="surface1">
<path style=" stroke:none;fill-rule:nonzero;fill:#ffffff;fill-opacity:1;" d="M 6.75 3.75 L 6.75 24 L 10.125 24 L 10.125 19.875 C 10.125 19.667969 10.292969 19.5 10.5 19.5 L 13.5 19.5 C 13.707031 19.5 13.875 19.667969 13.875 19.875 L 13.875 24 L 17.25 24 L 17.25 1.5 C 17.25 0.671875 16.578125 0 15.75 0 L 8.25 0 C 7.421875 0 6.75 0.671875 6.75 1.5 Z M 12.75 3.375 C 12.75 3.167969 12.917969 3 13.125 3 L 14.625 3 C 14.832031 3 15 3.167969 15 3.375 L 15 4.875 C 15 5.082031 14.832031 5.25 14.625 5.25 L 13.125 5.25 C 12.917969 5.25 12.75 5.082031 12.75 4.875 Z M 12.75 7.125 C 12.75 6.917969 12.917969 6.75 13.125 6.75 L 14.625 6.75 C 14.832031 6.75 15 6.917969 15 7.125 L 15 8.625 C 15 8.832031 14.832031 9 14.625 9 L 13.125 9 C 12.917969 9 12.75 8.832031 12.75 8.625 Z M 12.75 10.875 C 12.75 10.667969 12.917969 10.5 13.125 10.5 L 14.625 10.5 C 14.832031 10.5 15 10.667969 15 10.875 L 15 12.375 C 15 12.582031 14.832031 12.75 14.625 12.75 L 13.125 12.75 C 12.917969 12.75 12.75 12.582031 12.75 12.375 Z M 12.75 14.625 C 12.75 14.417969 12.917969 14.25 13.125 14.25 L 14.625 14.25 C 14.832031 14.25 15 14.417969 15 14.625 L 15 16.125 C 15 16.332031 14.832031 16.5 14.625 16.5 L 13.125 16.5 C 12.917969 16.5 12.75 16.332031 12.75 16.125 Z M 9 3.375 C 9 3.167969 9.167969 3 9.375 3 L 10.875 3 C 11.082031 3 11.25 3.167969 11.25 3.375 L 11.25 4.875 C 11.25 5.082031 11.082031 5.25 10.875 5.25 L 9.375 5.25 C 9.167969 5.25 9 5.082031 9 4.875 Z M 9 7.125 C 9 6.917969 9.167969 6.75 9.375 6.75 L 10.875 6.75 C 11.082031 6.75 11.25 6.917969 11.25 7.125 L 11.25 8.625 C 11.25 8.832031 11.082031 9 10.875 9 L 9.375 9 C 9.167969 9 9 8.832031 9 8.625 Z M 9 10.875 C 9 10.667969 9.167969 10.5 9.375 10.5 L 10.875 10.5 C 11.082031 10.5 11.25 10.667969 11.25 10.875 L 11.25 12.375 C 11.25 12.582031 11.082031 12.75 10.875 12.75 L 9.375 12.75 C 9.167969 12.75 9 12.582031 9 12.375 Z M 9 14.625 C 9 14.417969 9.167969 14.25 9.375 14.25 L 10.875 14.25 C 11.082031 14.25 11.25 14.417969 11.25 14.625 L 11.25 16.125 C 11.25 16.332031 11.082031 16.5 10.875 16.5 L 9.375 16.5 C 9.167969 16.5 9 16.332031 9 16.125 Z M 9 14.625 "/>
<path style=" stroke:none;fill-rule:nonzero;fill:#ffffff;fill-opacity:1;" d="M 9.75 11.25 L 10.5 11.25 L 10.5 12 L 9.75 12 Z M 9.75 11.25 "/>
<path style=" stroke:none;fill-rule:nonzero;fill:#ffffff;fill-opacity:1;" d="M 9.75 15 L 10.5 15 L 10.5 15.75 L 9.75 15.75 Z M 9.75 15 "/>
<path style=" stroke:none;fill-rule:nonzero;fill:#ffffff;fill-opacity:1;" d="M 10.875 20.25 L 13.125 20.25 L 13.125 24 L 10.875 24 Z M 10.875 20.25 "/>
<path style=" stroke:none;fill-rule:nonzero;fill:#ffffff;fill-opacity:1;" d="M 3 18.75 L 3.75 18.75 L 3.75 19.5 L 3 19.5 Z M 3 18.75 "/>
<path style=" stroke:none;fill-rule:nonzero;fill:#ffffff;fill-opacity:1;" d="M 9.75 3.75 L 10.5 3.75 L 10.5 4.5 L 9.75 4.5 Z M 9.75 3.75 "/>
<path style=" stroke:none;fill-rule:nonzero;fill:#ffffff;fill-opacity:1;" d="M 9.75 7.5 L 10.5 7.5 L 10.5 8.25 L 9.75 8.25 Z M 9.75 7.5 "/>
<path style=" stroke:none;fill-rule:nonzero;fill:#ffffff;fill-opacity:1;" d="M 13.5 7.5 L 14.25 7.5 L 14.25 8.25 L 13.5 8.25 Z M 13.5 7.5 "/>
<path style=" stroke:none;fill-rule:nonzero;fill:#ffffff;fill-opacity:1;" d="M 13.5 3.75 L 14.25 3.75 L 14.25 4.5 L 13.5 4.5 Z M 13.5 3.75 "/>
<path style=" stroke:none;fill-rule:nonzero;fill:#ffffff;fill-opacity:1;" d="M 13.5 11.25 L 14.25 11.25 L 14.25 12 L 13.5 12 Z M 13.5 11.25 "/>
<path style=" stroke:none;fill-rule:nonzero;fill:#ffffff;fill-opacity:1;" d="M 13.5 15 L 14.25 15 L 14.25 15.75 L 13.5 15.75 Z M 13.5 15 "/>
<path style=" stroke:none;fill-rule:nonzero;fill:#ffffff;fill-opacity:1;" d="M 3 15 L 3.75 15 L 3.75 15.75 L 3 15.75 Z M 3 15 "/>
<path style=" stroke:none;fill-rule:nonzero;fill:#ffffff;fill-opacity:1;" d="M 6 3.75 L 1.5 3.75 C 0.671875 3.75 0 4.421875 0 5.25 L 0 22.5 C 0 23.328125 0.671875 24 1.5 24 L 6 24 Z M 4.5 19.875 C 4.5 20.082031 4.332031 20.25 4.125 20.25 L 2.625 20.25 C 2.417969 20.25 2.25 20.082031 2.25 19.875 L 2.25 18.375 C 2.25 18.167969 2.417969 18 2.625 18 L 4.125 18 C 4.332031 18 4.5 18.167969 4.5 18.375 Z M 4.5 16.125 C 4.5 16.332031 4.332031 16.5 4.125 16.5 L 2.625 16.5 C 2.417969 16.5 2.25 16.332031 2.25 16.125 L 2.25 14.625 C 2.25 14.417969 2.417969 14.25 2.625 14.25 L 4.125 14.25 C 4.332031 14.25 4.5 14.417969 4.5 14.625 Z M 4.5 12.375 C 4.5 12.582031 4.332031 12.75 4.125 12.75 L 2.625 12.75 C 2.417969 12.75 2.25 12.582031 2.25 12.375 L 2.25 10.875 C 2.25 10.667969 2.417969 10.5 2.625 10.5 L 4.125 10.5 C 4.332031 10.5 4.5 10.667969 4.5 10.875 Z M 4.125 9 L 2.625 9 C 2.417969 9 2.25 8.832031 2.25 8.625 L 2.25 7.125 C 2.25 6.917969 2.417969 6.75 2.625 6.75 L 4.125 6.75 C 4.332031 6.75 4.5 6.917969 4.5 7.125 L 4.5 8.625 C 4.5 8.832031 4.332031 9 4.125 9 Z M 4.125 9 "/>
<path style=" stroke:none;fill-rule:nonzero;fill:#ffffff;fill-opacity:1;" d="M 20.25 18.75 L 21 18.75 L 21 19.5 L 20.25 19.5 Z M 20.25 18.75 "/>
<path style=" stroke:none;fill-rule:nonzero;fill:#ffffff;fill-opacity:1;" d="M 20.25 15 L 21 15 L 21 15.75 L 20.25 15.75 Z M 20.25 15 "/>
<path style=" stroke:none;fill-rule:nonzero;fill:#ffffff;fill-opacity:1;" d="M 20.25 11.25 L 21 11.25 L 21 12 L 20.25 12 Z M 20.25 11.25 "/>
<path style=" stroke:none;fill-rule:nonzero;fill:#ffffff;fill-opacity:1;" d="M 22.5 7.5 L 18 7.5 L 18 24 L 22.5 24 C 23.328125 24 24 23.328125 24 22.5 L 24 9 C 24 8.171875 23.328125 7.5 22.5 7.5 Z M 21.75 19.875 C 21.75 20.082031 21.582031 20.25 21.375 20.25 L 19.875 20.25 C 19.667969 20.25 19.5 20.082031 19.5 19.875 L 19.5 18.375 C 19.5 18.167969 19.667969 18 19.875 18 L 21.375 18 C 21.582031 18 21.75 18.167969 21.75 18.375 Z M 21.75 16.125 C 21.75 16.332031 21.582031 16.5 21.375 16.5 L 19.875 16.5 C 19.667969 16.5 19.5 16.332031 19.5 16.125 L 19.5 14.625 C 19.5 14.417969 19.667969 14.25 19.875 14.25 L 21.375 14.25 C 21.582031 14.25 21.75 14.417969 21.75 14.625 Z M 21.75 12.375 C 21.75 12.582031 21.582031 12.75 21.375 12.75 L 19.875 12.75 C 19.667969 12.75 19.5 12.582031 19.5 12.375 L 19.5 10.875 C 19.5 10.667969 19.667969 10.5 19.875 10.5 L 21.375 10.5 C 21.582031 10.5 21.75 10.667969 21.75 10.875 Z M 21.75 12.375 "/>
<path style=" stroke:none;fill-rule:nonzero;fill:#ffffff;fill-opacity:1;" d="M 3 11.25 L 3.75 11.25 L 3.75 12 L 3 12 Z M 3 11.25 "/>
<path style=" stroke:none;fill-rule:nonzero;fill:#ffffff;fill-opacity:1;" d="M 3 7.5 L 3.75 7.5 L 3.75 8.25 L 3 8.25 Z M 3 7.5 "/>
</g>
</svg>
