<?xml version="1.0" encoding="UTF-8"?>
<svg xmlns="http://www.w3.org/2000/svg" xmlns:xlink="http://www.w3.org/1999/xlink" width="24px" height="24px" viewBox="0 0 24 24" version="1.1">
<g id="surface1">
<path style=" stroke:none;fill-rule:nonzero;fill:#ffffff;fill-opacity:1;" d="M 22.445312 21.703125 L 21.425781 2.070312 C 21.367188 0.910156 20.410156 0 19.246094 0 L 4.75 0 C 3.589844 0 2.632812 0.910156 2.574219 2.070312 L 1.554688 21.703125 C 1.523438 22.300781 1.742188 22.886719 2.152344 23.320312 C 2.566406 23.753906 3.136719 24 3.734375 24 L 20.265625 24 C 20.863281 24 21.433594 23.753906 21.847656 23.320312 C 22.257812 22.886719 22.476562 22.300781 22.445312 21.703125 Z M 18.511719 5.011719 C 17.765625 7.925781 15.140625 10.046875 12.007812 10.046875 C 8.875 10.046875 6.25 7.933594 5.503906 5.019531 C 4.914062 4.789062 4.496094 4.21875 4.496094 3.546875 C 4.496094 2.675781 5.203125 1.96875 6.078125 1.96875 C 6.949219 1.96875 7.65625 2.675781 7.65625 3.546875 C 7.65625 4.046875 7.425781 4.492188 7.0625 4.78125 C 7.6875 6.933594 9.664062 8.484375 12.007812 8.484375 C 14.347656 8.484375 16.320312 6.9375 16.949219 4.789062 C 16.582031 4.5 16.34375 4.050781 16.34375 3.546875 C 16.34375 2.675781 17.050781 1.96875 17.921875 1.96875 C 18.792969 1.96875 19.5 2.675781 19.5 3.546875 C 19.5 4.210938 19.089844 4.78125 18.511719 5.011719 Z M 18.511719 5.011719 "/>
</g>
</svg>
