<?xml version="1.0" encoding="UTF-8"?>
<svg xmlns="http://www.w3.org/2000/svg" xmlns:xlink="http://www.w3.org/1999/xlink" width="24px" height="24px" viewBox="0 0 24 24" version="1.1">
<g id="surface1">
<path style=" stroke:none;fill-rule:nonzero;fill:#ffffff;fill-opacity:1;" d="M 6.917969 15.007812 C 6.914062 14.972656 6.902344 14.9375 6.902344 14.898438 L 6.902344 14.578125 C 6.902344 14.425781 6.925781 14.277344 6.976562 14.132812 C 6.976562 14.132812 7.773438 13.066406 8.152344 11.8125 C 7.738281 10.941406 7.363281 9.855469 7.363281 8.78125 C 7.363281 8.53125 7.382812 8.289062 7.40625 8.050781 C 6.867188 7.488281 6.140625 7.167969 5.339844 7.167969 C 3.679688 7.167969 2.332031 8.519531 2.332031 10.625 C 2.332031 12.308594 3.703125 14.132812 3.703125 14.132812 C 3.75 14.277344 3.777344 14.425781 3.777344 14.578125 L 3.777344 14.898438 C 3.777344 15.300781 3.542969 15.664062 3.179688 15.828125 L 1.003906 16.71875 C 0.5 16.949219 0.140625 17.414062 0.0390625 17.960938 L 0.00390625 18.4375 C -0.015625 18.6875 0.0703125 18.933594 0.238281 19.117188 C 0.40625 19.300781 0.644531 19.402344 0.894531 19.402344 L 4.449219 19.402344 L 4.59375 17.53125 L 4.605469 17.480469 C 4.78125 16.496094 5.433594 15.664062 6.339844 15.246094 Z M 6.917969 15.007812 "/>
<path style=" stroke:none;fill-rule:nonzero;fill:#ffffff;fill-opacity:1;" d="M 23.960938 17.960938 C 23.859375 17.414062 23.5 16.949219 22.996094 16.71875 L 20.820312 15.828125 C 20.457031 15.664062 20.226562 15.296875 20.226562 14.898438 L 20.226562 14.578125 C 20.226562 14.425781 20.25 14.277344 20.296875 14.132812 C 20.296875 14.132812 21.667969 12.308594 21.667969 10.625 C 21.667969 8.519531 20.320312 7.167969 18.660156 7.167969 C 17.859375 7.167969 17.132812 7.488281 16.589844 8.050781 C 16.617188 8.289062 16.636719 8.53125 16.636719 8.78125 C 16.636719 9.855469 16.261719 10.941406 15.847656 11.8125 C 16.226562 13.066406 17.023438 14.132812 17.023438 14.132812 C 17.074219 14.277344 17.097656 14.425781 17.097656 14.578125 L 17.097656 14.898438 C 17.097656 14.9375 17.085938 14.972656 17.082031 15.007812 L 17.621094 15.226562 C 18.566406 15.660156 19.214844 16.496094 19.394531 17.476562 L 19.40625 17.527344 L 19.550781 19.402344 L 23.105469 19.402344 C 23.355469 19.402344 23.59375 19.300781 23.761719 19.117188 C 23.929688 18.933594 24.015625 18.6875 23.996094 18.4375 Z M 23.960938 17.960938 "/>
<path style=" stroke:none;fill-rule:nonzero;fill:#ffffff;fill-opacity:1;" d="M 17.242188 16.152344 L 14.613281 15.078125 C 14.171875 14.875 13.890625 14.4375 13.890625 13.953125 L 13.890625 13.566406 C 13.890625 13.382812 13.921875 13.199219 13.980469 13.027344 C 13.980469 13.027344 15.636719 10.816406 15.636719 8.78125 C 15.636719 6.234375 14.007812 4.597656 12 4.597656 C 9.992188 4.597656 8.363281 6.234375 8.363281 8.78125 C 8.363281 10.816406 10.019531 13.027344 10.019531 13.027344 C 10.078125 13.199219 10.109375 13.382812 10.109375 13.566406 L 10.109375 13.953125 C 10.109375 14.4375 9.828125 14.875 9.386719 15.078125 L 6.753906 16.152344 C 6.144531 16.433594 5.707031 16.996094 5.589844 17.660156 L 5.453125 19.402344 L 18.546875 19.402344 L 18.414062 17.660156 C 18.292969 16.996094 17.855469 16.433594 17.242188 16.152344 Z M 17.242188 16.152344 "/>
</g>
</svg>
