<?xml version="1.0" encoding="UTF-8"?>
<svg xmlns="http://www.w3.org/2000/svg" xmlns:xlink="http://www.w3.org/1999/xlink" width="24px" height="24px" viewBox="0 0 24 24" version="1.1">
<g id="surface1">
<path style=" stroke:none;fill-rule:nonzero;fill:#ffffff;fill-opacity:1;" d="M 13.125 5.25 C 13.125 4.628906 12.621094 4.125 12 4.125 C 11.378906 4.125 10.875 4.628906 10.875 5.25 C 10.875 5.871094 11.378906 6.375 12 6.375 C 12.621094 6.375 13.125 5.871094 13.125 5.25 Z M 13.125 5.25 "/>
<path style=" stroke:none;fill-rule:nonzero;fill:#ffffff;fill-opacity:1;" d="M 1.5 9.375 L 22.5 9.375 C 23.171875 9.375 23.761719 8.925781 23.945312 8.277344 C 24.125 7.632812 23.855469 6.941406 23.277344 6.59375 L 12.777344 0.21875 C 12.539062 0.0742188 12.269531 0 12 0 C 11.730469 0 11.460938 0.0742188 11.222656 0.21875 L 0.722656 6.59375 C 0.148438 6.941406 -0.125 7.632812 0.0546875 8.277344 C 0.238281 8.925781 0.828125 9.375 1.5 9.375 Z M 12 3.375 C 13.035156 3.375 13.875 4.214844 13.875 5.25 C 13.875 6.285156 13.035156 7.125 12 7.125 C 10.964844 7.125 10.125 6.285156 10.125 5.25 C 10.125 4.214844 10.964844 3.375 12 3.375 Z M 12 3.375 "/>
<path style=" stroke:none;fill-rule:nonzero;fill:#ffffff;fill-opacity:1;" d="M 12.75 10.125 L 15.75 10.125 L 15.75 19.5 L 12.75 19.5 Z M 12.75 10.125 "/>
<path style=" stroke:none;fill-rule:nonzero;fill:#ffffff;fill-opacity:1;" d="M 17.25 10.125 L 20.25 10.125 L 20.25 19.5 L 17.25 19.5 Z M 17.25 10.125 "/>
<path style=" stroke:none;fill-rule:nonzero;fill:#ffffff;fill-opacity:1;" d="M 8.25 10.125 L 11.25 10.125 L 11.25 19.5 L 8.25 19.5 Z M 8.25 10.125 "/>
<path style=" stroke:none;fill-rule:nonzero;fill:#ffffff;fill-opacity:1;" d="M 3.75 10.125 L 6.75 10.125 L 6.75 19.5 L 3.75 19.5 Z M 3.75 10.125 "/>
<path style=" stroke:none;fill-rule:nonzero;fill:#ffffff;fill-opacity:1;" d="M 1.5 21.75 L 22.5 21.75 C 22.5 20.921875 21.828125 20.25 21 20.25 L 3 20.25 C 2.171875 20.25 1.5 20.921875 1.5 21.75 Z M 1.5 21.75 "/>
<path style=" stroke:none;fill-rule:nonzero;fill:#ffffff;fill-opacity:1;" d="M 23.792969 22.5 L 0.207031 22.5 C 0.078125 22.722656 0 22.976562 0 23.25 L 0 24 L 24 24 L 24 23.25 C 24 22.976562 23.921875 22.722656 23.792969 22.5 Z M 23.792969 22.5 "/>
</g>
</svg>
