<?xml version="1.0" encoding="UTF-8"?>
<svg xmlns="http://www.w3.org/2000/svg" xmlns:xlink="http://www.w3.org/1999/xlink" width="24px" height="24px" viewBox="0 0 24 24" version="1.1">
<g id="surface1">
<path style=" stroke:none;fill-rule:nonzero;fill:#ffffff;fill-opacity:1;" d="M 16.21875 19.558594 C 10.132812 23.074219 3.246094 22.539062 0.835938 18.363281 C -1.574219 14.1875 1.40625 7.957031 7.492188 4.441406 C 13.582031 0.925781 20.46875 1.460938 22.878906 5.636719 C 25.289062 9.808594 22.308594 16.042969 16.21875 19.558594 Z M 1.824219 12.894531 C 1.257812 14.609375 1.292969 16.285156 2.089844 17.667969 C 2.890625 19.050781 4.320312 19.921875 6.089844 20.285156 Z M 14.878906 3.617188 C 12.769531 3.753906 10.445312 4.449219 8.214844 5.734375 C 5.953125 7.042969 4.160156 8.746094 2.988281 10.539062 L 8.714844 20.457031 C 10.851562 20.335938 13.222656 19.640625 15.488281 18.332031 C 17.714844 17.046875 19.480469 15.378906 20.65625 13.621094 Z M 21.859375 11.230469 C 22.453125 9.496094 22.421875 7.792969 21.617188 6.394531 C 20.808594 4.996094 19.351562 4.121094 17.550781 3.765625 Z M 12.511719 14.042969 L 11.921875 14.386719 L 11.21875 13.164062 L 11.214844 13.167969 L 10.546875 13.550781 L 11.253906 14.773438 L 10.664062 15.113281 L 9.957031 13.890625 L 9.953125 13.894531 L 9.289062 14.277344 L 9.992188 15.5 L 9.402344 15.839844 L 8.699219 14.617188 L 8.695312 14.621094 L 7.4375 15.347656 L 7.070312 14.71875 L 8.335938 13.988281 L 7.597656 12.714844 L 8.1875 12.375 L 8.925781 13.648438 L 9.59375 13.261719 L 8.859375 11.984375 L 9.449219 11.644531 L 10.183594 12.921875 L 10.855469 12.535156 L 10.117188 11.257812 L 10.710938 10.917969 L 11.445312 12.191406 L 12.113281 11.804688 L 11.378906 10.53125 L 11.96875 10.191406 L 12.707031 11.464844 L 13.375 11.078125 L 12.636719 9.804688 L 13.226562 9.464844 L 13.964844 10.738281 L 14.636719 10.351562 L 13.898438 9.078125 L 14.488281 8.734375 L 15.222656 10.011719 L 16.539062 9.253906 L 16.902344 9.882812 L 15.585938 10.640625 L 16.292969 11.863281 L 15.703125 12.203125 L 14.996094 10.984375 L 14.328125 11.367188 L 15.035156 12.589844 L 14.441406 12.929688 L 13.738281 11.710938 L 13.734375 11.710938 L 13.070312 12.097656 L 13.773438 13.316406 L 13.183594 13.65625 L 12.480469 12.4375 L 12.476562 12.4375 L 11.808594 12.824219 Z M 12.511719 14.042969 "/>
</g>
</svg>
