<?xml version="1.0" encoding="UTF-8"?>
<!-- Flag from lipis/flag-icons (MIT), in shades of one color for Paperboy -->
<svg xmlns="http://www.w3.org/2000/svg" width="24" height="24" viewBox="0 0 24 24" version="1.1"><defs><clipPath id="paperboy-flag-clip"><rect x="0.75" y="3.5625" width="22.5" height="16.875" rx="1.5" /></clipPath><mask id="paperboy-flag-mask" maskUnits="userSpaceOnUse" x="0" y="0" width="24" height="24"><g fill="#fff" transform="translate(0.75 3.5625) scale(0.03515625 0.03515625)"><g fill-rule="evenodd">
    <path fill="#ffffff" d="M0 0h640v480H0z" />
    <path fill="#000000" d="M407 247.5c0 66.2-54.6 119.9-122 119.9s-122-53.7-122-120 54.6-119.8 122-119.8 122 53.7 122 119.9" />
    <path fill="#ffffff" d="M413 247.5c0 53-43.6 95.9-97.5 95.9s-97.6-43-97.6-96 43.7-95.8 97.6-95.8 97.6 42.9 97.6 95.9z" />
    <path fill="#000000" d="m430.7 191.5-1 44.3-41.3 11.2 40.8 14.5-1 40.7 26.5-31.8 40.2 14-23.2-34.1 28.3-33.9-43.5 12-25.8-37z" />
  </g>
</g></mask></defs><rect x="0.75" y="3.5625" width="22.5" height="16.875" fill="#000000" mask="url(#paperboy-flag-mask)" clip-path="url(#paperboy-flag-clip)" /><rect x="0.75" y="3.5625" width="22.5" height="16.875" rx="1.5" fill="none" stroke="#000000" stroke-width="1.5" /></svg>
