<?xml version="1.0" encoding="UTF-8"?>
<!-- Flag from lipis/flag-icons (MIT), in shades of one color for Paperboy -->
<svg xmlns="http://www.w3.org/2000/svg" width="24" height="24" viewBox="0 0 24 24" version="1.1"><defs><clipPath id="paperboy-flag-clip"><rect x="0.75" y="3.5625" width="22.5" height="16.875" rx="1.5" /></clipPath><mask id="paperboy-flag-mask" maskUnits="userSpaceOnUse" x="0" y="0" width="24" height="24"><g fill="#fff" transform="translate(0.75 3.5625) scale(0.03515625 0.03515625)"><defs>
    <clipPath id="cu-a">
      <path fill-opacity=".7" d="M-32 0h682.7v512H-32z" />
    </clipPath>
  </defs>
  <g fill-rule="evenodd" clip-path="url(#cu-a)" transform="translate(30)scale(.94)">
    <path fill="#ffffff" d="M-32 0h768v512H-32z" />
    <path fill="#000000" d="M-32 102.4h768v102.4H-32zm0 204.8h768v102.4H-32z" />
    <path fill="#272727" d="m-32 0 440.7 255.7L-32 511z" />
    <path fill="#000000" d="M161.8 325.5 114.3 290l-47.2 35.8 17.6-58.1-47.2-36 58.3-.4 18.1-58 18.5 57.8 58.3.1-46.9 36.3z" />
  </g>
</g></mask></defs><rect x="0.75" y="3.5625" width="22.5" height="16.875" fill="#ffffff" mask="url(#paperboy-flag-mask)" clip-path="url(#paperboy-flag-clip)" /><rect x="0.75" y="3.5625" width="22.5" height="16.875" rx="1.5" fill="none" stroke="#ffffff" stroke-width="1.5" /></svg>
