<?xml version="1.0" encoding="UTF-8"?>
<!-- Flag from lipis/flag-icons (MIT), in shades of one color for Paperboy -->
<svg xmlns="http://www.w3.org/2000/svg" xmlns:xlink="http://www.w3.org/1999/xlink" width="24" height="24" viewBox="0 0 24 24" version="1.1"><defs><clipPath id="paperboy-flag-clip"><rect x="0.75" y="3.5625" width="22.5" height="16.875" rx="1.5" /></clipPath><mask id="paperboy-flag-mask" maskUnits="userSpaceOnUse" x="0" y="0" width="24" height="24"><g fill="#fff" transform="translate(0.75 3.5625) scale(0.03515625 0.03515625)"><defs>
    <path id="ke-a" stroke-miterlimit="10" d="m-28.6 47.5 1.8 1 46.7-81c2.7-.6 4.2-3.2 5.7-5.8 1-1.8 5-8.7 6.7-17.7a58 58 0 0 0-11.9 14.7c-1.5 2.6-3 5.2-2.3 7.9z" />
  </defs>
  <path fill="#000000" d="M0 0h640v480H0z" />
  <path fill="#ffffff" d="M0 0h640v144H0z" />
  <path fill="#272727" d="M0 336h640v144H0z" />
  <g id="ke-b" transform="matrix(3 0 0 3 320 240)">
    <use xlink:href="#ke-a" width="100%" height="100%" stroke="#ffffff" />
    <use xlink:href="#ke-a" width="100%" height="100%" fill="#000000" />
  </g>
  <use xlink:href="#ke-b" width="100%" height="100%" transform="matrix(-1 0 0 1 640 0)" />
  <path fill="#252525" d="M640.5 168H377c-9-24-39-72-57-72s-48 48-57 72H-.2v144H263c9 24 39 72 57 72s48-48 57-72h263.5z" />
  <path id="ke-c" d="M377 312c9-24 15-48 15-72s-6-48-15-72c-9 24-15 48-15 72s6 48 15 72" />
  <use xlink:href="#ke-c" width="100%" height="100%" transform="matrix(-1 0 0 1 640 0)" />
  <g fill="#000000" transform="matrix(3 0 0 3 320 240)">
    <ellipse rx="4" ry="6" />
    <path id="ke-d" d="M1 5.8s4 8 4 21-4 21-4 21z" />
    <use xlink:href="#ke-d" width="100%" height="100%" transform="scale(-1)" />
    <use xlink:href="#ke-d" width="100%" height="100%" transform="scale(-1 1)" />
    <use xlink:href="#ke-d" width="100%" height="100%" transform="scale(1 -1)" />
  </g>
</g></mask></defs><rect x="0.75" y="3.5625" width="22.5" height="16.875" fill="#ffffff" mask="url(#paperboy-flag-mask)" clip-path="url(#paperboy-flag-clip)" /><rect x="0.75" y="3.5625" width="22.5" height="16.875" rx="1.5" fill="none" stroke="#ffffff" stroke-width="1.5" /></svg>
