<?xml version="1.0" encoding="UTF-8"?>
<svg xmlns="http://www.w3.org/2000/svg" xmlns:xlink="http://www.w3.org/1999/xlink" width="24px" height="24px" viewBox="0 0 24 24" version="1.1">
<g id="surface1">
<path style=" stroke:none;fill-rule:evenodd;fill:rgb(0%,0%,0%);fill-opacity:1;" d="M 21.601562 16.570312 L 19.199219 16.570312 C 17.875 16.570312 16.800781 17.59375 16.800781 18.855469 L 16.800781 21.144531 C 16.800781 22.40625 17.875 23.429688 19.199219 23.429688 L 21.601562 23.429688 C 22.925781 23.429688 24 22.40625 24 21.144531 L 24 18.855469 C 24 17.59375 22.925781 16.570312 21.601562 16.570312 M 13.199219 16.570312 L 10.800781 16.570312 C 9.472656 16.570312 8.398438 17.59375 8.398438 18.855469 L 8.398438 21.144531 C 8.398438 22.40625 9.472656 23.429688 10.800781 23.429688 L 13.199219 23.429688 C 14.527344 23.429688 15.601562 22.40625 15.601562 21.144531 L 15.601562 18.855469 C 15.601562 17.59375 14.527344 16.570312 13.199219 16.570312 M 4.800781 16.570312 L 2.398438 16.570312 C 1.074219 16.570312 0 17.59375 0 18.855469 L 0 21.144531 C 0 22.40625 1.074219 23.429688 2.398438 23.429688 L 4.800781 23.429688 C 6.125 23.429688 7.199219 22.40625 7.199219 21.144531 L 7.199219 18.855469 C 7.199219 17.59375 6.125 16.570312 4.800781 16.570312 M 21.601562 8.570312 L 19.199219 8.570312 C 17.875 8.570312 16.800781 9.59375 16.800781 10.855469 L 16.800781 13.144531 C 16.800781 14.40625 17.875 15.429688 19.199219 15.429688 L 21.601562 15.429688 C 22.925781 15.429688 24 14.40625 24 13.144531 L 24 10.855469 C 24 9.59375 22.925781 8.570312 21.601562 8.570312 M 13.199219 8.570312 L 10.800781 8.570312 C 9.472656 8.570312 8.398438 9.59375 8.398438 10.855469 L 8.398438 13.144531 C 8.398438 14.40625 9.472656 15.429688 10.800781 15.429688 L 13.199219 15.429688 C 14.527344 15.429688 15.601562 14.40625 15.601562 13.144531 L 15.601562 10.855469 C 15.601562 9.59375 14.527344 8.570312 13.199219 8.570312 M 4.800781 8.570312 L 2.398438 8.570312 C 1.074219 8.570312 0 9.59375 0 10.855469 L 0 13.144531 C 0 14.40625 1.074219 15.429688 2.398438 15.429688 L 4.800781 15.429688 C 6.125 15.429688 7.199219 14.40625 7.199219 13.144531 L 7.199219 10.855469 C 7.199219 9.59375 6.125 8.570312 4.800781 8.570312 M 21.601562 0.570312 L 19.199219 0.570312 C 17.875 0.570312 16.800781 1.59375 16.800781 2.855469 L 16.800781 5.144531 C 16.800781 6.40625 17.875 7.429688 19.199219 7.429688 L 21.601562 7.429688 C 22.925781 7.429688 24 6.40625 24 5.144531 L 24 2.855469 C 24 1.59375 22.925781 0.570312 21.601562 0.570312 M 13.199219 0.570312 L 10.800781 0.570312 C 9.472656 0.570312 8.398438 1.59375 8.398438 2.855469 L 8.398438 5.144531 C 8.398438 6.40625 9.472656 7.429688 10.800781 7.429688 L 13.199219 7.429688 C 14.527344 7.429688 15.601562 6.40625 15.601562 5.144531 L 15.601562 2.855469 C 15.601562 1.59375 14.527344 0.570312 13.199219 0.570312 M 7.199219 2.855469 L 7.199219 5.144531 C 7.199219 6.40625 6.125 7.429688 4.800781 7.429688 L 2.398438 7.429688 C 1.074219 7.429688 0 6.40625 0 5.144531 L 0 2.855469 C 0 1.59375 1.074219 0.570312 2.398438 0.570312 L 4.800781 0.570312 C 6.125 0.570312 7.199219 1.59375 7.199219 2.855469 "/>
</g>
</svg>
