<?xml version="1.0" encoding="UTF-8"?>
<svg xmlns="http://www.w3.org/2000/svg" xmlns:xlink="http://www.w3.org/1999/xlink" width="24px" height="24px" viewBox="0 0 24 24" version="1.1">
<g id="surface1">
<path style=" stroke:none;fill-rule:nonzero;fill:rgb(100%,100%,100%);fill-opacity:1;" d="M 16.207031 5.261719 C 16.148438 5.207031 16.078125 5.164062 16.003906 5.140625 L 11.417969 3.703125 C 9.585938 3.125 8.394531 4.128906 8.074219 4.453125 C 7.886719 4.640625 7.742188 4.835938 7.667969 5.007812 L 5.628906 9.8125 C 5.511719 10.085938 5.550781 10.453125 5.734375 10.816406 C 5.996094 11.339844 6.46875 11.714844 7.035156 11.851562 C 7.667969 12 8.324219 11.796875 8.835938 11.28125 C 8.96875 11.148438 9.085938 11 9.152344 10.875 L 9.839844 9.601562 C 9.953125 9.390625 10.117188 9.171875 10.289062 9 C 10.875 8.410156 11.15625 8.679688 11.277344 8.792969 C 12.300781 9.785156 17.6875 15.191406 17.6875 15.191406 C 17.878906 15.382812 17.835938 15.746094 17.597656 15.984375 C 17.359375 16.222656 16.996094 16.265625 16.804688 16.074219 L 15.292969 14.5625 C 15.097656 14.367188 14.78125 14.367188 14.585938 14.5625 C 14.390625 14.753906 14.390625 15.070312 14.585938 15.265625 L 16.101562 16.777344 C 16.292969 16.96875 16.25 17.332031 16.011719 17.570312 C 15.773438 17.8125 15.410156 17.851562 15.21875 17.660156 L 13.707031 16.148438 C 13.511719 15.953125 13.195312 15.953125 13 16.148438 C 12.804688 16.339844 12.804688 16.65625 13 16.851562 L 14.515625 18.363281 C 14.703125 18.554688 14.664062 18.917969 14.425781 19.160156 C 14.1875 19.398438 13.824219 19.4375 13.632812 19.246094 L 12.121094 17.734375 C 11.925781 17.539062 11.609375 17.539062 11.414062 17.734375 C 11.222656 17.929688 11.222656 18.246094 11.414062 18.4375 L 12.925781 19.953125 C 13.117188 20.144531 13.078125 20.503906 12.839844 20.746094 C 12.601562 20.984375 12.238281 21.023438 12.046875 20.832031 L 10.203125 18.992188 C 10.46875 18.59375 10.394531 18.023438 10.007812 17.628906 C 9.570312 17.191406 8.898438 17.152344 8.507812 17.542969 C 8.898438 17.152344 8.859375 16.480469 8.421875 16.042969 C 7.980469 15.605469 7.3125 15.566406 6.921875 15.957031 C 7.3125 15.566406 7.273438 14.894531 6.832031 14.457031 C 6.394531 14.019531 5.726562 13.980469 5.335938 14.371094 C 5.726562 13.980469 5.683594 13.308594 5.246094 12.871094 C 4.835938 12.460938 4.226562 12.40625 3.832031 12.71875 L 0.847656 9.738281 C 0.65625 9.542969 0.339844 9.542969 0.144531 9.738281 C -0.0507812 9.929688 -0.0507812 10.246094 0.144531 10.441406 L 3.117188 13.414062 L 2.234375 14.296875 C 1.847656 14.6875 1.886719 15.355469 2.324219 15.796875 C 2.761719 16.230469 3.433594 16.273438 3.824219 15.882812 C 3.433594 16.273438 3.472656 16.941406 3.910156 17.382812 C 4.347656 17.816406 5.019531 17.859375 5.410156 17.46875 C 5.019531 17.859375 5.058594 18.53125 5.496094 18.96875 C 5.933594 19.40625 6.605469 19.445312 6.996094 19.054688 C 6.605469 19.445312 6.644531 20.113281 7.082031 20.554688 C 7.519531 20.992188 8.191406 21.03125 8.582031 20.640625 L 9.511719 19.710938 L 11.339844 21.539062 C 11.925781 22.121094 12.914062 22.082031 13.542969 21.449219 C 13.851562 21.140625 14.015625 20.75 14.039062 20.359375 C 14.429688 20.335938 14.824219 20.171875 15.128906 19.863281 C 15.4375 19.554688 15.605469 19.164062 15.628906 18.773438 C 16.015625 18.75 16.40625 18.585938 16.71875 18.277344 C 17.023438 17.96875 17.191406 17.578125 17.210938 17.1875 C 17.601562 17.164062 17.996094 17 18.304688 16.691406 C 18.933594 16.058594 18.972656 15.070312 18.390625 14.488281 L 17.621094 13.71875 L 20.785156 10.550781 C 20.980469 10.359375 20.980469 10.042969 20.785156 9.847656 Z M 16.207031 5.261719 "/>
<path style=" stroke:none;fill-rule:nonzero;fill:rgb(100%,100%,100%);fill-opacity:1;" d="M 23.707031 6.378906 L 19.675781 2.34375 C 19.285156 1.953125 18.652344 1.953125 18.261719 2.34375 L 16.851562 3.753906 C 16.464844 4.140625 16.464844 4.773438 16.851562 5.160156 L 20.886719 9.199219 C 21.277344 9.585938 21.910156 9.585938 22.296875 9.199219 L 23.707031 7.789062 C 24.097656 7.398438 24.097656 6.765625 23.707031 6.378906 Z M 21.589844 8.433594 C 21.140625 8.433594 20.773438 8.066406 20.773438 7.613281 C 20.773438 7.160156 21.140625 6.796875 21.589844 6.796875 C 22.042969 6.796875 22.410156 7.160156 22.410156 7.613281 C 22.410156 8.066406 22.042969 8.433594 21.589844 8.433594 Z M 21.589844 8.433594 "/>
</g>
</svg>
