<?xml version="1.0" encoding="UTF-8"?>
<svg xmlns="http://www.w3.org/2000/svg" xmlns:xlink="http://www.w3.org/1999/xlink" width="24px" height="24px" viewBox="0 0 24 24" version="1.1">
<g id="surface1">
<path style="fill:none;stroke-width:2;stroke-linecap:butt;stroke-linejoin:round;stroke:rgb(0%,0%,0%);stroke-opacity:1;stroke-miterlimit:4;" d="M 5 1 L 43 1 C 45.210938 1 47 2.789063 47 5 L 47 43 C 47 45.210938 45.210937 47 43 47 L 5 47 C 2.789062 47 1 45.210938 1 43 L 1 5 C 1 2.789062 2.789062 1 5 1 Z M 5 1 " transform="matrix(-0.5,0.000000000000000061,-0.000000000000000061,-0.5,24,24)"/>
<path style="fill:none;stroke-width:2;stroke-linecap:round;stroke-linejoin:round;stroke:rgb(0%,0%,0%);stroke-opacity:1;stroke-miterlimit:4;" d="M 4 22 L 11 22 L 11 44 L 4 44 Z M 4 22 " transform="matrix(0.5,0,0,0.5,0,0)"/>
<path style="fill:none;stroke-width:2;stroke-linecap:round;stroke-linejoin:round;stroke:rgb(0%,0%,0%);stroke-opacity:1;stroke-miterlimit:4;" d="M 15 28 L 22 28 L 22 44 L 15 44 Z M 15 28 " transform="matrix(0.5,0,0,0.5,0,0)"/>
<path style="fill:none;stroke-width:2;stroke-linecap:round;stroke-linejoin:round;stroke:rgb(0%,0%,0%);stroke-opacity:1;stroke-miterlimit:4;" d="M 26 19 L 33 19 L 33 44 L 26 44 Z M 26 19 " transform="matrix(0.5,0,0,0.5,0,0)"/>
<path style="fill:none;stroke-width:2;stroke-linecap:round;stroke-linejoin:round;stroke:rgb(0%,0%,0%);stroke-opacity:1;stroke-miterlimit:4;" d="M 37 23 L 44 23 L 44 44 L 37 44 Z M 37 23 " transform="matrix(0.5,0,0,0.5,0,0)"/>
<path style="fill:none;stroke-width:2;stroke-linecap:round;stroke-linejoin:round;stroke:rgb(0%,0%,0%);stroke-opacity:1;stroke-miterlimit:4;" d="M 9 14 C 9 12.898438 8.101562 12 7 12 C 5.898438 12 5 12.898438 5 14 C 5 15.101562 5.898438 16 7 16 C 8.101562 16 9 15.101562 9 14 Z M 9 14 " transform="matrix(0.5,0,0,0.5,0,0)"/>
<path style="fill:none;stroke-width:2;stroke-linecap:round;stroke-linejoin:round;stroke:rgb(0%,0%,0%);stroke-opacity:1;stroke-miterlimit:4;" d="M 21 20 C 21 18.898438 20.101562 18 19 18 C 17.898438 18 17 18.898438 17 20 C 17 21.101562 17.898438 22 19 22 C 20.101562 22 21 21.101562 21 20 Z M 21 20 " transform="matrix(0.5,0,0,0.5,0,0)"/>
<path style="fill:none;stroke-width:2;stroke-linecap:round;stroke-linejoin:round;stroke:rgb(0%,0%,0%);stroke-opacity:1;stroke-miterlimit:4;" d="M 32 11 C 32 9.898438 31.101562 9 30 9 C 28.898438 9 28 9.898438 28 11 C 28 12.101562 28.898438 13 30 13 C 31.101562 13 32 12.101562 32 11 Z M 32 11 " transform="matrix(0.5,0,0,0.5,0,0)"/>
<path style="fill:none;stroke-width:2;stroke-linecap:round;stroke-linejoin:round;stroke:rgb(0%,0%,0%);stroke-opacity:1;stroke-miterlimit:4;" d="M 43 15 C 43 13.898438 42.101562 13 41 13 C 39.898438 13 39 13.898438 39 15 C 39 16.101562 39.898438 17 41 17 C 42.101562 17 43 16.101562 43 15 Z M 43 15 " transform="matrix(0.5,0,0,0.5,0,0)"/>
<path style="fill:none;stroke-width:2;stroke-linecap:round;stroke-linejoin:round;stroke:rgb(0%,0%,0%);stroke-opacity:1;stroke-miterlimit:4;" d="M 9 15 L 17 19 " transform="matrix(0.5,0,0,0.5,0,0)"/>
<path style="fill:none;stroke-width:2;stroke-linecap:round;stroke-linejoin:round;stroke:rgb(0%,0%,0%);stroke-opacity:1;stroke-miterlimit:4;" d="M 21 19 L 28 12 " transform="matrix(0.5,0,0,0.5,0,0)"/>
<path style="fill:none;stroke-width:2;stroke-linecap:round;stroke-linejoin:round;stroke:rgb(0%,0%,0%);stroke-opacity:1;stroke-miterlimit:4;" d="M 32 12 L 39 14 " transform="matrix(0.5,0,0,0.5,0,0)"/>
</g>
</svg>
