<?xml version="1.0" encoding="UTF-8"?>
<svg xmlns="http://www.w3.org/2000/svg" xmlns:xlink="http://www.w3.org/1999/xlink" width="24px" height="24px" viewBox="0 0 24 24" version="1.1">
<g id="surface1">
<path style=" stroke:none;fill-rule:nonzero;fill:rgb(0%,0%,0%);fill-opacity:1;" d="M 21.46875 9.082031 C 21.832031 8.097656 21.9375 7.15625 21.675781 6.316406 C 21.554688 6.324219 21.429688 6.332031 21.300781 6.332031 C 17.460938 6.332031 10.671875 1.503906 10.160156 0.75 C 8.042969 3.832031 3.605469 6.203125 1.597656 8.863281 C 0.789062 9.9375 0.382812 10.738281 1.191406 11.96875 L 9.644531 22.835938 C 10.027344 23.351562 10.773438 23.394531 11.304688 22.917969 C 11.304688 22.917969 18.242188 14.019531 23.25 11.265625 C 22.875 10.53125 22.246094 9.796875 21.46875 9.082031 M 9.496094 20.53125 L 9.460938 20.558594 L 9.429688 20.585938 C 9.300781 20.699219 9.1875 20.832031 9.089844 20.976562 L 1.761719 11.5625 C 1.234375 10.746094 1.382812 10.316406 2.160156 9.285156 C 3.042969 8.117188 4.449219 6.984375 5.941406 5.785156 C 7.488281 4.539062 9.085938 3.253906 10.257812 1.792969 C 12.191406 3.386719 17.605469 6.902344 21.105469 7.03125 C 21.527344 11.15625 12.976562 18.105469 9.496094 20.53125 "/>
<path style=" stroke:none;fill-rule:nonzero;fill:rgb(0%,0%,0%);fill-opacity:1;" d="M 7.496094 5.308594 L 16.949219 12.714844 L 17.285156 12.414062 L 7.742188 5.089844 Z M 7.496094 5.308594 "/>
<path style=" stroke:none;fill-rule:nonzero;fill:rgb(0%,0%,0%);fill-opacity:1;" d="M 10.578125 9.25 L 6.710938 6.015625 C 6.710938 6.015625 5.363281 6.875 3.730469 8.757812 L 7.164062 12.308594 L 10.578125 9.25 "/>
<path style=" stroke:none;fill-rule:nonzero;fill:rgb(0%,0%,0%);fill-opacity:1;" d="M 2.101562 10.523438 L 9.402344 19.46875 L 10.75 18.265625 L 2.96875 9.363281 C 2.96875 9.363281 2.289062 9.730469 2.101562 10.523438 "/>
<path style=" stroke:none;fill-rule:nonzero;fill:rgb(0%,0%,0%);fill-opacity:1;" d="M 10.28125 11.035156 L 14.523438 14.886719 L 15.871094 13.679688 L 11.457031 9.984375 Z M 10.28125 11.035156 "/>
<path style=" stroke:none;fill-rule:nonzero;fill:rgb(0%,0%,0%);fill-opacity:1;" d="M 7.9375 13.136719 L 11.828125 17.300781 L 13.175781 16.09375 L 9.109375 12.085938 Z M 7.9375 13.136719 "/>
<path style=" stroke:none;fill-rule:nonzero;fill:rgb(0%,0%,0%);fill-opacity:1;" d="M 10.445312 4.035156 L 9.875 5.640625 L 10.234375 5.898438 L 12.054688 4.269531 L 11.699219 4.046875 L 10.441406 5.167969 L 10.996094 3.605469 L 10.625 3.367188 L 8.890625 4.921875 L 9.203125 5.148438 Z M 10.445312 4.035156 "/>
<path style=" stroke:none;fill-rule:nonzero;fill:rgb(0%,0%,0%);fill-opacity:1;" d="M 12.003906 7.191406 L 12.351562 6.878906 L 11.292969 6.128906 L 11.773438 5.699219 L 12.714844 6.34375 L 13.046875 6.042969 L 12.097656 5.40625 L 12.492188 5.050781 L 13.546875 5.734375 L 13.886719 5.429688 L 12.433594 4.507812 L 10.585938 6.160156 Z M 12.003906 7.191406 "/>
<path style=" stroke:none;fill-rule:nonzero;fill:rgb(0%,0%,0%);fill-opacity:1;" d="M 13.132812 8.015625 L 14.574219 7.140625 L 15.042969 6.84375 L 14.730469 7.246094 L 13.804688 8.503906 L 14.253906 8.832031 L 17.023438 7.40625 L 16.496094 7.074219 L 14.976562 7.941406 L 14.589844 8.179688 L 14.851562 7.835938 L 15.75 6.601562 L 15.246094 6.285156 L 13.839844 7.15625 L 13.46875 7.390625 L 13.726562 7.0625 L 14.574219 5.859375 L 14.101562 5.5625 L 12.726562 7.71875 Z M 13.132812 8.015625 "/>
<path style=" stroke:none;fill-rule:nonzero;fill:rgb(0%,0%,0%);fill-opacity:1;" d="M 18.339844 8.140625 C 18 7.925781 17.679688 7.824219 17.382812 7.828125 C 17.085938 7.835938 16.84375 7.925781 16.65625 8.09375 C 16.445312 8.28125 16.375 8.476562 16.445312 8.679688 C 16.484375 8.800781 16.613281 8.976562 16.832031 9.207031 L 17.0625 9.445312 C 17.195312 9.585938 17.285156 9.703125 17.320312 9.792969 C 17.359375 9.882812 17.339844 9.960938 17.265625 10.023438 C 17.140625 10.136719 16.976562 10.160156 16.773438 10.089844 C 16.648438 10.042969 16.53125 9.976562 16.421875 9.898438 C 16.207031 9.746094 16.105469 9.597656 16.105469 9.457031 C 16.109375 9.378906 16.152344 9.292969 16.234375 9.191406 L 15.742188 8.847656 C 15.519531 9.046875 15.4375 9.269531 15.492188 9.515625 C 15.546875 9.761719 15.738281 10.007812 16.070312 10.246094 C 16.398438 10.488281 16.726562 10.617188 17.046875 10.632812 C 17.371094 10.644531 17.640625 10.558594 17.84375 10.375 C 18.046875 10.195312 18.121094 10 18.0625 9.792969 C 18.027344 9.660156 17.921875 9.507812 17.757812 9.332031 L 17.382812 8.9375 C 17.242188 8.789062 17.15625 8.683594 17.128906 8.625 C 17.082031 8.535156 17.097656 8.457031 17.175781 8.390625 C 17.261719 8.3125 17.367188 8.28125 17.5 8.296875 C 17.632812 8.308594 17.773438 8.363281 17.917969 8.457031 C 18.050781 8.542969 18.144531 8.628906 18.195312 8.722656 C 18.277344 8.859375 18.253906 8.992188 18.132812 9.117188 L 18.683594 9.484375 C 18.914062 9.261719 18.988281 9.027344 18.902344 8.78125 C 18.816406 8.535156 18.628906 8.320312 18.339844 8.140625 "/>
</g>
</svg>
