<?xml version="1.0" encoding="UTF-8"?>
<svg xmlns="http://www.w3.org/2000/svg" xmlns:xlink="http://www.w3.org/1999/xlink" width="64px" height="64px" viewBox="0 0 64 64" version="1.1">
<g id="surface1">
<path style=" stroke:none;fill-rule:nonzero;fill:rgb(0%,0%,0%);fill-opacity:1;" d="M 10.5 60 L 3.5 60 C 2.671875 60 2 59.328125 2 58.5 L 2 11.5 C 2 10.671875 2.671875 10 3.5 10 L 10.5 10 C 11.328125 10 12 10.671875 12 11.5 L 12 58.5 C 12 59.328125 11.328125 60 10.5 60 Z M 10.5 60 "/>
<path style=" stroke:none;fill-rule:nonzero;fill:rgb(0%,0%,0%);fill-opacity:1;" d="M 30 26 L 30 19.5 C 30 18.671875 29.328125 18 28.5 18 L 15.5 18 C 14.671875 18 14 18.671875 14 19.5 L 14 26 Z M 30 26 "/>
<path style=" stroke:none;fill-rule:nonzero;fill:rgb(0%,0%,0%);fill-opacity:1;" d="M 14 52 L 14 58.5 C 14 59.328125 14.671875 60 15.5 60 L 28.5 60 C 29.328125 60 30 59.328125 30 58.5 L 30 52 Z M 14 52 "/>
<path style=" stroke:none;fill-rule:nonzero;fill:rgb(0%,0%,0%);fill-opacity:1;" d="M 14 30 L 30 30 L 30 48 L 14 48 Z M 14 30 "/>
<path style=" stroke:none;fill-rule:nonzero;fill:rgb(0%,0%,0%);fill-opacity:1;" d="M 42.5 60 L 33.5 60 C 32.671875 60 32 59.328125 32 58.5 L 32 5.5 C 32 4.671875 32.671875 4 33.5 4 L 42.5 4 C 43.328125 4 44 4.671875 44 5.5 L 44 58.5 C 44 59.328125 43.328125 60 42.5 60 Z M 42.5 60 "/>
<path style=" stroke:none;fill-rule:nonzero;fill:rgb(0%,0%,0%);fill-opacity:1;" d="M 46.125 12.585938 L 49.875 58.566406 C 49.910156 58.972656 50.105469 59.351562 50.425781 59.605469 C 50.742188 59.863281 51.152344 59.980469 51.554688 59.929688 L 60.578125 58.804688 C 61.375 58.707031 61.953125 57.996094 61.886719 57.195312 L 58.125 11.402344 C 58.089844 11 57.898438 10.628906 57.585938 10.371094 C 57.277344 10.113281 56.875 9.992188 56.476562 10.035156 L 47.457031 10.972656 C 46.648438 11.058594 46.058594 11.777344 46.125 12.585938 Z M 46.125 12.585938 "/>
</g>
</svg>
