<?xml version="1.0" encoding="UTF-8"?>
<svg xmlns="http://www.w3.org/2000/svg" xmlns:xlink="http://www.w3.org/1999/xlink" width="24px" height="24px" viewBox="0 0 24 24" version="1.1">
<g id="surface1">
<path style=" stroke:none;fill-rule:nonzero;fill:rgb(0%,0%,0%);fill-opacity:1;" d="M 22.820312 21.679688 L 22.820312 20.136719 L 22.421875 20.136719 L 22.050781 10.898438 L 22.351562 9.699219 L 22.820312 9.699219 L 22.820312 7.378906 L 23.59375 7.378906 L 23.59375 5.199219 L 12 0 L 0.40625 5.199219 L 0.40625 7.378906 L 1.179688 7.378906 L 1.179688 9.699219 L 1.648438 9.699219 L 1.949219 10.898438 L 1.578125 20.136719 L 1.179688 20.136719 L 1.179688 21.679688 L 0.0195312 21.679688 L 0.0195312 24 L 23.980469 24 L 23.980469 21.679688 Z M 1.179688 6.609375 L 1.179688 5.699219 L 12 0.847656 L 22.820312 5.699219 L 22.820312 6.609375 Z M 1.949219 20.90625 L 22.050781 20.90625 L 22.050781 21.679688 L 1.949219 21.679688 C 1.949219 21.679688 1.949219 20.90625 1.949219 20.90625 Z M 2.707031 11.246094 L 3.109375 11.246094 L 3.109375 20.136719 L 2.351562 20.136719 Z M 2.445312 9.699219 L 3.386719 9.699219 L 3.195312 10.472656 L 2.640625 10.472656 Z M 3.882812 20.136719 L 3.882812 10.90625 L 4.183594 9.699219 L 4.742188 9.699219 L 5.042969 10.898438 L 4.671875 20.136719 Z M 5.800781 11.246094 L 6.203125 11.246094 L 6.203125 20.136719 L 5.445312 20.136719 Z M 5.539062 9.699219 L 6.480469 9.699219 L 6.289062 10.472656 L 5.730469 10.472656 Z M 6.976562 10.90625 L 7.277344 9.699219 L 7.832031 9.699219 L 8.132812 10.898438 L 7.761719 20.136719 L 6.976562 20.136719 Z M 8.894531 11.246094 L 9.292969 11.246094 L 9.292969 20.136719 L 8.539062 20.136719 Z M 8.628906 9.699219 L 9.574219 9.699219 L 9.378906 10.472656 L 8.824219 10.472656 Z M 10.066406 10.90625 L 10.371094 9.699219 L 10.539062 9.699219 L 10.839844 10.90625 L 10.839844 20.136719 L 10.066406 20.136719 Z M 11.527344 10.472656 L 11.335938 9.699219 L 12.664062 9.699219 L 12.472656 10.472656 Z M 12.386719 11.246094 L 12.386719 20.136719 L 11.613281 20.136719 L 11.613281 11.246094 Z M 13.160156 10.90625 L 13.460938 9.699219 L 13.628906 9.699219 L 13.933594 10.90625 L 13.933594 20.136719 L 13.160156 20.136719 Z M 15.175781 10.472656 L 14.621094 10.472656 L 14.425781 9.699219 L 15.371094 9.699219 Z M 15.460938 20.136719 L 14.707031 20.136719 L 14.707031 11.246094 L 15.105469 11.246094 Z M 15.867188 10.898438 L 16.167969 9.699219 L 16.722656 9.699219 L 17.023438 10.90625 L 17.023438 20.136719 L 16.238281 20.136719 Z M 18.269531 10.472656 L 17.710938 10.472656 L 17.519531 9.699219 L 18.460938 9.699219 Z M 18.554688 20.136719 L 17.796875 20.136719 L 17.796875 11.246094 L 18.199219 11.246094 Z M 18.957031 10.898438 L 19.257812 9.699219 L 19.816406 9.699219 L 20.117188 10.90625 L 20.117188 20.136719 L 19.328125 20.136719 Z M 21.359375 10.472656 L 20.804688 10.472656 L 20.613281 9.699219 L 21.554688 9.699219 Z M 21.644531 20.136719 L 20.890625 20.136719 L 20.890625 11.246094 L 21.289062 11.246094 Z M 1.949219 8.925781 L 1.949219 7.378906 L 22.050781 7.378906 L 22.050781 8.925781 Z M 0.792969 23.226562 L 0.792969 22.453125 L 23.207031 22.453125 L 23.207031 23.226562 Z M 0.792969 23.226562 "/>
<path style=" stroke:none;fill-rule:nonzero;fill:rgb(0%,0%,0%);fill-opacity:1;" d="M 3.222656 5.835938 L 20.777344 5.835938 L 12 1.933594 Z M 6.863281 5.0625 L 12 2.777344 L 17.136719 5.0625 Z M 6.863281 5.0625 "/>
<path style=" stroke:none;fill-rule:nonzero;fill:rgb(0%,0%,0%);fill-opacity:1;" d="M 6.976562 7.765625 L 7.75 7.765625 L 7.75 8.539062 L 6.976562 8.539062 Z M 6.976562 7.765625 "/>
<path style=" stroke:none;fill-rule:nonzero;fill:rgb(0%,0%,0%);fill-opacity:1;" d="M 8.523438 7.765625 L 9.292969 7.765625 L 9.292969 8.539062 L 8.523438 8.539062 Z M 8.523438 7.765625 "/>
<path style=" stroke:none;fill-rule:nonzero;fill:rgb(0%,0%,0%);fill-opacity:1;" d="M 10.066406 7.765625 L 10.839844 7.765625 L 10.839844 8.539062 L 10.066406 8.539062 Z M 10.066406 7.765625 "/>
<path style=" stroke:none;fill-rule:nonzero;fill:rgb(0%,0%,0%);fill-opacity:1;" d="M 11.613281 7.765625 L 12.386719 7.765625 L 12.386719 8.539062 L 11.613281 8.539062 Z M 11.613281 7.765625 "/>
<path style=" stroke:none;fill-rule:nonzero;fill:rgb(0%,0%,0%);fill-opacity:1;" d="M 13.160156 7.765625 L 13.933594 7.765625 L 13.933594 8.539062 L 13.160156 8.539062 Z M 13.160156 7.765625 "/>
<path style=" stroke:none;fill-rule:nonzero;fill:rgb(0%,0%,0%);fill-opacity:1;" d="M 14.707031 7.765625 L 15.476562 7.765625 L 15.476562 8.539062 L 14.707031 8.539062 Z M 14.707031 7.765625 "/>
<path style=" stroke:none;fill-rule:nonzero;fill:rgb(0%,0%,0%);fill-opacity:1;" d="M 16.25 7.765625 L 17.023438 7.765625 L 17.023438 8.539062 L 16.25 8.539062 Z M 16.25 7.765625 "/>
<path style=" stroke:none;fill-rule:nonzero;fill:rgb(0%,0%,0%);fill-opacity:1;" d="M 10.066406 3.902344 L 10.839844 3.902344 L 10.839844 4.675781 L 10.066406 4.675781 Z M 10.066406 3.902344 "/>
<path style=" stroke:none;fill-rule:nonzero;fill:rgb(0%,0%,0%);fill-opacity:1;" d="M 11.613281 3.902344 L 12.386719 3.902344 L 12.386719 4.675781 L 11.613281 4.675781 Z M 11.613281 3.902344 "/>
<path style=" stroke:none;fill-rule:nonzero;fill:rgb(0%,0%,0%);fill-opacity:1;" d="M 13.160156 3.902344 L 13.933594 3.902344 L 13.933594 4.675781 L 13.160156 4.675781 Z M 13.160156 3.902344 "/>
</g>
</svg>
