<?xml version="1.0" encoding="UTF-8"?>
<svg xmlns="http://www.w3.org/2000/svg" xmlns:xlink="http://www.w3.org/1999/xlink" width="24px" height="24px" viewBox="0 0 24 24" version="1.1">
<g id="surface1">
<path style=" stroke:none;fill-rule:nonzero;fill:rgb(100%,100%,100%);fill-opacity:1;" d="M 1.746094 0 L 1.746094 22.496094 C 1.746094 23.035156 2.03125 23.53125 2.5 23.800781 C 2.964844 24.066406 3.539062 24.066406 4.003906 23.796875 L 10.492188 20.039062 C 11.425781 19.5 12.574219 19.5 13.507812 20.039062 L 19.996094 23.796875 C 20.460938 24.066406 21.035156 24.066406 21.5 23.800781 C 21.96875 23.53125 22.253906 23.035156 22.253906 22.496094 L 22.253906 0 Z M 16.867188 9.769531 L 14.515625 11.703125 C 14.425781 11.777344 14.386719 11.898438 14.417969 12.011719 L 15.179688 14.957031 C 15.210938 15.078125 15.167969 15.203125 15.066406 15.277344 C 14.964844 15.351562 14.832031 15.355469 14.726562 15.289062 L 12.160156 13.648438 C 12.0625 13.585938 11.9375 13.585938 11.839844 13.648438 L 9.273438 15.289062 C 9.167969 15.355469 9.035156 15.351562 8.933594 15.277344 C 8.832031 15.203125 8.789062 15.078125 8.820312 14.957031 L 9.582031 12.011719 C 9.613281 11.898438 9.574219 11.777344 9.484375 11.703125 L 7.132812 9.769531 C 7.039062 9.691406 7 9.5625 7.039062 9.445312 C 7.078125 9.328125 7.183594 9.246094 7.304688 9.238281 L 10.34375 9.054688 C 10.460938 9.046875 10.5625 8.972656 10.605469 8.863281 L 11.71875 6.03125 C 11.765625 5.914062 11.875 5.839844 12 5.839844 C 12.125 5.839844 12.234375 5.917969 12.28125 6.03125 L 13.394531 8.863281 C 13.433594 8.972656 13.539062 9.046875 13.65625 9.054688 L 16.691406 9.238281 C 16.816406 9.246094 16.921875 9.328125 16.960938 9.445312 C 17 9.5625 16.960938 9.691406 16.867188 9.769531 Z M 16.867188 9.769531 "/>
</g>
</svg>
