<?xml version="1.0" encoding="UTF-8"?>
<svg xmlns="http://www.w3.org/2000/svg" xmlns:xlink="http://www.w3.org/1999/xlink" width="24px" height="24px" viewBox="0 0 24 24" version="1.1">
<g id="surface1">
<path style=" stroke:none;fill-rule:nonzero;fill:rgb(0%,0%,0%);fill-opacity:1;" d="M 18.558594 7.648438 C 18.5 7.453125 18.414062 7.28125 18.300781 7.132812 C 18.1875 6.984375 18.046875 6.867188 17.882812 6.78125 C 17.714844 6.695312 17.527344 6.652344 17.316406 6.652344 C 16.933594 6.652344 16.648438 6.761719 16.457031 6.988281 C 16.269531 7.210938 16.15625 7.527344 16.117188 7.9375 L 16.058594 8.632812 C 16.035156 8.84375 15.980469 8.992188 15.894531 9.082031 C 15.808594 9.167969 15.691406 9.214844 15.542969 9.214844 C 15.335938 9.214844 15.1875 9.125 15.089844 8.945312 C 14.992188 8.765625 14.941406 8.539062 14.941406 8.261719 C 14.941406 8.046875 14.972656 7.828125 15.035156 7.609375 C 15.09375 7.386719 15.34375 7.097656 15.34375 7.097656 C 15.375 7.046875 15.367188 6.984375 15.328125 6.941406 L 14.9375 6.554688 C 14.910156 6.527344 14.871094 6.511719 14.832031 6.515625 C 14.792969 6.523438 14.757812 6.546875 14.738281 6.578125 C 14.738281 6.578125 14.40625 6.976562 14.324219 7.277344 C 14.269531 7.476562 14.234375 7.6875 14.214844 7.90625 L 13.582031 7.90625 L 13.582031 8.679688 L 14.226562 8.679688 C 14.242188 8.785156 14.257812 8.882812 14.285156 8.984375 C 14.339844 9.203125 14.429688 9.394531 14.546875 9.554688 C 14.664062 9.714844 14.804688 9.839844 14.976562 9.933594 C 15.148438 10.023438 15.347656 10.070312 15.578125 10.070312 C 15.960938 10.070312 16.25 9.953125 16.453125 9.722656 C 16.652344 9.492188 16.769531 9.152344 16.8125 8.699219 L 16.863281 8.09375 C 16.882812 7.875 16.9375 7.71875 17.015625 7.628906 C 17.097656 7.539062 17.210938 7.492188 17.359375 7.492188 C 17.523438 7.492188 17.65625 7.554688 17.761719 7.683594 C 17.863281 7.8125 17.914062 8.011719 17.914062 8.28125 C 17.914062 8.484375 17.890625 8.679688 17.84375 8.867188 C 17.792969 9.054688 17.640625 9.265625 17.640625 9.265625 C 17.613281 9.316406 17.625 9.375 17.664062 9.414062 L 18.035156 9.777344 C 18.0625 9.808594 18.101562 9.820312 18.140625 9.8125 C 18.183594 9.808594 18.214844 9.785156 18.234375 9.746094 C 18.234375 9.746094 18.457031 9.464844 18.53125 9.191406 C 18.574219 9.03125 18.605469 8.859375 18.621094 8.679688 L 19.167969 8.679688 L 19.167969 7.90625 L 18.609375 7.90625 C 18.597656 7.820312 18.582031 7.734375 18.558594 7.648438 Z M 18.558594 7.648438 "/>
<path style=" stroke:none;fill-rule:nonzero;fill:rgb(0%,0%,0%);fill-opacity:1;" d="M 21.671875 11.523438 C 21.5625 11.523438 21.324219 11.523438 21 11.523438 C 21.027344 10.367188 21.203125 8.800781 21.5 7.195312 C 21.820312 5.4375 22.285156 3.625 22.816406 2.25 L 22.8125 2.25 C 22.855469 2.144531 22.886719 2.03125 22.886719 1.910156 C 22.886719 1.726562 22.828125 1.558594 22.75 1.4375 C 22.605469 1.203125 22.433594 1.089844 22.261719 0.980469 C 21.953125 0.804688 21.597656 0.679688 21.167969 0.5625 C 20.527344 0.390625 19.746094 0.253906 18.902344 0.152344 C 18.0625 0.0546875 17.167969 0 16.316406 0 C 14.9375 0 13.433594 0.148438 12.242188 0.382812 C 11.640625 0.503906 11.125 0.640625 10.707031 0.816406 C 10.496094 0.90625 10.3125 1.003906 10.136719 1.148438 C 10.046875 1.222656 9.960938 1.3125 9.882812 1.4375 C 9.808594 1.558594 9.746094 1.726562 9.75 1.910156 C 9.746094 2.03125 9.777344 2.148438 9.824219 2.253906 L 9.820312 2.253906 C 10.34375 3.582031 10.808594 5.394531 11.128906 7.164062 C 11.261719 7.867188 11.367188 8.566406 11.449219 9.226562 C 9.585938 9.746094 8.632812 12.699219 6.699219 12.699219 L 6.699219 21.171875 C 8.550781 21.171875 13.460938 23.230469 14.945312 23.527344 C 16.628906 23.867188 18.828125 24.609375 19.996094 23.023438 C 20.714844 22.046875 21.84375 18.253906 22.6875 15.5625 C 24.835938 13.5 23.355469 11.523438 21.671875 11.523438 Z M 20.164062 6.949219 C 19.859375 8.628906 19.671875 10.253906 19.640625 11.523438 C 17.375 11.523438 13.957031 11.523438 12.992188 11.523438 C 12.960938 10.246094 12.773438 8.605469 12.464844 6.917969 C 12.265625 5.835938 12.019531 4.742188 11.730469 3.726562 L 11.832031 3.863281 C 13.332031 3.28125 13.597656 2.308594 13.601562 1.539062 C 14.472656 1.425781 15.433594 1.355469 16.316406 1.355469 C 17.21875 1.355469 18.199219 1.425781 19.082031 1.542969 C 19.101562 2.300781 19.402344 3.226562 20.847656 3.785156 L 20.914062 3.695312 C 20.621094 4.738281 20.367188 5.851562 20.164062 6.949219 Z M 20.164062 6.949219 "/>
<path style=" stroke:none;fill-rule:nonzero;fill:rgb(0%,0%,0%);fill-opacity:1;" d="M 0.242188 14.347656 L 0.242188 21.710938 C 0.242188 22.625 0.980469 23.359375 1.890625 23.359375 L 3.855469 23.359375 C 4.464844 23.359375 4.957031 22.867188 4.957031 22.261719 L 4.957031 12.699219 L 1.890625 12.699219 C 0.980469 12.699219 0.242188 13.4375 0.242188 14.347656 Z M 0.242188 14.347656 "/>
</g>
</svg>
