<?xml version="1.0" encoding="UTF-8"?>
<svg xmlns="http://www.w3.org/2000/svg" xmlns:xlink="http://www.w3.org/1999/xlink" width="24px" height="24px" viewBox="0 0 24 24" version="1.1">
<g id="surface1">
<path style=" stroke:none;fill-rule:nonzero;fill:rgb(0%,0%,0%);fill-opacity:1;" d="M 24 12 C 24 5.371094 18.628906 0 12 0 C 5.371094 0 0 5.371094 0 12 C 0 18.628906 5.371094 24 12 24 C 18.628906 24 24 18.628906 24 12 Z M 24 12 "/>
<path style=" stroke:none;fill-rule:nonzero;fill:rgb(100%,100%,100%);fill-opacity:1;" d="M 8.738281 6.074219 L 6.933594 6.074219 L 15.25 17.96875 L 17.054688 17.96875 Z M 5.332031 5.1875 L 9.304688 5.1875 L 12.746094 10.195312 L 17.054688 5.1875 L 18.230469 5.1875 L 13.269531 10.957031 L 18.667969 18.8125 L 14.695312 18.8125 L 11.0625 13.523438 L 6.507812 18.8125 L 5.332031 18.8125 L 10.539062 12.761719 Z M 5.332031 5.1875 "/>
</g>
</svg>
