<?xml version="1.0" encoding="UTF-8"?>
<svg xmlns="http://www.w3.org/2000/svg" xmlns:xlink="http://www.w3.org/1999/xlink" width="24px" height="24px" viewBox="0 0 24 24" version="1.1">
<g id="surface1">
<path style=" stroke:none;fill-rule:nonzero;fill:rgb(13.725491%,12.156863%,12.54902%);fill-opacity:1;" d="M 23.960938 9.105469 C 23.871094 8.835938 23.640625 8.644531 23.363281 8.601562 L 15.984375 7.472656 L 12.679688 0.429688 C 12.554688 0.167969 12.289062 0 12 0 C 11.707031 0 11.445312 0.167969 11.320312 0.429688 L 8.015625 7.472656 L 0.636719 8.601562 C 0.359375 8.644531 0.128906 8.835938 0.0390625 9.105469 C -0.0507812 9.371094 0.015625 9.664062 0.214844 9.867188 L 5.574219 15.363281 L 4.304688 23.125 C 4.261719 23.410156 4.378906 23.695312 4.613281 23.859375 C 4.742188 23.953125 4.894531 23.996094 5.046875 23.996094 C 5.171875 23.996094 5.296875 23.964844 5.410156 23.902344 L 12 20.257812 L 18.589844 23.902344 C 18.703125 23.964844 18.828125 23.996094 18.953125 23.996094 C 19.101562 23.996094 19.253906 23.953125 19.382812 23.859375 C 19.617188 23.695312 19.738281 23.410156 19.691406 23.125 L 18.425781 15.363281 L 23.785156 9.867188 C 23.980469 9.664062 24.050781 9.371094 23.960938 9.105469 Z M 23.960938 9.105469 "/>
</g>
</svg>
