<?xml version="1.0" encoding="UTF-8"?>
<svg xmlns="http://www.w3.org/2000/svg" xmlns:xlink="http://www.w3.org/1999/xlink" width="24px" height="24px" viewBox="0 0 24 24" version="1.1">
<g id="surface1">
<path style=" stroke:none;fill-rule:nonzero;fill:rgb(0%,0%,0%);fill-opacity:1;" d="M 22.085938 10.832031 L 12.730469 1.582031 L 12.734375 1.585938 C 11.679688 0.527344 10.289062 -0.00390625 8.90625 0 C 7.523438 -0.00390625 6.136719 0.527344 5.082031 1.585938 C 4.023438 2.640625 3.492188 4.027344 3.496094 5.410156 C 3.492188 6.792969 4.023438 8.183594 5.082031 9.238281 L 7.289062 11.421875 C 7.222656 11.421875 7.15625 11.421875 7.089844 11.421875 C 5.277344 11.421875 3.632812 11.875 2.402344 12.644531 C 1.789062 13.03125 1.273438 13.5 0.910156 14.042969 C 0.542969 14.582031 0.328125 15.207031 0.328125 15.863281 L 0.328125 19.554688 C 0.328125 20.210938 0.542969 20.832031 0.910156 21.375 C 1.460938 22.1875 2.332031 22.835938 3.398438 23.289062 C 4.464844 23.742188 5.730469 23.996094 7.089844 24 C 8.898438 23.996094 10.542969 23.542969 11.773438 22.769531 C 12.390625 22.386719 12.902344 21.917969 13.269531 21.375 C 13.632812 20.832031 13.847656 20.210938 13.847656 19.554688 L 13.847656 17.90625 L 14.4375 18.488281 L 14.433594 18.484375 C 15.488281 19.539062 16.878906 20.070312 18.261719 20.070312 C 19.644531 20.070312 21.03125 19.539062 22.085938 18.488281 C 23.144531 17.429688 23.671875 16.042969 23.671875 14.660156 C 23.671875 13.277344 23.144531 11.886719 22.085938 10.832031 Z M 6.632812 6.96875 C 5.734375 6.070312 5.734375 4.597656 6.644531 3.6875 C 7.082031 3.25 7.667969 3.007812 8.289062 3.007812 Z M 1.402344 15.863281 C 1.402344 15.441406 1.535156 15.039062 1.800781 14.640625 C 2.03125 14.296875 2.371094 13.964844 2.800781 13.671875 L 11.015625 18.480469 C 10.832031 18.582031 10.632812 18.679688 10.425781 18.769531 C 9.480469 19.167969 8.332031 19.40625 7.089844 19.40625 C 5.429688 19.40625 3.9375 18.984375 2.882812 18.320312 C 2.351562 17.984375 1.9375 17.597656 1.65625 17.179688 C 1.554688 17.027344 1.46875 16.867188 1.402344 16.707031 Z M 12.773438 19.554688 C 12.773438 19.976562 12.640625 20.382812 12.378906 20.777344 C 11.980469 21.363281 11.28125 21.910156 10.359375 22.300781 C 9.4375 22.691406 8.308594 22.925781 7.089844 22.925781 C 5.460938 22.925781 3.992188 22.507812 2.972656 21.863281 C 2.460938 21.542969 2.0625 21.167969 1.800781 20.777344 C 1.535156 20.382812 1.402344 19.976562 1.402344 19.554688 L 1.402344 18.03125 C 1.921875 18.605469 2.628906 19.085938 3.464844 19.441406 C 4.507812 19.882812 5.753906 20.136719 7.089844 20.136719 C 8.871094 20.136719 10.484375 19.6875 11.683594 18.933594 C 12.105469 18.671875 12.472656 18.371094 12.773438 18.03125 Z M 12.773438 16.707031 C 12.761719 16.742188 12.75 16.769531 12.730469 16.800781 C 12.671875 16.929688 12.601562 17.054688 12.519531 17.179688 C 12.339844 17.449219 12.09375 17.707031 11.808594 17.945312 L 3.671875 13.183594 C 3.722656 13.164062 3.769531 13.136719 3.816406 13.117188 C 4.738281 12.726562 5.867188 12.492188 7.089844 12.492188 C 7.570312 12.492188 8.035156 12.53125 8.480469 12.597656 C 9.542969 12.761719 10.484375 13.105469 11.203125 13.554688 C 11.289062 13.609375 11.375 13.667969 11.453125 13.726562 C 11.84375 14 12.148438 14.308594 12.367188 14.628906 C 12.371094 14.632812 12.375 14.636719 12.378906 14.640625 C 12.640625 15.039062 12.773438 15.441406 12.773438 15.863281 Z M 21.175781 17.574219 C 20.371094 18.378906 19.320312 18.78125 18.261719 18.78125 C 17.203125 18.78125 16.152344 18.382812 15.34375 17.574219 L 15.34375 17.570312 L 13.847656 16.09375 L 13.847656 15.863281 C 13.847656 15.207031 13.632812 14.582031 13.269531 14.042969 C 12.808594 13.367188 12.128906 12.804688 11.296875 12.375 C 11.402344 12.105469 11.53125 11.816406 11.695312 11.515625 C 12.148438 10.660156 12.832031 9.730469 13.738281 9.019531 C 14.636719 8.308594 15.742188 7.800781 17.109375 7.722656 L 21.175781 11.742188 C 21.980469 12.550781 22.382812 13.601562 22.382812 14.660156 C 22.382812 15.714844 21.980469 16.769531 21.175781 17.574219 Z M 21.175781 17.574219 "/>
</g>
</svg>
