<?xml version="1.0" encoding="UTF-8"?>
<svg xmlns="http://www.w3.org/2000/svg" xmlns:xlink="http://www.w3.org/1999/xlink" width="24px" height="24px" viewBox="0 0 24 24" version="1.1">
<g id="surface1">
<path style=" stroke:none;fill-rule:nonzero;fill:rgb(100%,100%,100%);fill-opacity:1;" d="M 18.789062 5.671875 C 18.789062 4.972656 18.308594 4.367188 17.628906 4.210938 L 17.25 2.828125 C 17.109375 2.371094 16.679688 2.0625 16.199219 2.070312 L 7.789062 2.070312 C 7.3125 2.058594 6.886719 2.371094 6.75 2.828125 L 6.371094 4.210938 C 5.664062 4.386719 5.183594 5.035156 5.210938 5.761719 C 5.207031 6.417969 5.640625 6.996094 6.269531 7.179688 L 6.371094 9.949219 C 6.210938 9.976562 6.0625 10.054688 5.949219 10.171875 C 5.808594 10.320312 5.730469 10.523438 5.738281 10.730469 L 5.980469 16.488281 C 5.996094 16.855469 6.269531 17.15625 6.628906 17.210938 L 6.710938 19.429688 C 6.753906 20.828125 7.902344 21.9375 9.300781 21.929688 L 14.691406 21.929688 C 16.089844 21.941406 17.246094 20.832031 17.289062 19.429688 L 17.371094 17.210938 C 17.726562 17.152344 17.996094 16.851562 18.011719 16.488281 L 18.25 10.730469 C 18.257812 10.523438 18.183594 10.320312 18.039062 10.171875 C 17.929688 10.054688 17.789062 9.976562 17.628906 9.949219 L 17.730469 7.179688 C 18.378906 6.96875 18.8125 6.351562 18.789062 5.671875 Z M 7.789062 3.070312 L 16.28125 3.101562 L 16.578125 4.171875 L 7.441406 4.171875 Z M 16.289062 19.398438 C 16.265625 20.261719 15.550781 20.941406 14.691406 20.929688 L 9.300781 20.929688 C 8.441406 20.9375 7.734375 20.257812 7.710938 19.398438 L 7.628906 17.21875 L 16.371094 17.21875 Z M 9.898438 13.578125 C 9.898438 12.421875 10.839844 11.480469 12 11.480469 C 13.160156 11.480469 14.101562 12.421875 14.101562 13.578125 C 14.101562 14.738281 13.160156 15.679688 12 15.679688 C 10.839844 15.679688 9.898438 14.738281 9.898438 13.578125 Z M 16.628906 9.929688 L 7.371094 9.929688 L 7.269531 7.261719 L 16.71875 7.261719 Z M 17.289062 6.261719 L 6.710938 6.261719 C 6.5625 6.253906 6.425781 6.1875 6.328125 6.074219 C 6.234375 5.964844 6.191406 5.816406 6.210938 5.671875 C 6.210938 5.394531 6.433594 5.171875 6.710938 5.171875 L 17.289062 5.171875 C 17.4375 5.175781 17.574219 5.246094 17.667969 5.355469 C 17.761719 5.46875 17.808594 5.613281 17.789062 5.761719 C 17.789062 6.035156 17.566406 6.261719 17.289062 6.261719 Z M 17.289062 6.261719 "/>
</g>
</svg>
