<?xml version="1.0" encoding="UTF-8"?>
<svg xmlns="http://www.w3.org/2000/svg" xmlns:xlink="http://www.w3.org/1999/xlink" width="24px" height="24px" viewBox="0 0 24 24" version="1.1">
<g id="surface1">
<path style=" stroke:none;fill-rule:evenodd;fill:rgb(100%,100%,100%);fill-opacity:1;" d="M 12 6.75 C 10.757812 6.75 9.75 7.757812 9.75 9 C 9.75 10.242188 10.757812 11.25 12 11.25 C 13.242188 11.25 14.25 10.242188 14.25 9 C 14.25 7.757812 13.242188 6.75 12 6.75 Z M 12 12.75 C 9.929688 12.75 8.25 11.070312 8.25 9 C 8.25 6.929688 9.929688 5.25 12 5.25 C 14.070312 5.25 15.75 6.929688 15.75 9 C 15.75 11.070312 14.070312 12.75 12 12.75 Z M 12 0 C 7.03125 0 3 4.03125 3 9 C 3 12.761719 10.503906 24.007812 12 24 C 13.472656 24.007812 21 12.710938 21 9 C 21 4.03125 16.96875 0 12 0 Z M 12 0 "/>
</g>
</svg>
