<?xml version="1.0" encoding="UTF-8"?>
<svg xmlns="http://www.w3.org/2000/svg" xmlns:xlink="http://www.w3.org/1999/xlink" width="128px" height="128px" viewBox="0 0 128 128" version="1.1">
<g id="surface1">
<path style=" stroke:none;fill-rule:nonzero;fill:rgb(100%,100%,100%);fill-opacity:1;" d="M 61.589844 36.8125 C 61.179688 28.871094 60.050781 20.984375 59.507812 13.050781 C 59.4375 12 58.429688 10.945312 57.289062 11.359375 C 54.515625 12.371094 31.5625 20.855469 32.015625 25.738281 C 31.390625 25.9375 30.832031 26.472656 30.769531 27.210938 C 30.261719 33.296875 31.597656 39.804688 32.007812 45.890625 C 32.472656 52.757812 32.445312 59.550781 31.179688 66.332031 C 30.992188 67.324219 31.621094 68.488281 32.769531 68.421875 C 32.839844 68.417969 32.910156 68.414062 32.976562 68.410156 C 33.128906 68.402344 33.277344 68.367188 33.421875 68.316406 C 33.804688 68.757812 34.476562 69.003906 35.082031 68.710938 C 40.082031 66.257812 45.496094 64.652344 50.644531 62.539062 C 52.84375 61.636719 57.054688 60.25 58.617188 57.8125 C 59.222656 57.734375 59.824219 57.378906 60.082031 56.773438 C 62.585938 50.816406 61.917969 43.101562 61.589844 36.8125 Z M 47.714844 24.707031 C 49.082031 23.996094 51.851562 22.734375 53.6875 21.101562 C 53.996094 25.300781 54.269531 29.503906 54.324219 33.71875 C 54.328125 33.929688 54.324219 34.140625 54.324219 34.351562 C 53.390625 34.660156 52.566406 35.375 51.667969 35.855469 C 49.4375 37.054688 47.046875 37.984375 44.722656 38.988281 C 42.882812 39.78125 38.902344 41.101562 36.542969 43.003906 C 36.472656 41.539062 36.382812 40.070312 36.28125 38.609375 C 36.117188 36.257812 36.25 33.464844 35.976562 30.890625 C 39.667969 28.410156 43.765625 26.757812 47.714844 24.707031 Z M 57.828125 35.851562 C 57.828125 35.136719 57.835938 34.429688 57.835938 33.71875 C 57.835938 33.601562 57.832031 33.480469 57.828125 33.363281 C 57.878906 33.964844 57.933594 34.570312 57.980469 35.171875 C 57.996094 35.410156 58.003906 35.640625 58.019531 35.875 C 57.957031 35.863281 57.890625 35.855469 57.828125 35.851562 Z M 57.828125 35.851562 "/>
<path style=" stroke:none;fill-rule:nonzero;fill:rgb(100%,100%,100%);fill-opacity:1;" d="M 45.261719 0 C 40.992188 0.1875 36.792969 3.53125 33.292969 5.71875 C 28.285156 8.851562 23.410156 11.761719 17.914062 13.941406 C 17.574219 13.984375 17.300781 14.144531 17.101562 14.375 C 16.597656 14.550781 16.191406 14.925781 16.109375 15.507812 C 15.488281 20.003906 12.21875 48.117188 14.328125 57.804688 C 12.195312 61.097656 15.417969 65.179688 18.398438 67.058594 C 20.109375 68.140625 22.304688 68.980469 24.359375 68.824219 C 25.019531 68.773438 25.703125 68.546875 26.246094 68.183594 C 26.386719 68.355469 26.535156 68.523438 26.699219 68.675781 C 27.1875 69.140625 28.085938 68.964844 28.253906 68.265625 C 29.136719 64.558594 28.15625 60.066406 28.417969 56.164062 C 28.683594 52.222656 28.71875 48.265625 28.941406 44.320312 C 29.171875 40.277344 29.441406 36.238281 29.492188 32.1875 C 29.515625 30.246094 29.867188 27.339844 28.234375 25.917969 C 28.207031 25.894531 28.179688 25.882812 28.152344 25.863281 C 28.328125 25.070312 27.941406 24.15625 26.941406 24.222656 C 22.570312 24.523438 20.492188 20.640625 19.683594 16.816406 C 24.261719 15.558594 28.433594 12.875 32.417969 10.394531 C 36.753906 7.695312 41.890625 5.554688 45.964844 2.589844 C 46.992188 1.84375 46.765625 -0.0625 45.261719 0 Z M 45.261719 0 "/>
<path style=" stroke:none;fill-rule:nonzero;fill:rgb(100%,100%,100%);fill-opacity:1;" d="M 53.488281 9 C 52.507812 8.683594 51.527344 9.234375 50.507812 9.019531 C 49.691406 8.851562 49 8.328125 48.425781 7.75 C 47.882812 7.199219 47.496094 6.515625 47.117188 5.847656 C 46.84375 5.367188 46.804688 4.703125 46.398438 4.335938 C 46.410156 4.109375 46.171875 3.886719 45.9375 4.039062 C 45.839844 4.105469 45.808594 4.09375 45.808594 4.09375 C 45.375 4.042969 45.050781 4.421875 44.914062 4.773438 C 44.195312 6.628906 45.796875 9.03125 47.046875 10.234375 C 48.675781 11.796875 52.675781 13.042969 54.191406 10.730469 C 54.625 10.070312 54.175781 9.222656 53.488281 9 Z M 53.488281 9 "/>
<path style=" stroke:none;fill-rule:nonzero;fill:rgb(100%,100%,100%);fill-opacity:1;" d="M 78.4375 88.046875 C 78.449219 87.855469 78.410156 87.652344 78.277344 87.453125 C 75.6875 83.550781 71.160156 80.660156 67.515625 77.78125 C 63.902344 74.921875 60.308594 71.984375 56.542969 69.324219 C 56.558594 69.1875 56.554688 69.054688 56.53125 68.917969 C 55.542969 63.75 46.882812 66.632812 44.0625 67.855469 C 37.695312 70.613281 32.003906 74.597656 26.660156 78.984375 C 25.988281 79.539062 26.464844 80.417969 27.144531 80.609375 C 31.609375 84.058594 36.125 87.441406 40.550781 90.949219 C 44.878906 94.378906 49.148438 98.867188 54.121094 101.316406 C 54.550781 101.527344 54.96875 101.523438 55.324219 101.386719 C 55.6875 101.957031 56.527344 102.191406 56.929688 101.410156 C 60.699219 94.078125 69.445312 91.058594 77.328125 90.890625 C 78.945312 90.855469 79.3125 88.917969 78.4375 88.046875 Z M 78.4375 88.046875 "/>
<path style=" stroke:none;fill-rule:nonzero;fill:rgb(100%,100%,100%);fill-opacity:1;" d="M 109.273438 69.847656 C 108.914062 68.507812 107.640625 67.863281 106.539062 67.15625 C 104.125 65.609375 101.847656 63.964844 99.476562 62.34375 C 93.566406 58.300781 88.949219 52.609375 82.738281 49.007812 C 80.84375 45.082031 72.679688 49.625 70.644531 51.242188 C 66.335938 54.667969 60.398438 61.613281 61.144531 67.605469 C 61.148438 67.628906 61.160156 67.644531 61.164062 67.671875 C 61.007812 67.828125 60.933594 68.082031 61.074219 68.269531 C 63.824219 71.964844 67.835938 74.730469 71.484375 77.769531 C 73.726562 79.636719 75.964844 81.5 78.285156 83.269531 C 79.761719 84.394531 81.824219 86.667969 83.882812 86.214844 C 83.898438 86.210938 83.914062 86.203125 83.929688 86.199219 C 84.421875 86.8125 85.421875 87 85.855469 86.117188 C 87.914062 81.925781 91.402344 78.847656 95.277344 76.351562 C 97.402344 74.980469 99.691406 73.949219 102.148438 73.34375 C 103.90625 72.90625 105.5625 73.824219 107.203125 73.300781 C 107.75 73.125 108.246094 72.480469 108.007812 71.878906 C 107.980469 71.804688 107.9375 71.753906 107.90625 71.683594 C 108.277344 71.644531 108.578125 71.515625 108.921875 71.175781 C 109.269531 70.832031 109.398438 70.316406 109.273438 69.847656 Z M 109.273438 69.847656 "/>
<path style=" stroke:none;fill-rule:nonzero;fill:rgb(100%,100%,100%);fill-opacity:1;" d="M 113.898438 78.089844 C 112.253906 76.5 110.59375 74.765625 108.527344 73.734375 C 106.710938 72.828125 105.113281 75.515625 106.929688 76.464844 C 108.019531 77.035156 108.964844 77.84375 109.851562 78.707031 C 103.890625 81.246094 97.785156 83.609375 92.207031 86.875 C 90.074219 88.125 87.929688 89.375 86.351562 91.3125 C 84.214844 93.929688 84.335938 97.917969 79.476562 96.722656 C 74.222656 95.433594 72.242188 96.394531 68.085938 99.925781 C 63.039062 104.210938 57.261719 107.535156 52.664062 112.320312 C 46.84375 107.09375 40.039062 103.273438 33.972656 98.347656 C 29.570312 94.773438 29.890625 89.300781 27.308594 84.636719 C 26.796875 83.714844 25.40625 84.351562 25.648438 85.335938 C 26.824219 90.128906 26.539062 94.972656 29.800781 98.914062 C 32.144531 101.738281 35.707031 103.746094 38.683594 105.796875 C 43.1875 108.902344 47.628906 112.035156 51.574219 115.84375 C 52.199219 116.449219 53.332031 116.542969 53.945312 115.84375 C 58.402344 110.757812 64.25 107.34375 69.46875 103.132812 C 71.980469 101.105469 73.925781 98.558594 77.371094 99.589844 C 80.003906 100.375 81.660156 100.574219 84.296875 99.671875 C 85.679688 99.195312 86.570312 98.015625 87.316406 96.835938 C 87.820312 96.042969 88.128906 95.050781 88.523438 94.195312 C 89.503906 92.058594 91.988281 90.917969 93.914062 89.792969 C 100.144531 86.140625 107.035156 83.78125 113.5625 80.695312 C 114.53125 80.238281 114.617188 78.789062 113.898438 78.089844 Z M 113.898438 78.089844 "/>
<path style=" stroke:none;fill-rule:nonzero;fill:rgb(100%,100%,100%);fill-opacity:1;" d="M 105.296875 108.355469 C 104.929688 108.527344 104.566406 108.75 104.207031 108.996094 C 102.679688 108.203125 101.640625 106.917969 100.984375 105.121094 C 100.632812 104.167969 100.449219 103.175781 100.460938 102.160156 C 100.460938 102.152344 100.464844 102.148438 100.464844 102.140625 C 102.125 101.117188 103.679688 99.976562 105.066406 98.671875 C 106.011719 97.78125 105.332031 96.359375 104.3125 96.082031 C 104.257812 95.976562 104.199219 95.871094 104.121094 95.78125 C 102.683594 94.132812 101.144531 93.414062 98.980469 93.230469 C 98.9375 93.226562 98.890625 93.238281 98.84375 93.242188 C 94.597656 92.289062 89.492188 97.070312 86.316406 99.910156 C 84.628906 101.414062 82.914062 102.855469 80.964844 104.015625 C 78.605469 105.417969 75.738281 105.085938 73.128906 105.507812 C 67.492188 106.421875 64.289062 111.652344 60.917969 115.742188 C 60.226562 116.582031 60.609375 117.601562 61.320312 117.996094 C 62.039062 119.242188 63.511719 120.097656 64.625 120.996094 C 67.378906 123.21875 70.371094 125.140625 73.199219 127.265625 C 73.382812 127.402344 73.589844 127.46875 73.804688 127.488281 C 73.976562 127.617188 74.183594 127.707031 74.414062 127.726562 C 74.835938 127.765625 75.246094 127.71875 75.664062 127.65625 C 75.679688 127.667969 75.6875 127.683594 75.703125 127.695312 C 77.347656 128.722656 80.300781 126.886719 81.816406 126.203125 C 85.617188 124.484375 89.285156 122.492188 92.925781 120.460938 C 96.488281 118.480469 100 116.394531 103.367188 114.09375 C 104.9375 113.019531 107.324219 111.722656 107.574219 109.664062 C 107.726562 108.402344 106.207031 107.9375 105.296875 108.355469 Z M 97.039062 96.496094 C 96.308594 96.796875 95.570312 97.074219 94.828125 97.34375 C 94.773438 97.285156 94.71875 97.234375 94.660156 97.191406 C 95.441406 96.765625 96.234375 96.503906 97.039062 96.496094 Z M 100.335938 112.039062 C 97.085938 114.183594 93.699219 116.132812 90.304688 118.046875 C 87.214844 119.792969 84.074219 121.453125 80.910156 123.050781 C 79.738281 123.640625 77.515625 124.257812 76.183594 125.230469 C 75.960938 125.289062 75.738281 125.355469 75.519531 125.425781 C 75.183594 122.476562 74.683594 119.375 75.191406 116.441406 C 75.867188 112.53125 80.382812 110.855469 83.59375 109.578125 C 88.292969 107.707031 93.59375 105.910156 98.300781 103.382812 C 98.472656 104.394531 98.769531 105.34375 99.03125 105.945312 C 99.742188 107.585938 101.125 109.238281 102.808594 110.070312 C 101.976562 110.765625 101.15625 111.5 100.335938 112.039062 Z M 100.335938 112.039062 "/>
</g>
</svg>
