<?xml version="1.0" encoding="UTF-8"?>
<svg xmlns="http://www.w3.org/2000/svg" xmlns:xlink="http://www.w3.org/1999/xlink" width="24px" height="24px" viewBox="0 0 24 24" version="1.1">
<g id="surface1">
<path style=" stroke:none;fill-rule:nonzero;fill:rgb(0%,0%,0%);fill-opacity:1;" d="M 12 6.957031 C 13.820312 6.957031 15.28125 5.476562 15.28125 3.65625 C 15.28125 1.835938 13.820312 0.355469 12 0.355469 C 10.179688 0.355469 8.699219 1.820312 8.699219 3.65625 C 8.699219 5.476562 10.179688 6.957031 12 6.957031 M 15.1875 7.742188 C 16.6875 7.800781 17.324219 9 17.324219 9 L 22.179688 15.675781 C 22.386719 15.976562 22.5 16.332031 22.5 16.726562 C 22.5 17.757812 21.65625 18.601562 20.625 18.601562 C 20.382812 18.601562 20.15625 18.542969 19.929688 18.46875 L 17.007812 17.644531 L 17.007812 20.570312 L 6.84375 20.570312 L 6.84375 17.644531 L 3.917969 18.46875 C 3.710938 18.542969 3.488281 18.601562 3.226562 18.601562 C 2.195312 18.601562 1.351562 17.757812 1.351562 16.726562 C 1.351562 16.332031 1.460938 15.976562 1.667969 15.675781 L 6.523438 9 C 6.523438 9 7.164062 7.800781 8.664062 7.742188 Z M 11.925781 18.523438 L 15.730469 17.269531 L 15.636719 17.25 C 13.011719 16.480469 14.023438 13.011719 16.648438 13.78125 L 17.007812 13.914062 L 17.007812 9.992188 L 11.925781 11.664062 L 6.824219 9.992188 L 6.824219 13.914062 L 7.179688 13.78125 C 9.804688 13.011719 10.820312 16.460938 8.195312 17.25 L 8.101562 17.269531 Z M 22.386719 23.175781 C 22.648438 23.175781 22.855469 22.914062 22.855469 22.554688 C 22.855469 22.199219 22.648438 21.9375 22.386719 21.9375 L 1.835938 21.9375 C 1.574219 21.9375 1.367188 22.21875 1.367188 22.554688 C 1.367188 22.894531 1.574219 23.175781 1.835938 23.175781 Z M 22.386719 23.175781 "/>
</g>
</svg>
