<?xml version="1.0" encoding="UTF-8"?>
<svg xmlns="http://www.w3.org/2000/svg" width="24" height="24" viewBox="0 0 24 24" version="1.1">
  <g id="surface1" transform="scale(1.5) translate(-4,-4)">
    <path style="stroke:none;fill-rule:nonzero;fill:rgb(100%,100%,100%);fill-opacity:1;" d="M 10.238281 13.601562 C 10.082031 13.601562 9.925781 13.554688 9.796875 13.464844 C 9.664062 13.378906 9.5625 13.253906 9.5 13.105469 C 9.441406 12.960938 9.425781 12.800781 9.457031 12.644531 C 9.484375 12.488281 9.5625 12.347656 9.675781 12.234375 C 9.785156 12.121094 9.929688 12.046875 10.082031 12.015625 C 10.238281 11.984375 10.398438 12 10.546875 12.0625 C 10.691406 12.121094 10.816406 12.222656 10.90625 12.355469 C 10.992188 12.488281 11.039062 12.640625 11.039062 12.800781 C 11.039062 12.90625 11.019531 13.007812 10.980469 13.105469 C 10.9375 13.203125 10.878906 13.292969 10.804688 13.367188 C 10.730469 13.441406 10.644531 13.5 10.546875 13.539062 C 10.449219 13.578125 10.34375 13.601562 10.238281 13.601562 Z M 20 12 C 20 13.582031 19.53125 15.128906 18.652344 16.445312 C 17.773438 17.761719 16.523438 18.785156 15.0625 19.390625 C 13.601562 19.996094 11.992188 20.15625 10.4375 19.847656 C 8.886719 19.539062 7.460938 18.777344 6.34375 17.65625 C 5.222656 16.539062 4.460938 15.113281 4.152344 13.5625 C 3.84375 12.007812 4.003906 10.398438 4.609375 8.9375 C 5.214844 7.476562 6.238281 6.226562 7.554688 5.347656 C 8.871094 4.46875 10.417969 4 12 4 C 14.121094 4 16.15625 4.84375 17.65625 6.34375 C 19.15625 7.84375 20 9.878906 20 12 Z M 15.730469 10.671875 C 15.453125 10.6875 15.195312 10.804688 15 11 C 14.175781 10.457031 13.214844 10.160156 12.230469 10.148438 L 12.789062 7.621094 L 14.578125 8.019531 C 14.578125 8.125 14.597656 8.226562 14.636719 8.324219 C 14.675781 8.421875 14.734375 8.511719 14.808594 8.585938 C 14.882812 8.660156 14.96875 8.71875 15.066406 8.757812 C 15.160156 8.800781 15.265625 8.820312 15.371094 8.820312 C 15.582031 8.816406 15.785156 8.730469 15.9375 8.578125 C 16.085938 8.425781 16.171875 8.222656 16.171875 8.011719 C 16.175781 7.828125 16.117188 7.648438 16.007812 7.503906 C 15.894531 7.359375 15.738281 7.257812 15.558594 7.214844 C 15.378906 7.171875 15.195312 7.195312 15.03125 7.277344 C 14.867188 7.359375 14.734375 7.492188 14.660156 7.660156 L 12.660156 7.21875 C 12.613281 7.210938 12.5625 7.21875 12.523438 7.246094 C 12.480469 7.273438 12.453125 7.3125 12.441406 7.359375 L 11.820312 10.148438 C 10.835938 10.164062 9.875 10.457031 9.050781 11 C 8.941406 10.886719 8.808594 10.800781 8.664062 10.746094 C 8.519531 10.691406 8.363281 10.667969 8.210938 10.675781 C 8.054688 10.6875 7.902344 10.730469 7.765625 10.804688 C 7.628906 10.882812 7.511719 10.984375 7.417969 11.109375 C 7.328125 11.234375 7.261719 11.378906 7.234375 11.53125 C 7.203125 11.683594 7.203125 11.84375 7.242188 11.992188 C 7.277344 12.144531 7.347656 12.285156 7.441406 12.410156 C 7.539062 12.53125 7.660156 12.628906 7.800781 12.699219 C 7.785156 12.867188 7.785156 13.035156 7.800781 13.199219 C 7.800781 14.890625 9.710938 16.269531 12.058594 16.269531 C 14.410156 16.269531 16.320312 14.890625 16.320312 13.199219 C 16.320312 13.027344 16.300781 12.855469 16.261719 12.691406 C 16.460938 12.574219 16.621094 12.398438 16.714844 12.183594 C 16.804688 11.972656 16.828125 11.734375 16.773438 11.507812 C 16.71875 11.285156 16.59375 11.082031 16.414062 10.933594 C 16.234375 10.785156 16.011719 10.699219 15.78125 10.691406 Z M 13.511719 14.421875 C 13.0625 14.703125 12.539062 14.851562 12.011719 14.851562 C 11.480469 14.851562 10.960938 14.703125 10.511719 14.421875 C 10.472656 14.386719 10.425781 14.367188 10.375 14.367188 C 10.324219 14.367188 10.277344 14.386719 10.238281 14.421875 C 10.21875 14.4375 10.207031 14.460938 10.195312 14.484375 C 10.183594 14.507812 10.179688 14.535156 10.179688 14.558594 C 10.179688 14.585938 10.183594 14.613281 10.195312 14.636719 C 10.207031 14.660156 10.21875 14.683594 10.238281 14.699219 C 10.765625 15.054688 11.386719 15.246094 12.019531 15.246094 C 12.65625 15.246094 13.273438 15.054688 13.800781 14.699219 C 13.820312 14.683594 13.835938 14.660156 13.84375 14.636719 C 13.855469 14.613281 13.863281 14.585938 13.863281 14.558594 C 13.863281 14.535156 13.855469 14.507812 13.84375 14.484375 C 13.835938 14.460938 13.820312 14.4375 13.800781 14.421875 C 13.78125 14.398438 13.757812 14.382812 13.734375 14.375 C 13.710938 14.363281 13.683594 14.359375 13.65625 14.359375 C 13.628906 14.359375 13.601562 14.363281 13.574219 14.375 C 13.550781 14.382812 13.527344 14.398438 13.511719 14.421875 Z M 13.761719 12 C 13.601562 12 13.445312 12.046875 13.316406 12.136719 C 13.183594 12.222656 13.082031 12.347656 13.019531 12.492188 C 12.960938 12.640625 12.945312 12.800781 12.976562 12.957031 C 13.007812 13.109375 13.082031 13.253906 13.195312 13.367188 C 13.304688 13.476562 13.449219 13.554688 13.605469 13.585938 C 13.757812 13.617188 13.921875 13.601562 14.066406 13.539062 C 14.210938 13.480469 14.335938 13.375 14.425781 13.246094 C 14.511719 13.113281 14.558594 12.957031 14.558594 12.800781 C 14.558594 12.585938 14.476562 12.382812 14.324219 12.234375 C 14.175781 12.085938 13.972656 12 13.761719 12 Z M 13.761719 12 "/>
  </g>
</svg>
