<?xml version="1.0" encoding="UTF-8"?>
<svg xmlns="http://www.w3.org/2000/svg" xmlns:xlink="http://www.w3.org/1999/xlink" width="24px" height="24px" viewBox="0 0 24 24" version="1.1">
<g id="surface1">
<path style=" stroke:none;fill-rule:nonzero;fill:rgb(100%,100%,100%);fill-opacity:1;" d="M 23.992188 14.574219 L 23.933594 12.199219 L 23.878906 12.28125 C 23.882812 12.203125 23.886719 12.128906 23.886719 12.050781 C 23.882812 10.707031 23.5 9.359375 23.0625 8.144531 C 22.644531 6.992188 22.277344 6.007812 21.765625 5.113281 C 21.257812 4.21875 20.585938 3.429688 19.636719 2.75 C 18.636719 2.035156 17.40625 1.625 16.089844 1.378906 C 14.773438 1.132812 13.367188 1.058594 12 1.058594 C 10.632812 1.058594 9.226562 1.132812 7.910156 1.378906 C 6.59375 1.625 5.363281 2.035156 4.363281 2.75 C 3.414062 3.429688 2.742188 4.21875 2.234375 5.113281 C 1.722656 6.007812 1.355469 6.992188 0.9375 8.144531 C 0.5 9.359375 0.117188 10.707031 0.113281 12.050781 C 0.113281 12.136719 0.121094 12.21875 0.121094 12.300781 L 0.0703125 12.21875 L 0.0078125 14.574219 C 0.00390625 14.765625 0 14.957031 0 15.148438 C 0 15.925781 0.046875 16.683594 0.207031 17.414062 C 0.367188 18.140625 0.648438 18.839844 1.113281 19.460938 C 1.65625 20.179688 2.300781 20.769531 3.039062 21.238281 C 4.144531 21.9375 5.441406 22.359375 6.921875 22.609375 C 8.410156 22.863281 10.089844 22.941406 12 22.941406 C 14.484375 22.941406 16.664062 22.746094 18.503906 22.222656 C 19.421875 21.960938 20.257812 21.613281 20.996094 21.160156 C 21.734375 20.703125 22.375 20.140625 22.886719 19.460938 C 23.351562 18.839844 23.632812 18.140625 23.792969 17.414062 C 23.953125 16.6875 24 15.925781 24 15.152344 C 24 14.960938 23.996094 14.769531 23.992188 14.574219 Z M 0.40625 15.386719 L 0.410156 15.390625 Z M 22.222656 13.242188 C 22.113281 13.609375 21.945312 13.941406 21.699219 14.25 C 21.265625 14.792969 20.765625 15.222656 20.175781 15.578125 C 19.292969 16.109375 18.191406 16.460938 16.832031 16.675781 C 15.476562 16.894531 13.867188 16.972656 12 16.96875 C 9.507812 16.972656 7.480469 16.832031 5.894531 16.414062 C 5.097656 16.207031 4.414062 15.929688 3.824219 15.578125 C 3.234375 15.222656 2.734375 14.792969 2.300781 14.25 C 2.054688 13.941406 1.886719 13.609375 1.777344 13.242188 C 1.667969 12.878906 1.617188 12.480469 1.617188 12.050781 C 1.613281 11 1.9375 9.792969 2.351562 8.65625 C 2.761719 7.511719 3.109375 6.601562 3.535156 5.859375 C 3.964844 5.117188 4.457031 4.535156 5.238281 3.96875 C 5.972656 3.4375 7 3.070312 8.183594 2.855469 C 9.363281 2.632812 10.691406 2.558594 12 2.558594 C 13.308594 2.558594 14.636719 2.632812 15.816406 2.855469 C 17 3.070312 18.027344 3.4375 18.761719 3.96875 C 19.542969 4.535156 20.035156 5.117188 20.464844 5.859375 C 20.890625 6.601562 21.238281 7.511719 21.652344 8.65625 C 22.0625 9.789062 22.386719 11 22.382812 12.050781 C 22.382812 12.480469 22.332031 12.878906 22.222656 13.242188 Z M 22.222656 13.242188 "/>
<path style=" stroke:none;fill-rule:nonzero;fill:rgb(100%,100%,100%);fill-opacity:1;" d="M 9.863281 12.457031 L 9.6875 13.867188 L 14.3125 13.867188 L 14.136719 12.457031 Z M 9.863281 12.457031 "/>
<path style=" stroke:none;fill-rule:nonzero;fill:rgb(100%,100%,100%);fill-opacity:1;" d="M 13.824219 4.402344 L 10.175781 4.402344 L 10.035156 5.539062 L 13.964844 5.539062 Z M 13.824219 4.402344 "/>
<path style=" stroke:none;fill-rule:nonzero;fill:rgb(100%,100%,100%);fill-opacity:1;" d="M 9.992188 7.828125 C 10.140625 7.640625 10.332031 7.496094 10.542969 7.382812 C 10.96875 7.15625 11.480469 7.050781 12 7.050781 C 12.390625 7.050781 12.777344 7.109375 13.125 7.234375 C 13.46875 7.359375 13.785156 7.546875 14.011719 7.828125 C 14.097656 7.933594 14.164062 8.054688 14.21875 8.183594 L 18.671875 8.183594 L 17.632812 5.03125 C 17.5 4.628906 17.125 4.355469 16.703125 4.355469 L 14.53125 4.355469 L 14.714844 5.847656 L 14.765625 6.246094 L 9.234375 6.246094 L 9.46875 4.355469 L 7.296875 4.355469 C 6.875 4.355469 6.5 4.628906 6.367188 5.03125 L 5.328125 8.183594 L 9.785156 8.183594 C 9.835938 8.054688 9.90625 7.933594 9.992188 7.828125 Z M 9.992188 7.828125 "/>
<path style=" stroke:none;fill-rule:nonzero;fill:rgb(100%,100%,100%);fill-opacity:1;" d="M 10.796875 9.140625 C 11.085938 9.300781 11.523438 9.40625 12 9.40625 C 12.359375 9.40625 12.695312 9.347656 12.960938 9.25 C 13.226562 9.152344 13.417969 9.015625 13.511719 8.890625 L 10.488281 8.890625 C 10.550781 8.976562 10.65625 9.0625 10.796875 9.140625 Z M 10.796875 9.140625 "/>
<path style=" stroke:none;fill-rule:nonzero;fill:rgb(100%,100%,100%);fill-opacity:1;" d="M 12 7.757812 C 11.683594 7.757812 11.375 7.808594 11.117188 7.902344 C 10.910156 7.972656 10.742188 8.074219 10.625 8.183594 L 13.375 8.183594 C 13.308594 8.121094 13.222656 8.058594 13.125 8.007812 C 12.835938 7.851562 12.421875 7.757812 12 7.757812 Z M 12 7.757812 "/>
<path style=" stroke:none;fill-rule:nonzero;fill:rgb(100%,100%,100%);fill-opacity:1;" d="M 18.902344 8.890625 L 14.277344 8.890625 C 14.242188 9.042969 14.171875 9.1875 14.082031 9.308594 C 13.941406 9.496094 13.757812 9.644531 13.542969 9.761719 C 13.117188 9.992188 12.578125 10.113281 12 10.113281 C 11.566406 10.113281 11.15625 10.046875 10.796875 9.914062 C 10.441406 9.78125 10.128906 9.589844 9.917969 9.308594 C 9.828125 9.1875 9.757812 9.042969 9.722656 8.890625 L 5.097656 8.890625 L 3.882812 12.585938 C 3.785156 12.886719 3.835938 13.214844 4.019531 13.46875 C 4.203125 13.722656 4.5 13.875 4.8125 13.875 L 8.976562 13.875 L 9.242188 11.75 L 14.761719 11.75 L 15.023438 13.875 L 19.1875 13.875 C 19.5 13.875 19.796875 13.722656 19.980469 13.46875 C 20.164062 13.214844 20.214844 12.886719 20.117188 12.585938 Z M 18.902344 8.890625 "/>
</g>
</svg>
