<?xml version="1.0" encoding="UTF-8"?>
<svg xmlns="http://www.w3.org/2000/svg" xmlns:xlink="http://www.w3.org/1999/xlink" width="24px" height="24px" viewBox="0 0 24 24" version="1.1">
<g id="surface1">
<path style=" stroke:none;fill-rule:nonzero;fill:rgb(100%,100%,100%);fill-opacity:1;" d="M 19.292969 4.328125 L 4.707031 4.328125 C 4.5 4.328125 4.328125 4.5 4.328125 4.707031 L 4.328125 19.292969 C 4.328125 19.5 4.5 19.671875 4.707031 19.671875 L 15.402344 19.671875 C 15.609375 19.671875 15.78125 19.5 15.78125 19.292969 C 15.78125 19.082031 15.609375 18.914062 15.402344 18.914062 L 5.085938 18.914062 L 5.085938 5.085938 L 18.914062 5.085938 L 18.914062 18.914062 L 16.765625 18.914062 C 16.554688 18.914062 16.386719 19.082031 16.386719 19.292969 C 16.386719 19.5 16.554688 19.671875 16.765625 19.671875 L 19.292969 19.671875 C 19.5 19.671875 19.671875 19.5 19.671875 19.292969 L 19.671875 4.707031 C 19.671875 4.5 19.5 4.328125 19.292969 4.328125 Z M 19.292969 4.328125 "/>
<path style=" stroke:none;fill-rule:nonzero;fill:rgb(100%,100%,100%);fill-opacity:1;" d="M 23.621094 13.832031 C 23.832031 13.832031 24 13.664062 24 13.453125 C 24 13.242188 23.832031 13.074219 23.621094 13.074219 L 21.4375 13.074219 L 21.4375 10.925781 L 23.621094 10.925781 C 23.832031 10.925781 24 10.757812 24 10.546875 C 24 10.335938 23.832031 10.167969 23.621094 10.167969 L 21.4375 10.167969 L 21.4375 8.019531 L 23.621094 8.019531 C 23.832031 8.019531 24 7.851562 24 7.640625 C 24 7.429688 23.832031 7.261719 23.621094 7.261719 L 21.4375 7.261719 L 21.4375 5.113281 L 23.621094 5.113281 C 23.832031 5.113281 24 4.945312 24 4.734375 C 24 4.523438 23.832031 4.355469 23.621094 4.355469 L 21.4375 4.355469 C 21.433594 3.367188 20.632812 2.566406 19.644531 2.5625 L 19.644531 0.378906 C 19.644531 0.167969 19.476562 0 19.265625 0 C 19.054688 0 18.886719 0.167969 18.886719 0.378906 L 18.886719 2.5625 L 16.738281 2.5625 L 16.738281 0.378906 C 16.738281 0.167969 16.570312 0 16.359375 0 C 16.148438 0 15.980469 0.167969 15.980469 0.378906 L 15.980469 2.5625 L 13.832031 2.5625 L 13.832031 0.378906 C 13.832031 0.167969 13.664062 0 13.453125 0 C 13.242188 0 13.074219 0.167969 13.074219 0.378906 L 13.074219 2.5625 L 10.925781 2.5625 L 10.925781 0.378906 C 10.925781 0.167969 10.757812 0 10.546875 0 C 10.335938 0 10.167969 0.167969 10.167969 0.378906 L 10.167969 2.5625 L 8.019531 2.5625 L 8.019531 0.378906 C 8.019531 0.167969 7.851562 0 7.640625 0 C 7.429688 0 7.261719 0.167969 7.261719 0.378906 L 7.261719 2.5625 L 5.113281 2.5625 L 5.113281 0.378906 C 5.113281 0.167969 4.945312 0 4.734375 0 C 4.523438 0 4.355469 0.167969 4.355469 0.378906 L 4.355469 2.5625 C 3.367188 2.566406 2.566406 3.367188 2.5625 4.355469 L 0.378906 4.355469 C 0.167969 4.355469 0 4.523438 0 4.734375 C 0 4.945312 0.167969 5.113281 0.378906 5.113281 L 2.5625 5.113281 L 2.5625 7.261719 L 0.378906 7.261719 C 0.167969 7.261719 0 7.429688 0 7.640625 C 0 7.851562 0.167969 8.019531 0.378906 8.019531 L 2.5625 8.019531 L 2.5625 10.167969 L 0.378906 10.167969 C 0.167969 10.167969 0 10.335938 0 10.546875 C 0 10.757812 0.167969 10.925781 0.378906 10.925781 L 2.5625 10.925781 L 2.5625 13.074219 L 0.378906 13.074219 C 0.167969 13.074219 0 13.242188 0 13.453125 C 0 13.664062 0.167969 13.832031 0.378906 13.832031 L 2.5625 13.832031 L 2.5625 15.980469 L 0.378906 15.980469 C 0.167969 15.980469 0 16.148438 0 16.359375 C 0 16.570312 0.167969 16.738281 0.378906 16.738281 L 2.5625 16.738281 L 2.5625 18.886719 L 0.378906 18.886719 C 0.167969 18.886719 0 19.054688 0 19.265625 C 0 19.476562 0.167969 19.644531 0.378906 19.644531 L 2.5625 19.644531 C 2.566406 20.632812 3.367188 21.433594 4.355469 21.4375 L 4.355469 23.621094 C 4.355469 23.832031 4.523438 24 4.734375 24 C 4.945312 24 5.113281 23.832031 5.113281 23.621094 L 5.113281 21.4375 L 7.261719 21.4375 L 7.261719 23.621094 C 7.261719 23.832031 7.429688 24 7.640625 24 C 7.851562 24 8.019531 23.832031 8.019531 23.621094 L 8.019531 21.4375 L 10.167969 21.4375 L 10.167969 23.621094 C 10.167969 23.832031 10.335938 24 10.546875 24 C 10.757812 24 10.925781 23.832031 10.925781 23.621094 L 10.925781 21.4375 L 13.074219 21.4375 L 13.074219 23.621094 C 13.074219 23.832031 13.242188 24 13.453125 24 C 13.664062 24 13.832031 23.832031 13.832031 23.621094 L 13.832031 21.4375 L 15.980469 21.4375 L 15.980469 23.621094 C 15.980469 23.832031 16.148438 24 16.359375 24 C 16.570312 24 16.738281 23.832031 16.738281 23.621094 L 16.738281 21.4375 L 18.886719 21.4375 L 18.886719 23.621094 C 18.886719 23.832031 19.054688 24 19.265625 24 C 19.476562 24 19.644531 23.832031 19.644531 23.621094 L 19.644531 21.4375 C 20.632812 21.433594 21.433594 20.632812 21.4375 19.644531 L 23.621094 19.644531 C 23.832031 19.644531 24 19.476562 24 19.265625 C 24 19.054688 23.832031 18.886719 23.621094 18.886719 L 21.4375 18.886719 L 21.4375 16.738281 L 23.621094 16.738281 C 23.832031 16.738281 24 16.570312 24 16.359375 C 24 16.148438 23.832031 15.980469 23.621094 15.980469 L 21.4375 15.980469 L 21.4375 13.832031 Z M 19.636719 20.679688 L 4.363281 20.679688 C 3.789062 20.679688 3.320312 20.210938 3.320312 19.636719 L 3.320312 4.363281 C 3.320312 3.789062 3.789062 3.320312 4.363281 3.320312 L 19.636719 3.320312 C 20.210938 3.320312 20.679688 3.789062 20.679688 4.363281 L 20.679688 19.636719 C 20.679688 20.210938 20.210938 20.679688 19.636719 20.679688 Z M 19.636719 20.679688 "/>
<path style=" stroke:none;fill-rule:nonzero;fill:rgb(100%,100%,100%);fill-opacity:1;" d="M 16.605469 7.632812 C 16.8125 7.632812 16.984375 7.460938 16.984375 7.253906 C 16.984375 7.042969 16.8125 6.875 16.605469 6.875 L 16.386719 6.875 C 16.175781 6.875 16.007812 7.042969 16.007812 7.253906 C 16.007812 7.460938 16.175781 7.632812 16.386719 7.632812 Z M 16.605469 7.632812 "/>
<path style=" stroke:none;fill-rule:nonzero;fill:rgb(100%,100%,100%);fill-opacity:1;" d="M 15.097656 6.875 L 7.394531 6.875 C 7.1875 6.875 7.015625 7.042969 7.015625 7.253906 C 7.015625 7.460938 7.1875 7.632812 7.394531 7.632812 L 15.097656 7.632812 C 15.308594 7.632812 15.476562 7.460938 15.476562 7.253906 C 15.476562 7.042969 15.308594 6.875 15.097656 6.875 Z M 15.097656 6.875 "/>
<path style=" stroke:none;fill-rule:nonzero;fill:rgb(100%,100%,100%);fill-opacity:1;" d="M 16.605469 10.882812 L 16.386719 10.882812 C 16.175781 10.882812 16.007812 11.050781 16.007812 11.261719 C 16.007812 11.472656 16.175781 11.640625 16.386719 11.640625 L 16.605469 11.640625 C 16.8125 11.640625 16.984375 11.472656 16.984375 11.261719 C 16.984375 11.050781 16.8125 10.882812 16.605469 10.882812 Z M 16.605469 10.882812 "/>
<path style=" stroke:none;fill-rule:nonzero;fill:rgb(100%,100%,100%);fill-opacity:1;" d="M 15.476562 11.261719 C 15.476562 11.050781 15.308594 10.882812 15.097656 10.882812 L 7.394531 10.882812 C 7.1875 10.882812 7.015625 11.050781 7.015625 11.261719 C 7.015625 11.472656 7.1875 11.640625 7.394531 11.640625 L 15.097656 11.640625 C 15.308594 11.640625 15.476562 11.472656 15.476562 11.261719 Z M 15.476562 11.261719 "/>
<path style=" stroke:none;fill-rule:nonzero;fill:rgb(100%,100%,100%);fill-opacity:1;" d="M 7.394531 9.636719 L 7.613281 9.636719 C 7.824219 9.636719 7.992188 9.464844 7.992188 9.257812 C 7.992188 9.046875 7.824219 8.878906 7.613281 8.878906 L 7.394531 8.878906 C 7.1875 8.878906 7.015625 9.046875 7.015625 9.257812 C 7.015625 9.464844 7.1875 9.636719 7.394531 9.636719 Z M 7.394531 9.636719 "/>
<path style=" stroke:none;fill-rule:nonzero;fill:rgb(100%,100%,100%);fill-opacity:1;" d="M 8.523438 9.257812 C 8.523438 9.464844 8.691406 9.636719 8.902344 9.636719 L 16.605469 9.636719 C 16.8125 9.636719 16.984375 9.464844 16.984375 9.257812 C 16.984375 9.046875 16.8125 8.878906 16.605469 8.878906 L 8.902344 8.878906 C 8.691406 8.878906 8.523438 9.046875 8.523438 9.257812 Z M 8.523438 9.257812 "/>
<path style=" stroke:none;fill-rule:nonzero;fill:rgb(100%,100%,100%);fill-opacity:1;" d="M 7.394531 14.75 C 7.1875 14.75 7.015625 14.917969 7.015625 15.128906 C 7.015625 15.335938 7.1875 15.507812 7.394531 15.507812 L 7.640625 15.507812 C 7.851562 15.507812 8.019531 15.335938 8.019531 15.128906 C 8.019531 14.917969 7.851562 14.75 7.640625 14.75 Z M 7.394531 14.75 "/>
<path style=" stroke:none;fill-rule:nonzero;fill:rgb(100%,100%,100%);fill-opacity:1;" d="M 9.214844 14.75 C 9.007812 14.75 8.835938 14.917969 8.835938 15.128906 C 8.835938 15.335938 9.007812 15.507812 9.214844 15.507812 L 9.460938 15.507812 C 9.671875 15.507812 9.839844 15.335938 9.839844 15.128906 C 9.839844 14.917969 9.671875 14.75 9.460938 14.75 Z M 9.214844 14.75 "/>
<path style=" stroke:none;fill-rule:nonzero;fill:rgb(100%,100%,100%);fill-opacity:1;" d="M 11.039062 14.75 C 10.828125 14.75 10.660156 14.917969 10.660156 15.128906 C 10.660156 15.335938 10.828125 15.507812 11.039062 15.507812 L 11.285156 15.507812 C 11.492188 15.507812 11.664062 15.335938 11.664062 15.128906 C 11.664062 14.917969 11.492188 14.75 11.285156 14.75 Z M 11.039062 14.75 "/>
<path style=" stroke:none;fill-rule:nonzero;fill:rgb(100%,100%,100%);fill-opacity:1;" d="M 16.984375 16.140625 L 16.984375 14.113281 C 16.984375 13.570312 16.542969 13.128906 16 13.128906 L 13.972656 13.128906 C 13.429688 13.128906 12.988281 13.570312 12.988281 14.113281 L 12.988281 16.140625 C 12.988281 16.683594 13.429688 17.125 13.972656 17.125 L 16 17.125 C 16.542969 17.125 16.984375 16.683594 16.984375 16.140625 Z M 16.226562 16.140625 C 16.226562 16.265625 16.125 16.367188 16 16.367188 L 13.972656 16.367188 C 13.847656 16.367188 13.746094 16.265625 13.746094 16.140625 L 13.746094 14.113281 C 13.746094 13.988281 13.847656 13.886719 13.972656 13.886719 L 16 13.886719 C 16.125 13.886719 16.226562 13.988281 16.226562 14.113281 Z M 16.226562 16.140625 "/>
</g>
</svg>
