<?xml version="1.0" encoding="UTF-8"?>
<svg xmlns="http://www.w3.org/2000/svg" xmlns:xlink="http://www.w3.org/1999/xlink" width="24px" height="24px" viewBox="0 0 24 24" version="1.1">
<g id="surface1">
<path style=" stroke:none;fill-rule:nonzero;fill:rgb(0%,0%,0%);fill-opacity:1;" d="M 2.707031 5.332031 L 2.707031 18.667969 C 9.039062 20.851562 14.957031 16.476562 21.292969 18.667969 L 21.292969 5.332031 C 14.957031 3.15625 9.042969 7.535156 2.707031 5.332031 Z M 9.605469 9.292969 L 9.757812 8.808594 C 9.816406 8.980469 9.84375 9.066406 9.902344 9.238281 L 10.382812 9.136719 L 10 9.511719 C 10.058594 9.679688 10.085938 9.761719 10.148438 9.933594 L 9.761719 9.730469 L 9.375 10.085938 C 9.429688 9.894531 9.460938 9.796875 9.519531 9.601562 L 9.132812 9.390625 Z M 8.035156 8.019531 C 8.09375 7.832031 8.125 7.738281 8.183594 7.550781 C 8.242188 7.722656 8.273438 7.808594 8.328125 7.988281 C 8.523438 7.964844 8.621094 7.949219 8.808594 7.921875 L 8.421875 8.253906 C 8.484375 8.425781 8.511719 8.511719 8.570312 8.6875 L 8.183594 8.457031 L 7.796875 8.789062 C 7.855469 8.601562 7.882812 8.511719 7.941406 8.320312 C 7.789062 8.222656 7.710938 8.175781 7.558594 8.074219 C 7.746094 8.058594 7.84375 8.050781 8.035156 8.03125 Z M 8.035156 10.960938 C 8.09375 10.769531 8.125 10.675781 8.183594 10.488281 C 8.242188 10.664062 8.273438 10.75 8.328125 10.921875 C 8.523438 10.898438 8.621094 10.886719 8.808594 10.855469 L 8.421875 11.191406 C 8.484375 11.367188 8.511719 11.453125 8.570312 11.625 L 8.183594 11.394531 C 8.03125 11.527344 7.949219 11.589844 7.796875 11.726562 C 7.855469 11.539062 7.882812 11.441406 7.941406 11.257812 L 7.558594 11 C 7.746094 11 7.84375 11 8.035156 10.96875 Z M 6.667969 9.621094 C 6.722656 9.441406 6.753906 9.347656 6.8125 9.164062 C 6.875 9.347656 6.902344 9.4375 6.960938 9.617188 C 7.152344 9.617188 7.25 9.617188 7.441406 9.59375 L 7.054688 9.898438 C 7.113281 10.078125 7.144531 10.167969 7.199219 10.34375 L 6.8125 10.078125 L 6.425781 10.355469 C 6.488281 10.171875 6.511719 10.082031 6.574219 9.902344 C 6.421875 9.789062 6.339844 9.730469 6.1875 9.609375 C 6.363281 9.621094 6.460938 9.621094 6.667969 9.621094 Z M 4.972656 7.972656 L 5.125 7.542969 C 5.179688 7.734375 5.210938 7.828125 5.269531 8.019531 C 5.464844 8.042969 5.558594 8.058594 5.75 8.074219 L 5.363281 8.3125 C 5.421875 8.503906 5.449219 8.597656 5.511719 8.785156 C 5.351562 8.65625 5.277344 8.589844 5.125 8.453125 L 4.722656 8.667969 C 4.78125 8.496094 4.808594 8.410156 4.871094 8.238281 C 4.714844 8.097656 4.636719 8.027344 4.484375 7.875 C 4.667969 7.921875 4.769531 7.941406 4.960938 7.972656 Z M 4.972656 10.914062 L 5.125 10.480469 C 5.179688 10.671875 5.210938 10.765625 5.269531 10.957031 C 5.464844 10.984375 5.558594 10.992188 5.75 11.011719 L 5.363281 11.25 C 5.421875 11.441406 5.449219 11.535156 5.511719 11.722656 C 5.351562 11.59375 5.277344 11.527344 5.125 11.390625 C 4.964844 11.480469 4.890625 11.523438 4.738281 11.601562 C 4.792969 11.433594 4.824219 11.351562 4.882812 11.175781 C 4.726562 11.035156 4.648438 10.964844 4.496094 10.816406 C 4.667969 10.859375 4.769531 10.878906 4.960938 10.914062 Z M 20.332031 17.285156 C 14.613281 16.027344 9.386719 19.332031 3.683594 18.070312 L 3.683594 17 C 9.386719 18.269531 14.613281 14.964844 20.332031 16.226562 Z M 20.332031 15.25 C 14.613281 14 9.386719 17.292969 3.683594 16.035156 L 3.683594 15.015625 C 9.386719 16.277344 14.613281 12.972656 20.332031 14.234375 Z M 20.332031 13.25 C 14.613281 12 9.386719 15.296875 3.683594 14.035156 L 3.683594 13 C 9.386719 14.261719 14.613281 10.957031 20.316406 12.214844 Z M 20.332031 11.25 C 17.332031 10.550781 14.769531 11 11.816406 11.667969 L 11.816406 10.558594 C 14.769531 9.875 17.332031 9.433594 20.332031 10.125 Z M 20.332031 9.152344 C 17.332031 8.464844 14.785156 8.90625 11.832031 9.589844 L 11.832031 8.589844 C 14.785156 7.921875 17.339844 7.464844 20.332031 8.152344 Z M 20.332031 7.152344 C 17.332031 6.464844 14.785156 6.902344 11.832031 7.585938 L 11.832031 6.367188 C 14.769531 5.683594 17.332031 5.238281 20.332031 5.929688 Z M 20.332031 7.152344 "/>
</g>
</svg>
