<?xml version="1.0" encoding="UTF-8"?>
<svg xmlns="http://www.w3.org/2000/svg" xmlns:xlink="http://www.w3.org/1999/xlink" width="24px" height="24px" viewBox="0 0 24 24" version="1.1">
<g id="surface1">
<path style=" stroke:none;fill-rule:nonzero;fill:rgb(13.725491%,12.156863%,12.54902%);fill-opacity:1;" d="M 12 0 C 5.914062 0 0.894531 4.527344 0.109375 10.398438 C 0.109375 10.40625 0.109375 10.410156 0.105469 10.414062 C 0.0859375 10.574219 0.0664062 10.730469 0.0507812 10.890625 C 0.046875 10.964844 0.0429688 11.039062 0.0351562 11.113281 C 0.0273438 11.21875 0.0195312 11.324219 0.015625 11.429688 C 0.00390625 11.617188 0 11.808594 0 12 C 0 18.628906 5.371094 24 12 24 C 18.628906 24 24 18.628906 24 12 C 24 5.371094 18.628906 0 12 0 Z M 12.511719 21.9375 C 12.242188 22.234375 11.796875 22.46875 11.507812 22.191406 C 11.261719 21.949219 11.46875 21.648438 11.507812 21.308594 C 11.554688 20.90625 11.371094 20.429688 11.757812 20.304688 C 12.070312 20.207031 12.308594 20.425781 12.511719 20.683594 C 12.820312 21.066406 12.839844 21.570312 12.511719 21.9375 Z M 16.292969 18.703125 C 15.851562 18.929688 15.539062 18.886719 15.046875 18.953125 C 14.125 19.070312 13.398438 19.523438 12.671875 18.953125 C 12.347656 18.691406 12.304688 18.410156 12.050781 18.074219 C 11.644531 17.5625 11.542969 16.621094 10.921875 16.828125 C 10.527344 16.964844 10.539062 17.359375 10.304688 17.707031 C 10 18.140625 10.074219 18.753906 9.550781 18.828125 C 9.1875 18.878906 8.988281 18.65625 8.679688 18.453125 C 8.335938 18.222656 8.265625 17.949219 7.929688 17.707031 C 7.582031 17.445312 7.296875 17.445312 6.933594 17.207031 C 6.675781 17.03125 6.621094 16.714844 6.308594 16.707031 C 6.027344 16.695312 5.824219 16.835938 5.683594 17.078125 C 5.421875 17.535156 5.332031 18.875 4.5625 18.828125 C 3.996094 18.789062 2.777344 17.511719 2.316406 17.207031 C 2.164062 17.101562 2.023438 17 1.882812 16.917969 C 1.195312 15.511719 0.796875 13.9375 0.757812 12.273438 C 0.988281 12.082031 1.222656 11.988281 1.441406 11.714844 C 1.789062 11.292969 1.621094 10.773438 2.066406 10.464844 C 2.398438 10.238281 2.667969 10.273438 3.066406 10.21875 C 3.640625 10.132812 4.003906 10.058594 4.5625 10.21875 C 5.109375 10.371094 5.320312 10.683594 5.8125 10.964844 C 6.339844 11.269531 6.582031 11.625 7.183594 11.714844 C 7.621094 11.777344 7.921875 11.378906 8.304688 11.589844 C 8.613281 11.761719 8.832031 11.988281 8.804688 12.339844 C 8.769531 12.796875 7.859375 12.503906 7.808594 12.960938 C 7.742188 13.546875 8.75 12.890625 9.304688 13.085938 C 9.671875 13.21875 10.148438 13.195312 10.179688 13.585938 C 10.207031 14.019531 9.574219 13.898438 9.183594 14.085938 C 8.746094 14.289062 8.519531 14.460938 8.054688 14.585938 C 7.632812 14.695312 7.1875 14.351562 6.933594 14.707031 C 6.738281 14.988281 6.804688 15.265625 6.933594 15.585938 C 7.230469 16.308594 8.191406 16.089844 8.929688 15.832031 C 9.449219 15.648438 9.546875 15.183594 10.054688 14.957031 C 10.59375 14.71875 11.011719 14.457031 11.546875 14.707031 C 11.988281 14.917969 11.867188 15.476562 12.300781 15.707031 C 12.769531 15.957031 13.210938 15.433594 13.671875 15.707031 C 14.03125 15.921875 14.007812 16.277344 14.292969 16.578125 C 14.628906 16.933594 14.824219 17.21875 15.292969 17.328125 C 15.777344 17.441406 16.070312 16.929688 16.542969 17.078125 C 16.902344 17.195312 17.199219 17.332031 17.289062 17.707031 C 17.425781 18.238281 16.777344 18.449219 16.292969 18.703125 Z M 17.191406 12.691406 C 16.757812 13.125 16.382812 13.265625 15.777344 13.398438 C 15.238281 13.519531 14.484375 13.941406 14.359375 13.398438 C 14.265625 12.96875 14.746094 12.816406 15.070312 12.515625 C 15.429688 12.179688 15.765625 12.148438 16.128906 11.804688 C 16.457031 11.503906 16.414062 11.042969 16.839844 10.921875 C 17.257812 10.800781 17.660156 10.914062 17.898438 11.277344 C 18.246094 11.789062 17.628906 12.253906 17.191406 12.691406 Z M 22.496094 10.996094 C 22.3125 11.183594 22.324219 11.386719 22.132812 11.574219 C 21.925781 11.773438 21.636719 11.6875 21.480469 11.9375 C 21.347656 12.152344 21.433594 12.332031 21.410156 12.585938 C 21.394531 12.730469 20.6875 13.058594 20.542969 12.730469 C 20.460938 12.550781 20.648438 12.390625 20.542969 12.222656 C 20.445312 12.074219 20.335938 12.148438 20.203125 12.292969 C 20.070312 12.4375 19.914062 12.652344 19.746094 12.730469 C 19.527344 12.832031 19.671875 11.886719 19.597656 11.574219 C 19.542969 11.324219 19.601562 11.167969 19.671875 10.921875 C 19.765625 10.582031 20.023438 10.46875 20.105469 10.125 C 20.179688 9.824219 20.117188 9.640625 20.105469 9.328125 C 20.089844 8.988281 20.101562 8.792969 20.035156 8.460938 C 19.964844 8.109375 19.941406 7.890625 19.746094 7.59375 C 19.589844 7.359375 19.488281 7.21875 19.238281 7.085938 C 19.179688 7.050781 19.121094 7.03125 19.070312 7.015625 C 18.941406 6.972656 18.824219 6.964844 18.65625 6.941406 C 18.324219 6.890625 18.085938 7.105469 17.789062 6.941406 C 17.617188 6.847656 17.5625 6.726562 17.429688 6.578125 C 17.277344 6.417969 17.238281 6.28125 17.066406 6.144531 C 16.941406 6.042969 16.859375 5.980469 16.707031 5.925781 C 16.410156 5.828125 16.203125 5.894531 15.910156 6 C 15.621094 6.101562 15.511719 6.265625 15.257812 6.433594 C 15.058594 6.546875 14.921875 6.574219 14.75 6.722656 C 14.648438 6.816406 14.15625 7.164062 13.953125 7.15625 C 13.75 7.148438 13.632812 7.027344 13.453125 7.011719 C 13.425781 7.011719 13.402344 7.011719 13.375 7.011719 C 13.375 7.011719 13.375 7.011719 13.371094 7.011719 C 13.195312 7.027344 13.113281 7.113281 12.941406 7.15625 C 12.527344 7.261719 12.261719 7.113281 11.855469 7.230469 C 11.585938 7.304688 11.480469 7.519531 11.203125 7.519531 C 10.890625 7.523438 10.78125 7.242188 10.480469 7.15625 C 10.316406 7.113281 10.21875 7.109375 10.046875 7.085938 C 9.765625 7.046875 9.605469 7.039062 9.324219 7.015625 C 9.316406 7.015625 9.101562 7.035156 9.066406 7.015625 C 8.90625 6.90625 8.792969 6.820312 8.597656 6.722656 C 8.382812 6.617188 8.253906 6.5625 8.019531 6.503906 L 8.027344 6.363281 C 8.027344 6.363281 8.027344 6.042969 7.980469 5.910156 C 7.9375 5.773438 7.890625 5.773438 7.980469 5.503906 C 8.074219 5.230469 8.238281 5.058594 8.238281 5.058594 C 8.347656 4.972656 8.429688 4.945312 8.523438 4.839844 C 8.714844 4.640625 8.792969 4.46875 8.816406 4.191406 C 8.839844 3.824219 8.363281 3.675781 8.453125 3.320312 C 8.53125 3.011719 8.789062 2.953125 9.03125 2.742188 C 9.324219 2.492188 9.582031 2.457031 9.828125 2.164062 C 10.015625 1.941406 10.167969 1.800781 10.191406 1.511719 C 10.210938 1.265625 10.105469 1.113281 9.976562 0.9375 C 10.632812 0.816406 11.308594 0.75 12 0.75 C 17.59375 0.75 22.234375 4.835938 23.101562 10.183594 C 23.027344 10.316406 23.101562 10.484375 23 10.632812 C 22.867188 10.835938 22.664062 10.820312 22.496094 10.996094 Z M 22.496094 10.996094 "/>
</g>
</svg>
