<?xml version="1.0" encoding="UTF-8"?>
<svg xmlns="http://www.w3.org/2000/svg" width="24" height="24" viewBox="0 0 24 24" version="1.1">
  <g id="surface1" transform="scale(1.5) translate(-4, -4)">
    <path style="stroke:none;fill-rule:nonzero;fill:rgb(0%,0%,0%);fill-opacity:1;" d="M 20 12.050781 C 19.980469 10.527344 19.527344 9.039062 18.691406 7.761719 C 17.855469 6.488281 16.671875 5.476562 15.28125 4.851562 C 13.890625 4.226562 12.351562 4.011719 10.84375 4.234375 C 9.335938 4.453125 7.921875 5.101562 6.765625 6.097656 C 5.613281 7.09375 4.769531 8.402344 4.335938 9.863281 C 3.898438 11.324219 3.890625 12.878906 4.308594 14.34375 C 4.726562 15.808594 5.554688 17.125 6.695312 18.136719 C 7.835938 19.148438 9.242188 19.8125 10.75 20.050781 L 10.75 14.378906 L 8.75 14.378906 L 8.75 12.050781 L 10.75 12.050781 L 10.75 10.28125 C 10.703125 9.867188 10.75 9.453125 10.878906 9.058594 C 11.011719 8.667969 11.230469 8.308594 11.515625 8.007812 C 11.800781 7.710938 12.152344 7.476562 12.535156 7.328125 C 12.921875 7.175781 13.335938 7.113281 13.75 7.140625 C 14.351562 7.148438 14.949219 7.203125 15.539062 7.300781 L 15.539062 9.300781 L 14.539062 9.300781 C 14.367188 9.277344 14.191406 9.296875 14.027344 9.351562 C 13.863281 9.40625 13.710938 9.496094 13.585938 9.617188 C 13.460938 9.738281 13.367188 9.886719 13.304688 10.050781 C 13.246094 10.210938 13.222656 10.386719 13.238281 10.558594 L 13.238281 12.070312 L 15.460938 12.070312 L 15.101562 14.398438 L 13.25 14.398438 L 13.25 20 C 15.140625 19.699219 16.859375 18.734375 18.097656 17.277344 C 19.335938 15.816406 20.011719 13.964844 20 12.050781 Z M 20 12.050781"/>
  </g>
</svg>
