<?xml version="1.0" encoding="UTF-8"?>
<svg xmlns="http://www.w3.org/2000/svg" xmlns:xlink="http://www.w3.org/1999/xlink" width="24px" height="24px" viewBox="0 0 24 24" version="1.1">
<g id="surface1">
<path style=" stroke:none;fill-rule:nonzero;fill:rgb(100%,100%,100%);fill-opacity:1;" d="M 11.839844 7.1875 C 10.433594 7.1875 9.289062 8.332031 9.289062 9.738281 C 9.289062 10.085938 9.363281 10.433594 9.503906 10.753906 C 9.503906 10.753906 9.503906 10.753906 9.503906 10.75 C 9.507812 10.746094 9.515625 10.742188 9.519531 10.738281 C 9.601562 10.652344 9.683594 10.574219 9.773438 10.5 C 9.804688 10.472656 9.835938 10.449219 9.867188 10.425781 C 9.933594 10.375 9.996094 10.324219 10.0625 10.28125 C 10.101562 10.253906 10.144531 10.230469 10.183594 10.207031 C 10.246094 10.167969 10.3125 10.128906 10.375 10.09375 C 10.421875 10.074219 10.464844 10.050781 10.507812 10.03125 C 10.574219 10 10.640625 9.972656 10.707031 9.945312 C 10.753906 9.925781 10.800781 9.910156 10.847656 9.894531 C 10.917969 9.871094 10.988281 9.847656 11.0625 9.828125 C 11.105469 9.816406 11.152344 9.804688 11.199219 9.792969 C 11.277344 9.777344 11.359375 9.761719 11.441406 9.75 C 11.480469 9.746094 11.519531 9.738281 11.558594 9.734375 C 11.683594 9.71875 11.804688 9.710938 11.929688 9.710938 C 12.046875 9.710938 12.164062 9.71875 12.277344 9.730469 C 12.300781 9.734375 12.320312 9.734375 12.339844 9.738281 L 12.878906 9.027344 C 12.964844 8.914062 13.125 8.890625 13.238281 8.976562 C 13.351562 9.0625 13.371094 9.222656 13.289062 9.335938 L 12.894531 9.855469 C 12.914062 9.859375 12.929688 9.867188 12.949219 9.871094 C 12.992188 9.886719 13.035156 9.902344 13.078125 9.917969 C 13.144531 9.941406 13.207031 9.96875 13.273438 9.996094 C 13.3125 10.011719 13.355469 10.03125 13.394531 10.050781 C 13.460938 10.082031 13.523438 10.117188 13.585938 10.152344 C 13.621094 10.171875 13.660156 10.191406 13.695312 10.214844 C 13.765625 10.257812 13.835938 10.308594 13.90625 10.359375 C 13.929688 10.375 13.953125 10.390625 13.976562 10.410156 C 14.0625 10.476562 14.148438 10.546875 14.230469 10.621094 C 14.332031 10.339844 14.386719 10.039062 14.386719 9.738281 C 14.390625 8.332031 13.246094 7.1875 11.839844 7.1875 Z M 11.839844 7.1875 "/>
<path style=" stroke:none;fill-rule:nonzero;fill:rgb(100%,100%,100%);fill-opacity:1;" d="M 13.839844 10.964844 C 13.800781 10.925781 13.757812 10.890625 13.714844 10.855469 C 13.679688 10.828125 13.644531 10.800781 13.609375 10.773438 C 13.5625 10.738281 13.515625 10.707031 13.46875 10.679688 C 13.433594 10.65625 13.394531 10.632812 13.359375 10.609375 C 13.308594 10.582031 13.261719 10.554688 13.210938 10.53125 C 13.171875 10.511719 13.132812 10.492188 13.09375 10.472656 C 13.042969 10.449219 12.988281 10.429688 12.933594 10.410156 C 12.894531 10.394531 12.855469 10.378906 12.816406 10.367188 C 12.761719 10.347656 12.703125 10.332031 12.644531 10.316406 C 12.605469 10.308594 12.566406 10.296875 12.53125 10.289062 C 12.464844 10.273438 12.398438 10.265625 12.332031 10.253906 C 12.300781 10.25 12.265625 10.242188 12.234375 10.238281 C 12.132812 10.230469 12.03125 10.222656 11.929688 10.222656 C 11.820312 10.222656 11.714844 10.230469 11.609375 10.242188 C 11.570312 10.246094 11.539062 10.253906 11.503906 10.257812 C 11.433594 10.269531 11.363281 10.28125 11.292969 10.296875 C 11.253906 10.304688 11.210938 10.316406 11.171875 10.328125 C 11.109375 10.347656 11.050781 10.363281 10.988281 10.382812 C 10.949219 10.398438 10.90625 10.417969 10.867188 10.433594 C 10.808594 10.457031 10.753906 10.476562 10.699219 10.503906 C 10.65625 10.523438 10.617188 10.546875 10.578125 10.570312 C 10.523438 10.597656 10.472656 10.625 10.421875 10.65625 C 10.382812 10.683594 10.34375 10.710938 10.308594 10.738281 C 10.257812 10.769531 10.210938 10.804688 10.164062 10.839844 C 10.128906 10.871094 10.09375 10.902344 10.054688 10.933594 C 10.011719 10.972656 9.96875 11.011719 9.925781 11.054688 C 9.890625 11.089844 9.859375 11.125 9.828125 11.160156 C 9.808594 11.179688 9.789062 11.203125 9.773438 11.226562 C 10.25 11.894531 11.011719 12.289062 11.839844 12.289062 C 12.714844 12.289062 13.523438 11.839844 13.988281 11.109375 C 13.972656 11.089844 13.957031 11.074219 13.9375 11.054688 C 13.90625 11.023438 13.875 10.992188 13.839844 10.964844 Z M 13.839844 10.964844 "/>
<path style=" stroke:none;fill-rule:nonzero;fill:rgb(100%,100%,100%);fill-opacity:1;" d="M 16.636719 12.027344 C 16.789062 11.347656 16.871094 10.65625 16.871094 9.96875 C 16.871094 6.6875 15.121094 3.640625 12.292969 1.976562 L 12.292969 0.253906 C 12.292969 0.113281 12.179688 0 12.039062 0 C 11.898438 0 11.78125 0.113281 11.78125 0.253906 L 11.78125 1.976562 C 8.957031 3.640625 7.207031 6.6875 7.207031 9.96875 C 7.207031 10.636719 7.285156 11.308594 7.429688 11.96875 C 5.691406 13.554688 4.632812 15.929688 4.523438 18.523438 C 4.515625 18.636719 4.589844 18.738281 4.699219 18.773438 C 5.636719 19.085938 6.609375 19.242188 7.597656 19.242188 L 7.714844 19.238281 C 7.816406 19.238281 7.90625 19.175781 7.945312 19.082031 C 8.3125 18.199219 9.152344 17.484375 10.226562 17.117188 L 9.796875 19.8125 C 8.824219 19.898438 8.042969 20.664062 7.929688 21.628906 C 6.90625 21.75 6.105469 22.621094 6.105469 23.679688 C 6.105469 23.820312 6.21875 23.933594 6.363281 23.933594 C 6.503906 23.933594 6.617188 23.820312 6.617188 23.679688 C 6.617188 22.820312 7.3125 22.125 8.171875 22.125 C 8.3125 22.125 8.425781 22.011719 8.425781 21.871094 C 8.425781 21.105469 8.980469 20.46875 9.710938 20.339844 L 9.570312 21.226562 C 9.546875 21.367188 9.640625 21.496094 9.78125 21.519531 C 9.796875 21.519531 9.808594 21.523438 9.820312 21.523438 C 9.945312 21.523438 10.054688 21.433594 10.074219 21.308594 L 10.769531 16.964844 C 11.574219 16.789062 12.441406 16.808594 13.230469 17.023438 L 13.925781 21.375 C 13.945312 21.5 14.054688 21.589844 14.179688 21.589844 C 14.191406 21.589844 14.207031 21.585938 14.21875 21.585938 C 14.359375 21.5625 14.453125 21.433594 14.429688 21.292969 L 14.289062 20.40625 C 15.019531 20.535156 15.574219 21.171875 15.574219 21.9375 C 15.574219 22.078125 15.6875 22.191406 15.828125 22.191406 C 16.6875 22.191406 17.382812 22.890625 17.382812 23.746094 C 17.382812 23.886719 17.496094 24 17.640625 24 C 17.78125 24 17.894531 23.886719 17.894531 23.746094 C 17.894531 22.6875 17.09375 21.816406 16.070312 21.695312 C 15.957031 20.730469 15.179688 19.964844 14.203125 19.878906 L 13.777344 17.203125 C 14.738281 17.59375 15.46875 18.257812 15.808594 19.070312 C 15.847656 19.164062 15.933594 19.222656 16.035156 19.226562 C 16.179688 19.234375 16.328125 19.238281 16.480469 19.238281 C 17.441406 19.238281 18.390625 19.09375 19.300781 18.800781 C 19.410156 18.765625 19.484375 18.664062 19.476562 18.546875 C 19.375 15.984375 18.339844 13.617188 16.636719 12.027344 Z M 14.53125 11.195312 C 13.996094 12.183594 12.964844 12.796875 11.839844 12.796875 C 10.773438 12.796875 9.796875 12.253906 9.234375 11.339844 C 8.9375 10.855469 8.777344 10.300781 8.777344 9.738281 C 8.777344 8.050781 10.152344 6.679688 11.839844 6.679688 C 13.527344 6.679688 14.898438 8.050781 14.898438 9.738281 C 14.898438 10.246094 14.773438 10.75 14.53125 11.195312 Z M 14.53125 11.195312 "/>
</g>
</svg>
