<?xml version="1.0" encoding="UTF-8"?>
<svg xmlns="http://www.w3.org/2000/svg" xmlns:xlink="http://www.w3.org/1999/xlink" width="24px" height="24px" viewBox="0 0 24 24" version="1.1">
<g id="surface1">
<path style=" stroke:none;fill-rule:nonzero;fill:rgb(0%,0%,0%);fill-opacity:1;" d="M 22.496094 19.191406 L 16.574219 9.730469 C 16.074219 8.933594 15.8125 8.011719 15.8125 7.066406 L 15.820312 0.0078125 L 8.226562 0 L 8.21875 7.054688 C 8.21875 8 7.949219 8.921875 7.449219 9.722656 L 1.503906 19.167969 C 1.1875 19.679688 1.023438 20.257812 1.023438 20.839844 C 1.023438 21.363281 1.152344 21.886719 1.414062 22.359375 C 1.96875 23.359375 3.019531 23.980469 4.164062 23.984375 L 19.832031 24 C 19.875 24 19.894531 23.996094 19.894531 23.996094 C 21.015625 23.972656 22.039062 23.363281 22.582031 22.382812 L 22.582031 22.378906 C 22.84375 21.90625 22.976562 21.382812 22.976562 20.859375 C 22.976562 20.277344 22.816406 19.699219 22.496094 19.191406 Z M 20.980469 21.492188 C 20.75 21.910156 20.308594 22.167969 19.835938 22.167969 C 19.828125 22.167969 19.828125 22.167969 19.824219 22.167969 L 4.164062 22.152344 C 3.6875 22.148438 3.25 21.890625 3.019531 21.472656 C 2.910156 21.273438 2.855469 21.058594 2.855469 20.839844 C 2.855469 20.597656 2.921875 20.355469 3.058594 20.144531 L 9 10.699219 C 9.6875 9.605469 10.050781 8.34375 10.050781 7.054688 L 10.058594 1.835938 L 13.984375 1.839844 L 13.976562 7.0625 L 13.976562 7.066406 C 13.976562 8.355469 14.339844 9.613281 15.023438 10.703125 L 20.945312 20.164062 C 21.078125 20.375 21.144531 20.617188 21.144531 20.859375 C 21.144531 21.078125 21.089844 21.292969 20.980469 21.492188 Z M 20.980469 21.492188 "/>
<path style=" stroke:none;fill-rule:nonzero;fill:rgb(0%,0%,0%);fill-opacity:1;" d="M 15.171875 13.65625 C 15.101562 13.546875 14.984375 13.480469 14.855469 13.480469 L 9.160156 13.472656 C 9.03125 13.472656 8.914062 13.539062 8.84375 13.648438 L 4.757812 20.144531 C 4.6875 20.257812 4.683594 20.402344 4.746094 20.519531 C 4.8125 20.640625 4.9375 20.710938 5.070312 20.710938 L 18.929688 20.726562 C 19.0625 20.726562 19.1875 20.65625 19.253906 20.535156 C 19.320312 20.417969 19.316406 20.273438 19.242188 20.160156 Z M 15.171875 13.65625 "/>
</g>
</svg>
