<?xml version="1.0" encoding="UTF-8"?>
<svg xmlns="http://www.w3.org/2000/svg" xmlns:xlink="http://www.w3.org/1999/xlink" width="128px" height="128px" viewBox="0 0 128 128" version="1.1">
<g id="surface1">
<path style=" stroke:none;fill-rule:evenodd;fill:rgb(100%,100%,100%);fill-opacity:1;" d="M 72 68 C 72 66.542969 71.582031 65.1875 70.894531 64 L 57.105469 64 C 56.417969 65.1875 56 66.542969 56 68 C 56 72.417969 59.582031 76 64 76 C 68.417969 76 72 72.417969 72 68 Z M 80 68 C 80 76.832031 72.832031 84 64 84 C 55.167969 84 48 76.832031 48 68 C 48 66.605469 48.207031 65.269531 48.5625 64 L 0 64 L 0 108 C 0 116.832031 7.167969 124 16 124 L 112 124 C 120.832031 124 128 116.832031 128 108 L 128 64 L 79.4375 64 C 79.792969 65.269531 80 66.605469 80 68 Z M 80 20 L 48 20 L 48 16 C 48 13.792969 49.792969 12 52 12 L 76 12 C 78.207031 12 80 13.792969 80 16 Z M 112 20 L 88 20 L 88 12 C 88 7.582031 84.417969 4 80 4 L 48 4 C 43.582031 4 40 7.582031 40 12 L 40 20 L 16 20 C 7.167969 20 0 27.167969 0 36 L 0 56 L 128 56 L 128 36 C 128 27.167969 120.832031 20 112 20 Z M 112 20 "/>
</g>
</svg>
