<?xml version="1.0" encoding="UTF-8"?>
<svg xmlns="http://www.w3.org/2000/svg" xmlns:xlink="http://www.w3.org/1999/xlink" width="128px" height="128px" viewBox="0 0 128 128" version="1.1">
<g id="surface1">
<path style=" stroke:none;fill-rule:nonzero;fill:rgb(100%,100%,100%);fill-opacity:1;" d="M 121.792969 3.105469 C 121.519531 2.5625 121.019531 2.167969 120.4375 2.042969 C 114.457031 0.75 106.480469 0.0820312 96.707031 0.0820312 C 86.875 0.0820312 75.582031 0.792969 65.75 2.019531 C 35.292969 5.832031 14 27.207031 14 54 L 14 91.355469 L 6.207031 120.457031 C 5.355469 123.644531 7.25 126.9375 10.457031 127.792969 C 13.644531 128.644531 16.9375 126.75 17.792969 123.5625 L 22.5 106 L 62 106 C 90.667969 106 114 82.667969 114 54 C 114 40.667969 114 22.417969 121.832031 4.8125 C 122.0625 4.269531 122.0625 3.625 121.792969 3.105469 Z M 13.9375 122.519531 C 13.644531 123.582031 12.542969 124.207031 11.480469 123.9375 C 10.417969 123.644531 9.792969 122.542969 10.0625 121.480469 L 15.167969 102.105469 C 15.980469 103.457031 17.167969 104.542969 18.605469 105.207031 Z M 104.6875 17.875 C 104.542969 17.9375 92.667969 22.480469 75.605469 36.519531 C 86.75 35.332031 96.0625 37.9375 96.542969 38.082031 C 97.605469 38.375 98.230469 39.480469 97.917969 40.542969 C 97.667969 41.417969 96.875 42 96 42 C 95.8125 42 95.625 41.980469 95.457031 41.917969 C 95.332031 41.894531 82.519531 38.355469 69.625 41.644531 C 66.980469 44.019531 64.230469 46.605469 61.417969 49.417969 C 58.125 52.707031 55.1875 55.875 52.5 58.917969 C 72.917969 54.875 91.667969 59.832031 92.519531 60.0625 C 93.582031 60.355469 94.230469 61.457031 93.9375 62.519531 C 93.6875 63.417969 92.875 64 92 64 C 91.832031 64 91.644531 63.980469 91.480469 63.9375 C 91.25 63.875 69.707031 58.144531 48.519531 63.9375 C 48.417969 63.957031 48.3125 63.957031 48.207031 63.980469 C 42.8125 70.582031 38.832031 76.375 36 81.019531 C 56.394531 76.792969 73.792969 81.855469 74.582031 82.082031 C 75.625 82.394531 76.230469 83.519531 75.917969 84.5625 C 75.644531 85.4375 74.855469 86 74 86 C 73.8125 86 73.625 85.980469 73.417969 85.917969 C 73.230469 85.855469 54.125 80.3125 33.25 85.75 C 30.875 90.082031 29.894531 92.625 29.875 92.6875 C 29.582031 93.5 28.8125 94 28 94 C 27.769531 94 27.542969 93.957031 27.3125 93.875 C 26.269531 93.5 25.75 92.355469 26.125 91.3125 C 26.230469 91 27.375 88 30.144531 83.019531 C 33.8125 63.9375 30.082031 46.605469 30.042969 46.4375 C 29.8125 45.355469 30.480469 44.292969 31.5625 44.042969 C 32.644531 43.792969 33.707031 44.5 33.957031 45.5625 C 34.082031 46.1875 36.792969 58.6875 35.375 74.480469 C 38.207031 70.25 41.792969 65.355469 46.3125 59.957031 C 49.6875 39.375 46.082031 22.605469 46.042969 22.4375 C 45.8125 21.355469 46.480469 20.292969 47.5625 20.042969 C 48.644531 19.8125 49.707031 20.5 49.957031 21.5625 C 50.105469 22.230469 53.082031 36.125 51.105469 54.480469 C 53.394531 51.9375 55.875 49.292969 58.582031 46.582031 C 61.144531 44.019531 63.644531 41.6875 66.0625 39.480469 L 66.0625 39.457031 C 69.8125 26.355469 66.167969 16.832031 66.144531 16.75 C 65.730469 15.707031 66.230469 14.542969 67.269531 14.144531 C 68.292969 13.730469 69.4375 14.230469 69.855469 15.25 C 70 15.644531 73.0625 23.480469 71.167969 34.980469 C 89.707031 19.292969 102.644531 14.355469 103.3125 14.125 C 104.355469 13.75 105.5 14.269531 105.875 15.3125 C 106.25 16.332031 105.730469 17.5 104.6875 17.875 Z M 104.6875 17.875 "/>
</g>
</svg>
