<?xml version="1.0" encoding="UTF-8"?>
<svg xmlns="http://www.w3.org/2000/svg" xmlns:xlink="http://www.w3.org/1999/xlink" width="128px" height="128px" viewBox="0 0 128 128" version="1.1">
<g id="surface1">
<path style=" stroke:none;fill-rule:nonzero;fill:rgb(0%,0%,0%);fill-opacity:1;" d="M 108 112.125 L 100 112.125 L 100 119.875 L 84 119.875 L 84 112.125 L 40 112.125 L 40 119.875 L 24 119.875 L 24 112.125 L 16 112.125 C 11.582031 112.125 8 108.542969 8 104.125 L 8 36.125 C 8 31.707031 11.582031 28.125 16 28.125 L 108 28.125 C 112.417969 28.125 116 31.707031 116 36.125 L 116 104.125 C 116 108.542969 112.417969 112.125 108 112.125 Z M 84 64.125 L 68 64.125 L 68 48.125 L 56 48.125 L 56 64.125 L 40 64.125 L 40 76.125 L 56 76.125 L 56 92.125 L 68 92.125 L 68 76.125 L 84 76.125 Z M 76 16.042969 L 52 16.042969 L 52 24.125 L 44 24.125 L 44 20.207031 L 48 20.207031 L 48 8.125 L 79.832031 8.125 L 79.832031 20.125 L 84 20.125 L 84 24.125 L 76 24.125 Z M 76 16.042969 "/>
</g>
</svg>
