<?xml version="1.0" encoding="UTF-8"?>
<svg xmlns="http://www.w3.org/2000/svg" xmlns:xlink="http://www.w3.org/1999/xlink" width="128px" height="128px" viewBox="0 0 128 128" version="1.1">
<g id="surface1">
<path style=" stroke:none;fill-rule:nonzero;fill:rgb(100%,100%,100%);fill-opacity:1;" d="M 119.707031 115.75 L 114.269531 11.042969 C 113.957031 4.855469 108.855469 0 102.644531 0 L 25.332031 0 C 19.144531 0 14.042969 4.855469 13.730469 11.042969 L 8.292969 115.75 C 8.125 118.9375 9.292969 122.0625 11.480469 124.375 C 13.6875 126.6875 16.730469 128 19.917969 128 L 108.082031 128 C 111.269531 128 114.3125 126.6875 116.519531 124.375 C 118.707031 122.0625 119.875 118.9375 119.707031 115.75 Z M 98.730469 26.730469 C 94.75 42.269531 80.75 53.582031 64.042969 53.582031 C 47.332031 53.582031 33.332031 42.3125 29.355469 26.769531 C 26.207031 25.542969 23.980469 22.5 23.980469 18.917969 C 23.980469 14.269531 27.75 10.5 32.417969 10.5 C 37.0625 10.5 40.832031 14.269531 40.832031 18.917969 C 40.832031 21.582031 39.605469 23.957031 37.667969 25.5 C 41 36.980469 51.542969 45.25 64.042969 45.25 C 76.519531 45.25 87.042969 37 90.394531 25.542969 C 88.4375 24 87.167969 21.605469 87.167969 18.917969 C 87.167969 14.269531 90.9375 10.5 95.582031 10.5 C 100.230469 10.5 104 14.269531 104 18.917969 C 104 22.457031 101.8125 25.5 98.730469 26.730469 Z M 98.730469 26.730469 "/>
</g>
</svg>
