<?xml version="1.0" encoding="UTF-8"?>
<svg xmlns="http://www.w3.org/2000/svg" xmlns:xlink="http://www.w3.org/1999/xlink" width="128px" height="128px" viewBox="0 0 128 128" version="1.1">
<g id="surface1">
<path style=" stroke:none;fill-rule:evenodd;fill:rgb(100%,100%,100%);fill-opacity:1;" d="M 64 36 C 57.375 36 52 41.375 52 48 C 52 54.625 57.375 60 64 60 C 70.625 60 76 54.625 76 48 C 76 41.375 70.625 36 64 36 Z M 64 68 C 52.957031 68 44 59.042969 44 48 C 44 36.957031 52.957031 28 64 28 C 75.042969 28 84 36.957031 84 48 C 84 59.042969 75.042969 68 64 68 Z M 64 0 C 37.5 0 16 21.5 16 48 C 16 68.0625 56.019531 128.042969 64 128 C 71.855469 128.042969 112 67.792969 112 48 C 112 21.5 90.5 0 64 0 Z M 64 0 "/>
</g>
</svg>
