<?xml version="1.0" encoding="UTF-8"?>
<svg xmlns="http://www.w3.org/2000/svg" xmlns:xlink="http://www.w3.org/1999/xlink" width="128px" height="128px" viewBox="0 0 128 128" version="1.1">
<g id="surface1">
<path style=" stroke:none;fill-rule:nonzero;fill:rgb(100%,100%,100%);fill-opacity:1;" d="M 36.894531 80.042969 C 36.875 79.855469 36.8125 79.667969 36.8125 79.457031 L 36.8125 77.75 C 36.8125 76.9375 36.9375 76.144531 37.207031 75.375 C 37.207031 75.375 41.457031 69.6875 43.480469 63 C 41.269531 58.355469 39.269531 52.5625 39.269531 46.832031 C 39.269531 45.5 39.375 44.207031 39.5 42.9375 C 36.625 39.9375 32.75 38.230469 28.480469 38.230469 C 19.625 38.230469 12.4375 45.4375 12.4375 56.667969 C 12.4375 65.644531 19.75 75.375 19.75 75.375 C 20 76.144531 20.144531 76.9375 20.144531 77.75 L 20.144531 79.457031 C 20.144531 81.605469 18.894531 83.542969 16.957031 84.417969 L 5.355469 89.167969 C 2.667969 90.394531 0.75 92.875 0.207031 95.792969 L 0.0195312 98.332031 C -0.0820312 99.667969 0.375 100.980469 1.269531 101.957031 C 2.167969 102.9375 3.4375 103.480469 4.769531 103.480469 L 23.730469 103.480469 L 24.5 93.5 L 24.5625 93.230469 C 25.5 87.980469 28.980469 83.542969 33.8125 81.3125 Z M 36.894531 80.042969 "/>
<path style=" stroke:none;fill-rule:nonzero;fill:rgb(100%,100%,100%);fill-opacity:1;" d="M 127.792969 95.792969 C 127.25 92.875 125.332031 90.394531 122.644531 89.167969 L 111.042969 84.417969 C 109.105469 83.542969 107.875 81.582031 107.875 79.457031 L 107.875 77.75 C 107.875 76.9375 108 76.144531 108.25 75.375 C 108.25 75.375 115.5625 65.644531 115.5625 56.667969 C 115.5625 45.4375 108.375 38.230469 99.519531 38.230469 C 95.25 38.230469 91.375 39.9375 88.480469 42.9375 C 88.625 44.207031 88.730469 45.5 88.730469 46.832031 C 88.730469 52.5625 86.730469 58.355469 84.519531 63 C 86.542969 69.6875 90.792969 75.375 90.792969 75.375 C 91.0625 76.144531 91.1875 76.9375 91.1875 77.75 L 91.1875 79.457031 C 91.1875 79.667969 91.125 79.855469 91.105469 80.042969 L 93.980469 81.207031 C 99.019531 83.519531 102.480469 87.980469 103.4375 93.207031 L 103.5 93.480469 L 104.269531 103.480469 L 123.230469 103.480469 C 124.5625 103.480469 125.832031 102.9375 126.730469 101.957031 C 127.625 100.980469 128.082031 99.667969 127.980469 98.332031 Z M 127.792969 95.792969 "/>
<path style=" stroke:none;fill-rule:nonzero;fill:rgb(100%,100%,100%);fill-opacity:1;" d="M 91.957031 86.144531 L 77.9375 80.417969 C 75.582031 79.332031 74.082031 77 74.082031 74.417969 L 74.082031 72.355469 C 74.082031 71.375 74.25 70.394531 74.5625 69.480469 C 74.5625 69.480469 83.394531 57.6875 83.394531 46.832031 C 83.394531 33.25 74.707031 24.519531 64 24.519531 C 53.292969 24.519531 44.605469 33.25 44.605469 46.832031 C 44.605469 57.6875 53.4375 69.480469 53.4375 69.480469 C 53.75 70.394531 53.917969 71.375 53.917969 72.355469 L 53.917969 74.417969 C 53.917969 77 52.417969 79.332031 50.0625 80.417969 L 36.019531 86.144531 C 32.769531 87.644531 30.4375 90.644531 29.8125 94.1875 L 29.082031 103.480469 L 98.917969 103.480469 L 98.207031 94.1875 C 97.5625 90.644531 95.230469 87.644531 91.957031 86.144531 Z M 91.957031 86.144531 "/>
</g>
</svg>
