<?xml version="1.0" encoding="UTF-8"?>
<svg xmlns="http://www.w3.org/2000/svg" xmlns:xlink="http://www.w3.org/1999/xlink" width="128px" height="128px" viewBox="0 0 128 128" version="1.1">
<g id="surface1">
<path style=" stroke:none;fill-rule:nonzero;fill:rgb(0%,0%,0%);fill-opacity:1;" d="M 9.3125 0 L 9.3125 119.980469 C 9.3125 122.847656 10.84375 125.496094 13.324219 126.925781 C 15.8125 128.359375 18.867188 128.355469 21.351562 126.921875 L 55.960938 106.871094 C 60.933594 103.992188 67.066406 103.992188 72.039062 106.871094 L 106.652344 126.921875 C 109.132812 128.355469 112.191406 128.359375 114.675781 126.925781 C 117.160156 125.496094 118.6875 122.847656 118.6875 119.980469 L 118.6875 0 Z M 89.953125 52.105469 L 77.417969 62.421875 C 76.9375 62.820312 76.726562 63.460938 76.886719 64.0625 L 80.960938 79.777344 C 81.128906 80.417969 80.886719 81.089844 80.351562 81.480469 C 79.820312 81.867188 79.101562 81.886719 78.546875 81.535156 L 64.863281 72.800781 C 64.335938 72.464844 63.664062 72.464844 63.136719 72.800781 L 49.453125 81.535156 C 48.898438 81.886719 48.179688 81.867188 47.644531 81.480469 C 47.113281 81.09375 46.871094 80.417969 47.035156 79.777344 L 51.113281 64.0625 C 51.273438 63.460938 51.0625 62.820312 50.582031 62.421875 L 38.046875 52.105469 C 37.539062 51.683594 37.335938 50.996094 37.539062 50.371094 C 37.746094 49.742188 38.3125 49.304688 38.96875 49.265625 L 55.171875 48.289062 C 55.796875 48.25 56.339844 47.855469 56.570312 47.273438 L 62.507812 32.164062 C 62.75 31.550781 63.339844 31.148438 64 31.148438 C 64.660156 31.148438 65.25 31.550781 65.492188 32.164062 L 71.429688 47.273438 C 71.65625 47.855469 72.199219 48.25 72.824219 48.289062 L 89.03125 49.265625 C 89.691406 49.304688 90.253906 49.742188 90.460938 50.371094 C 90.664062 50.996094 90.464844 51.683594 89.953125 52.105469 Z M 89.953125 52.105469 "/>
</g>
</svg>
