<?xml version="1.0" encoding="UTF-8"?>
<svg xmlns="http://www.w3.org/2000/svg" xmlns:xlink="http://www.w3.org/1999/xlink" width="128px" height="128px" viewBox="0 0 128 128" version="1.1">
<g id="surface1">
<path style=" stroke:none;fill-rule:nonzero;fill:rgb(0%,0%,0%);fill-opacity:1;" d="M 119.980469 102.355469 L 88.394531 51.894531 C 85.730469 47.644531 84.332031 42.730469 84.332031 37.6875 L 84.375 0.0429688 L 43.875 0 L 43.832031 37.625 C 43.832031 42.667969 42.394531 47.582031 39.730469 51.855469 L 8.019531 102.230469 C 6.332031 104.957031 5.457031 108.042969 5.457031 111.144531 C 5.457031 113.9375 6.144531 116.730469 7.542969 119.25 C 10.5 124.582031 16.105469 127.894531 22.207031 127.917969 L 105.769531 128 C 106 128 106.105469 127.980469 106.105469 127.980469 C 112.082031 127.855469 117.542969 124.605469 120.4375 119.375 L 120.4375 119.355469 C 121.832031 116.832031 122.542969 114.042969 122.542969 111.25 C 122.542969 108.144531 121.6875 105.0625 119.980469 102.355469 Z M 111.894531 114.625 C 110.667969 116.855469 108.3125 118.230469 105.792969 118.230469 C 105.75 118.230469 105.75 118.230469 105.730469 118.230469 L 22.207031 118.144531 C 19.667969 118.125 17.332031 116.75 16.105469 114.519531 C 15.519531 113.457031 15.230469 112.3125 15.230469 111.144531 C 15.230469 109.855469 15.582031 108.5625 16.3125 107.4375 L 48 57.0625 C 51.667969 51.230469 53.605469 44.5 53.605469 37.625 L 53.644531 9.792969 L 74.582031 9.8125 L 74.542969 37.667969 L 74.542969 37.6875 C 74.542969 44.5625 76.480469 51.269531 80.125 57.082031 L 111.707031 107.542969 C 112.417969 108.667969 112.769531 109.957031 112.769531 111.25 C 112.769531 112.417969 112.480469 113.5625 111.894531 114.625 Z M 111.894531 114.625 "/>
<path style=" stroke:none;fill-rule:nonzero;fill:rgb(0%,0%,0%);fill-opacity:1;" d="M 80.917969 72.832031 C 80.542969 72.25 79.917969 71.894531 79.230469 71.894531 L 48.855469 71.855469 C 48.167969 71.855469 47.542969 72.207031 47.167969 72.792969 L 25.375 107.4375 C 25 108.042969 24.980469 108.8125 25.3125 109.4375 C 25.667969 110.082031 26.332031 110.457031 27.042969 110.457031 L 100.957031 110.542969 C 101.667969 110.542969 102.332031 110.167969 102.6875 109.519531 C 103.042969 108.894531 103.019531 108.125 102.625 107.519531 Z M 80.917969 72.832031 "/>
</g>
</svg>
