<?xml version="1.0" encoding="UTF-8"?>
<svg xmlns="http://www.w3.org/2000/svg" xmlns:xlink="http://www.w3.org/1999/xlink" width="128px" height="128px" viewBox="0 0 128 128" version="1.1">
<g id="surface1">
<path style=" stroke:none;fill-rule:nonzero;fill:rgb(0%,0%,0%);fill-opacity:1;" d="M 8 12 C 5.792969 12 4 13.792969 4 16 L 4 96 C 4 98.207031 5.792969 100 8 100 L 120 100 C 122.207031 100 124 98.207031 124 96 L 124 16 C 124 13.792969 122.207031 12 120 12 Z M 64 84 C 66.207031 84 68 85.792969 68 88 C 68 90.207031 66.207031 92 64 92 C 61.792969 92 60 90.207031 60 88 C 60 85.792969 61.792969 84 64 84 Z M 60 104 L 60 108 L 47.605469 108 C 42.269531 108.292969 42.667969 116.292969 48.019531 116.019531 L 80 116.019531 C 85.332031 116.019531 85.332031 108 80 108 L 68 108 L 68 104 Z M 60 104 "/>
</g>
</svg>
