<?xml version="1.0" encoding="UTF-8"?>
<svg xmlns="http://www.w3.org/2000/svg" xmlns:xlink="http://www.w3.org/1999/xlink" width="128px" height="128px" viewBox="0 0 128 128" version="1.1">
<g id="surface1">
<path style=" stroke:none;fill-rule:nonzero;fill:rgb(100%,100%,100%);fill-opacity:1;" d="M 102.886719 23.09375 L 25.113281 23.09375 C 23.996094 23.09375 23.09375 23.996094 23.09375 25.113281 L 23.09375 102.886719 C 23.09375 104.003906 23.996094 104.90625 25.113281 104.90625 L 82.140625 104.90625 C 83.257812 104.90625 84.164062 104.003906 84.164062 102.886719 C 84.164062 101.769531 83.257812 100.867188 82.140625 100.867188 L 27.132812 100.867188 L 27.132812 27.132812 L 100.867188 27.132812 L 100.867188 100.867188 L 89.417969 100.867188 C 88.300781 100.867188 87.394531 101.769531 87.394531 102.886719 C 87.394531 104.003906 88.300781 104.90625 89.417969 104.90625 L 102.886719 104.90625 C 104.003906 104.90625 104.90625 104.003906 104.90625 102.886719 L 104.90625 25.113281 C 104.90625 23.996094 104.003906 23.09375 102.886719 23.09375 Z M 102.886719 23.09375 "/>
<path style=" stroke:none;fill-rule:nonzero;fill:rgb(100%,100%,100%);fill-opacity:1;" d="M 125.980469 73.769531 C 127.09375 73.769531 128 72.867188 128 71.75 C 128 70.632812 127.09375 69.730469 125.980469 69.730469 L 114.339844 69.730469 L 114.339844 58.273438 L 125.980469 58.273438 C 127.09375 58.273438 128 57.367188 128 56.25 C 128 55.132812 127.09375 54.230469 125.980469 54.230469 L 114.339844 54.230469 L 114.339844 42.773438 L 125.976562 42.773438 C 127.09375 42.773438 128 41.867188 128 40.75 C 128 39.632812 127.09375 38.730469 125.976562 38.730469 L 114.339844 38.730469 L 114.339844 27.273438 L 125.976562 27.273438 C 127.09375 27.273438 128 26.367188 128 25.25 C 128 24.136719 127.09375 23.230469 125.976562 23.230469 L 114.335938 23.230469 C 114.3125 17.964844 110.035156 13.6875 104.769531 13.664062 L 104.769531 2.019531 C 104.769531 0.90625 103.863281 0 102.75 0 C 101.632812 0 100.726562 0.90625 100.726562 2.019531 L 100.726562 13.660156 L 89.269531 13.660156 L 89.269531 2.019531 C 89.269531 0.90625 88.367188 0 87.25 0 C 86.132812 0 85.226562 0.90625 85.226562 2.019531 L 85.226562 13.660156 L 73.769531 13.660156 L 73.769531 2.019531 C 73.769531 0.90625 72.867188 0 71.75 0 C 70.632812 0 69.730469 0.90625 69.730469 2.019531 L 69.730469 13.660156 L 58.269531 13.660156 L 58.269531 2.019531 C 58.269531 0.90625 57.367188 0 56.25 0 C 55.132812 0 54.230469 0.90625 54.230469 2.019531 L 54.230469 13.660156 L 42.773438 13.660156 L 42.773438 2.019531 C 42.773438 0.90625 41.867188 0 40.75 0 C 39.632812 0 38.730469 0.90625 38.730469 2.019531 L 38.730469 13.660156 L 27.273438 13.660156 L 27.273438 2.019531 C 27.273438 0.90625 26.367188 0 25.25 0 C 24.132812 0 23.230469 0.90625 23.230469 2.019531 L 23.230469 13.660156 C 17.964844 13.6875 13.6875 17.964844 13.660156 23.230469 L 2.019531 23.230469 C 0.90625 23.230469 0 24.132812 0 25.25 C 0 26.367188 0.90625 27.273438 2.019531 27.273438 L 13.660156 27.273438 L 13.660156 38.730469 L 2.019531 38.730469 C 0.90625 38.730469 0 39.632812 0 40.75 C 0 41.867188 0.90625 42.773438 2.019531 42.773438 L 13.660156 42.773438 L 13.660156 54.230469 L 2.019531 54.230469 C 0.90625 54.230469 0 55.132812 0 56.25 C 0 57.367188 0.90625 58.273438 2.019531 58.273438 L 13.660156 58.273438 L 13.660156 69.730469 L 2.019531 69.730469 C 0.90625 69.730469 0 70.632812 0 71.75 C 0 72.867188 0.90625 73.769531 2.019531 73.769531 L 13.660156 73.769531 L 13.660156 85.226562 L 2.019531 85.226562 C 0.90625 85.226562 0 86.132812 0 87.25 C 0 88.367188 0.90625 89.269531 2.019531 89.269531 L 13.660156 89.269531 L 13.660156 100.726562 L 2.019531 100.726562 C 0.90625 100.726562 0 101.632812 0 102.75 C 0 103.867188 0.90625 104.769531 2.019531 104.769531 L 13.660156 104.769531 C 13.6875 110.035156 17.964844 114.3125 23.230469 114.339844 L 23.230469 125.976562 C 23.230469 127.09375 24.132812 128 25.25 128 C 26.367188 128 27.273438 127.09375 27.273438 125.976562 L 27.273438 114.339844 L 38.730469 114.339844 L 38.730469 125.976562 C 38.730469 127.09375 39.632812 128 40.75 128 C 41.867188 128 42.773438 127.09375 42.773438 125.976562 L 42.773438 114.339844 L 54.230469 114.339844 L 54.230469 125.976562 C 54.230469 127.09375 55.132812 128 56.25 128 C 57.367188 128 58.269531 127.09375 58.269531 125.976562 L 58.269531 114.339844 L 69.730469 114.339844 L 69.730469 125.976562 C 69.730469 127.09375 70.632812 128 71.75 128 C 72.867188 128 73.769531 127.09375 73.769531 125.976562 L 73.769531 114.339844 L 85.226562 114.339844 L 85.226562 125.976562 C 85.226562 127.09375 86.132812 128 87.25 128 C 88.367188 128 89.269531 127.09375 89.269531 125.976562 L 89.269531 114.339844 L 100.726562 114.339844 L 100.726562 125.976562 C 100.726562 127.09375 101.632812 128 102.75 128 C 103.867188 128 104.769531 127.09375 104.769531 125.976562 L 104.769531 114.335938 C 110.035156 114.3125 114.3125 110.035156 114.335938 104.769531 L 125.976562 104.769531 C 127.09375 104.769531 128 103.863281 128 102.75 C 128 101.632812 127.09375 100.726562 125.976562 100.726562 L 114.339844 100.726562 L 114.339844 89.269531 L 125.976562 89.269531 C 127.09375 89.269531 128 88.367188 128 87.25 C 128 86.132812 127.09375 85.226562 125.976562 85.226562 L 114.339844 85.226562 L 114.339844 73.769531 Z M 104.722656 110.296875 L 87.253906 110.296875 C 87.253906 110.296875 87.25 110.296875 87.25 110.296875 C 87.246094 110.296875 87.246094 110.296875 87.246094 110.296875 L 71.753906 110.296875 C 71.753906 110.296875 71.75 110.296875 71.75 110.296875 C 71.75 110.296875 71.746094 110.296875 71.746094 110.296875 L 56.253906 110.296875 C 56.253906 110.296875 56.25 110.296875 56.25 110.296875 C 56.25 110.296875 56.246094 110.296875 56.246094 110.296875 L 40.753906 110.296875 C 40.753906 110.296875 40.753906 110.296875 40.75 110.296875 C 40.75 110.296875 40.746094 110.296875 40.746094 110.296875 L 25.257812 110.296875 C 25.253906 110.296875 25.253906 110.296875 25.25 110.296875 C 25.25 110.296875 25.25 110.296875 25.246094 110.296875 L 23.277344 110.296875 C 20.203125 110.296875 17.703125 107.796875 17.703125 104.722656 L 17.703125 23.277344 C 17.703125 20.203125 20.203125 17.703125 23.277344 17.703125 L 25.246094 17.703125 C 25.246094 17.703125 25.25 17.703125 25.25 17.703125 C 25.253906 17.703125 25.253906 17.703125 25.257812 17.703125 L 40.746094 17.703125 C 40.746094 17.703125 40.75 17.703125 40.75 17.703125 C 40.753906 17.703125 40.753906 17.703125 40.753906 17.703125 L 56.246094 17.703125 C 56.246094 17.703125 56.246094 17.703125 56.25 17.703125 C 56.25 17.703125 56.253906 17.703125 56.253906 17.703125 L 71.742188 17.703125 C 71.746094 17.703125 71.746094 17.703125 71.75 17.703125 C 71.75 17.703125 71.753906 17.703125 71.753906 17.703125 L 87.242188 17.703125 C 87.246094 17.703125 87.246094 17.703125 87.25 17.703125 C 87.25 17.703125 87.253906 17.703125 87.253906 17.703125 L 104.722656 17.703125 C 107.796875 17.703125 110.296875 20.203125 110.296875 23.277344 L 110.296875 104.722656 C 110.296875 107.796875 107.796875 110.296875 104.722656 110.296875 Z M 104.722656 110.296875 "/>
<path style=" stroke:none;fill-rule:nonzero;fill:rgb(100%,100%,100%);fill-opacity:1;" d="M 88.558594 40.703125 C 89.675781 40.703125 90.582031 39.800781 90.582031 38.683594 C 90.582031 37.566406 89.675781 36.664062 88.558594 36.664062 L 87.398438 36.664062 C 86.28125 36.664062 85.375 37.566406 85.375 38.683594 C 85.375 39.800781 86.28125 40.703125 87.398438 40.703125 Z M 88.558594 40.703125 "/>
<path style=" stroke:none;fill-rule:nonzero;fill:rgb(100%,100%,100%);fill-opacity:1;" d="M 80.523438 36.664062 L 39.441406 36.664062 C 38.324219 36.664062 37.417969 37.566406 37.417969 38.683594 C 37.417969 39.800781 38.324219 40.703125 39.441406 40.703125 L 80.523438 40.703125 C 81.640625 40.703125 82.546875 39.800781 82.546875 38.683594 C 82.546875 37.566406 81.640625 36.664062 80.523438 36.664062 Z M 80.523438 36.664062 "/>
<path style=" stroke:none;fill-rule:nonzero;fill:rgb(100%,100%,100%);fill-opacity:1;" d="M 88.558594 58.039062 L 87.398438 58.039062 C 86.28125 58.039062 85.375 58.945312 85.375 60.0625 C 85.375 61.179688 86.28125 62.082031 87.398438 62.082031 L 88.558594 62.082031 C 89.675781 62.082031 90.582031 61.179688 90.582031 60.0625 C 90.582031 58.945312 89.675781 58.039062 88.558594 58.039062 Z M 88.558594 58.039062 "/>
<path style=" stroke:none;fill-rule:nonzero;fill:rgb(100%,100%,100%);fill-opacity:1;" d="M 82.546875 60.0625 C 82.546875 58.945312 81.640625 58.039062 80.523438 58.039062 L 39.441406 58.039062 C 38.324219 58.039062 37.417969 58.945312 37.417969 60.0625 C 37.417969 61.179688 38.324219 62.082031 39.441406 62.082031 L 80.523438 62.082031 C 81.640625 62.082031 82.546875 61.175781 82.546875 60.0625 Z M 82.546875 60.0625 "/>
<path style=" stroke:none;fill-rule:nonzero;fill:rgb(100%,100%,100%);fill-opacity:1;" d="M 39.441406 51.394531 L 40.601562 51.394531 C 41.71875 51.394531 42.625 50.488281 42.625 49.371094 C 42.625 48.257812 41.71875 47.351562 40.601562 47.351562 L 39.441406 47.351562 C 38.324219 47.351562 37.417969 48.257812 37.417969 49.371094 C 37.417969 50.488281 38.324219 51.394531 39.441406 51.394531 Z M 39.441406 51.394531 "/>
<path style=" stroke:none;fill-rule:nonzero;fill:rgb(100%,100%,100%);fill-opacity:1;" d="M 45.453125 49.371094 C 45.453125 50.488281 46.359375 51.394531 47.476562 51.394531 L 88.558594 51.394531 C 89.675781 51.394531 90.582031 50.488281 90.582031 49.371094 C 90.582031 48.257812 89.675781 47.351562 88.558594 47.351562 L 47.476562 47.351562 C 46.359375 47.351562 45.453125 48.257812 45.453125 49.371094 Z M 45.453125 49.371094 "/>
<path style=" stroke:none;fill-rule:nonzero;fill:rgb(100%,100%,100%);fill-opacity:1;" d="M 39.441406 78.660156 C 38.324219 78.660156 37.417969 79.5625 37.417969 80.679688 C 37.417969 81.796875 38.324219 82.703125 39.441406 82.703125 L 40.75 82.703125 C 41.867188 82.703125 42.773438 81.796875 42.773438 80.679688 C 42.773438 79.5625 41.867188 78.660156 40.75 78.660156 Z M 39.441406 78.660156 "/>
<path style=" stroke:none;fill-rule:nonzero;fill:rgb(100%,100%,100%);fill-opacity:1;" d="M 49.152344 78.660156 C 48.039062 78.660156 47.132812 79.5625 47.132812 80.679688 C 47.132812 81.796875 48.039062 82.703125 49.152344 82.703125 L 50.464844 82.703125 C 51.582031 82.703125 52.484375 81.796875 52.484375 80.679688 C 52.484375 79.5625 51.582031 78.660156 50.464844 78.660156 Z M 49.152344 78.660156 "/>
<path style=" stroke:none;fill-rule:nonzero;fill:rgb(100%,100%,100%);fill-opacity:1;" d="M 58.867188 78.660156 C 57.75 78.660156 56.847656 79.5625 56.847656 80.679688 C 56.847656 81.796875 57.75 82.703125 58.867188 82.703125 L 60.179688 82.703125 C 61.296875 82.703125 62.199219 81.796875 62.199219 80.679688 C 62.199219 79.5625 61.296875 78.660156 60.179688 78.660156 Z M 58.867188 78.660156 "/>
<path style=" stroke:none;fill-rule:nonzero;fill:rgb(100%,100%,100%);fill-opacity:1;" d="M 90.582031 86.082031 L 90.582031 75.277344 C 90.582031 72.378906 88.222656 70.023438 85.328125 70.023438 L 74.519531 70.023438 C 71.625 70.023438 69.265625 72.378906 69.265625 75.277344 L 69.265625 86.082031 C 69.265625 88.980469 71.625 91.335938 74.519531 91.335938 L 85.328125 91.335938 C 88.222656 91.335938 90.582031 88.980469 90.582031 86.082031 Z M 86.539062 86.082031 C 86.539062 86.75 85.996094 87.296875 85.328125 87.296875 L 74.519531 87.296875 C 73.851562 87.296875 73.308594 86.75 73.308594 86.082031 L 73.308594 75.277344 C 73.308594 74.609375 73.851562 74.066406 74.519531 74.066406 L 85.328125 74.066406 C 85.996094 74.066406 86.539062 74.609375 86.539062 75.277344 Z M 86.539062 86.082031 "/>
</g>
</svg>
