<?xml version="1.0" encoding="UTF-8"?>
<svg xmlns="http://www.w3.org/2000/svg" xmlns:xlink="http://www.w3.org/1999/xlink" width="128px" height="128px" viewBox="0 0 128 128" version="1.1">
<g id="surface1">
<path style=" stroke:none;fill-rule:nonzero;fill:rgb(0%,0%,0%);fill-opacity:1;" d="M 98.980469 40.792969 C 98.667969 39.75 98.207031 38.832031 97.605469 38.042969 C 97 37.25 96.25 36.625 95.375 36.167969 C 94.480469 35.707031 93.480469 35.480469 92.355469 35.480469 C 90.3125 35.480469 88.792969 36.0625 87.769531 37.269531 C 86.769531 38.457031 86.167969 40.144531 85.957031 42.332031 L 85.644531 46.042969 C 85.519531 47.167969 85.230469 47.957031 84.769531 48.4375 C 84.3125 48.894531 83.6875 49.144531 82.894531 49.144531 C 81.792969 49.144531 81 48.667969 80.480469 47.707031 C 79.957031 46.75 79.6875 45.542969 79.6875 44.0625 C 79.6875 42.917969 79.855469 41.75 80.1875 40.582031 C 80.5 39.394531 81.832031 37.855469 81.832031 37.855469 C 82 37.582031 81.957031 37.25 81.75 37.019531 L 79.667969 34.957031 C 79.519531 34.8125 79.3125 34.730469 79.105469 34.75 C 78.894531 34.792969 78.707031 34.917969 78.605469 35.082031 C 78.605469 35.082031 76.832031 37.207031 76.394531 38.8125 C 76.105469 39.875 75.917969 41 75.8125 42.167969 L 72.4375 42.167969 L 72.4375 46.292969 L 75.875 46.292969 C 75.957031 46.855469 76.042969 47.375 76.1875 47.917969 C 76.480469 49.082031 76.957031 50.105469 77.582031 50.957031 C 78.207031 51.8125 78.957031 52.480469 79.875 52.980469 C 80.792969 53.457031 81.855469 53.707031 83.082031 53.707031 C 85.125 53.707031 86.667969 53.082031 87.75 51.855469 C 88.8125 50.625 89.4375 48.8125 89.667969 46.394531 L 89.9375 43.167969 C 90.042969 42 90.332031 41.167969 90.75 40.6875 C 91.1875 40.207031 91.792969 39.957031 92.582031 39.957031 C 93.457031 39.957031 94.167969 40.292969 94.730469 40.980469 C 95.269531 41.667969 95.542969 42.730469 95.542969 44.167969 C 95.542969 45.25 95.417969 46.292969 95.167969 47.292969 C 94.894531 48.292969 94.082031 49.417969 94.082031 49.417969 C 93.9375 49.6875 94 50 94.207031 50.207031 L 96.1875 52.144531 C 96.332031 52.3125 96.542969 52.375 96.75 52.332031 C 96.980469 52.3125 97.144531 52.1875 97.25 51.980469 C 97.25 51.980469 98.4375 50.480469 98.832031 49.019531 C 99.0625 48.167969 99.230469 47.25 99.3125 46.292969 L 102.230469 46.292969 L 102.230469 42.167969 L 99.25 42.167969 C 99.1875 41.707031 99.105469 41.25 98.980469 40.792969 Z M 98.980469 40.792969 "/>
<path style=" stroke:none;fill-rule:nonzero;fill:rgb(0%,0%,0%);fill-opacity:1;" d="M 115.582031 61.457031 C 115 61.457031 113.730469 61.457031 112 61.457031 C 112.144531 55.292969 113.082031 46.9375 114.667969 38.375 C 116.375 29 118.855469 19.332031 121.6875 12 L 121.667969 12 C 121.894531 11.4375 122.0625 10.832031 122.0625 10.1875 C 122.0625 9.207031 121.75 8.3125 121.332031 7.667969 C 120.5625 6.417969 119.644531 5.8125 118.730469 5.230469 C 117.082031 4.292969 115.1875 3.625 112.894531 3 C 109.480469 2.082031 105.3125 1.355469 100.8125 0.8125 C 96.332031 0.292969 91.5625 0 87.019531 0 C 79.667969 0 71.644531 0.792969 65.292969 2.042969 C 62.082031 2.6875 59.332031 3.417969 57.105469 4.355469 C 55.980469 4.832031 55 5.355469 54.0625 6.125 C 53.582031 6.519531 53.125 7 52.707031 7.667969 C 52.3125 8.3125 51.980469 9.207031 52 10.1875 C 51.980469 10.832031 52.144531 11.457031 52.394531 12.019531 L 52.375 12.019531 C 55.167969 19.105469 57.644531 28.769531 59.355469 38.207031 C 60.0625 41.957031 60.625 45.6875 61.0625 49.207031 C 51.125 51.980469 46.042969 67.730469 35.730469 67.730469 L 35.730469 112.917969 C 45.605469 112.917969 71.792969 123.894531 79.707031 125.480469 C 88.6875 127.292969 100.417969 131.25 106.644531 122.792969 C 110.480469 117.582031 116.5 97.355469 121 83 C 132.457031 72 124.5625 61.457031 115.582031 61.457031 Z M 107.542969 37.0625 C 105.917969 46.019531 104.917969 54.6875 104.75 61.457031 C 92.667969 61.457031 74.4375 61.457031 69.292969 61.457031 C 69.125 54.644531 68.125 45.894531 66.480469 36.894531 C 65.417969 31.125 64.105469 25.292969 62.5625 19.875 L 63.105469 20.605469 C 71.105469 17.5 72.519531 12.3125 72.542969 8.207031 C 77.1875 7.605469 82.3125 7.230469 87.019531 7.230469 C 91.832031 7.230469 97.0625 7.605469 101.769531 8.230469 C 101.875 12.269531 103.480469 17.207031 111.1875 20.1875 L 111.542969 19.707031 C 109.980469 25.269531 108.625 31.207031 107.542969 37.0625 Z M 107.542969 37.0625 "/>
<path style=" stroke:none;fill-rule:nonzero;fill:rgb(0%,0%,0%);fill-opacity:1;" d="M 1.292969 76.519531 L 1.292969 115.792969 C 1.292969 120.667969 5.230469 124.582031 10.082031 124.582031 L 20.5625 124.582031 C 23.8125 124.582031 26.4375 121.957031 26.4375 118.730469 L 26.4375 67.730469 L 10.082031 67.730469 C 5.230469 67.730469 1.292969 71.667969 1.292969 76.519531 Z M 1.292969 76.519531 "/>
</g>
</svg>
