<?xml version="1.0" encoding="UTF-8"?>
<svg xmlns="http://www.w3.org/2000/svg" xmlns:xlink="http://www.w3.org/1999/xlink" width="128px" height="128px" viewBox="0 0 128 128" version="1.1">
<g id="surface1">
<path style=" stroke:none;fill-rule:evenodd;fill:rgb(100%,100%,100%);fill-opacity:1;" d="M 115.207031 88.375 L 102.394531 88.375 C 95.332031 88.375 89.605469 93.832031 89.605469 100.5625 L 89.605469 112.769531 C 89.605469 119.5 95.332031 124.957031 102.394531 124.957031 L 115.207031 124.957031 C 122.269531 124.957031 128 119.5 128 112.769531 L 128 100.5625 C 128 93.832031 122.269531 88.375 115.207031 88.375 M 70.394531 88.375 L 57.605469 88.375 C 50.519531 88.375 44.792969 93.832031 44.792969 100.5625 L 44.792969 112.769531 C 44.792969 119.5 50.519531 124.957031 57.605469 124.957031 L 70.394531 124.957031 C 77.480469 124.957031 83.207031 119.5 83.207031 112.769531 L 83.207031 100.5625 C 83.207031 93.832031 77.480469 88.375 70.394531 88.375 M 25.605469 88.375 L 12.792969 88.375 C 5.730469 88.375 0 93.832031 0 100.5625 L 0 112.769531 C 0 119.5 5.730469 124.957031 12.792969 124.957031 L 25.605469 124.957031 C 32.667969 124.957031 38.394531 119.5 38.394531 112.769531 L 38.394531 100.5625 C 38.394531 93.832031 32.667969 88.375 25.605469 88.375 M 115.207031 45.707031 L 102.394531 45.707031 C 95.332031 45.707031 89.605469 51.167969 89.605469 57.894531 L 89.605469 70.105469 C 89.605469 76.832031 95.332031 82.292969 102.394531 82.292969 L 115.207031 82.292969 C 122.269531 82.292969 128 76.832031 128 70.105469 L 128 57.894531 C 128 51.167969 122.269531 45.707031 115.207031 45.707031 M 70.394531 45.707031 L 57.605469 45.707031 C 50.519531 45.707031 44.792969 51.167969 44.792969 57.894531 L 44.792969 70.105469 C 44.792969 76.832031 50.519531 82.292969 57.605469 82.292969 L 70.394531 82.292969 C 77.480469 82.292969 83.207031 76.832031 83.207031 70.105469 L 83.207031 57.894531 C 83.207031 51.167969 77.480469 45.707031 70.394531 45.707031 M 25.605469 45.707031 L 12.792969 45.707031 C 5.730469 45.707031 0 51.167969 0 57.894531 L 0 70.105469 C 0 76.832031 5.730469 82.292969 12.792969 82.292969 L 25.605469 82.292969 C 32.667969 82.292969 38.394531 76.832031 38.394531 70.105469 L 38.394531 57.894531 C 38.394531 51.167969 32.667969 45.707031 25.605469 45.707031 M 115.207031 3.042969 L 102.394531 3.042969 C 95.332031 3.042969 89.605469 8.5 89.605469 15.230469 L 89.605469 27.4375 C 89.605469 34.167969 95.332031 39.625 102.394531 39.625 L 115.207031 39.625 C 122.269531 39.625 128 34.167969 128 27.4375 L 128 15.230469 C 128 8.5 122.269531 3.042969 115.207031 3.042969 M 70.394531 3.042969 L 57.605469 3.042969 C 50.519531 3.042969 44.792969 8.5 44.792969 15.230469 L 44.792969 27.4375 C 44.792969 34.167969 50.519531 39.625 57.605469 39.625 L 70.394531 39.625 C 77.480469 39.625 83.207031 34.167969 83.207031 27.4375 L 83.207031 15.230469 C 83.207031 8.5 77.480469 3.042969 70.394531 3.042969 M 38.394531 15.230469 L 38.394531 27.4375 C 38.394531 34.167969 32.667969 39.625 25.605469 39.625 L 12.792969 39.625 C 5.730469 39.625 0 34.167969 0 27.4375 L 0 15.230469 C 0 8.5 5.730469 3.042969 12.792969 3.042969 L 25.605469 3.042969 C 32.667969 3.042969 38.394531 8.5 38.394531 15.230469 "/>
</g>
</svg>
