<?xml version="1.0" encoding="UTF-8"?>
<svg xmlns="http://www.w3.org/2000/svg" xmlns:xlink="http://www.w3.org/1999/xlink" width="128px" height="128px" viewBox="0 0 128 128" version="1.1">
<g id="surface1">
<path style=" stroke:none;fill-rule:nonzero;fill:rgb(100%,100%,100%);fill-opacity:1;" d="M 86.429688 28.070312 C 86.125 27.765625 85.75 27.542969 85.34375 27.414062 L 60.902344 19.742188 C 51.128906 16.671875 44.769531 22.027344 43.054688 23.746094 C 42.054688 24.746094 41.292969 25.796875 40.898438 26.714844 L 30.011719 52.328125 C 29.386719 53.792969 29.601562 55.746094 30.578125 57.691406 C 31.976562 60.472656 34.5 62.476562 37.515625 63.199219 C 40.886719 64.007812 44.386719 62.910156 47.128906 60.171875 C 47.84375 59.457031 48.453125 58.667969 48.8125 57.996094 L 52.472656 51.207031 C 53.074219 50.082031 53.949219 48.917969 54.871094 47.996094 C 58.011719 44.851562 59.503906 46.292969 60.136719 46.902344 C 65.613281 52.1875 94.324219 81.023438 94.324219 81.023438 C 95.347656 82.042969 95.132812 83.980469 93.855469 85.253906 C 92.582031 86.527344 90.644531 86.742188 89.625 85.726562 L 81.558594 77.664062 C 80.519531 76.621094 78.839844 76.621094 77.800781 77.664062 C 76.761719 78.695312 76.761719 80.382812 77.800781 81.417969 L 85.867188 89.488281 C 86.886719 90.503906 86.671875 92.441406 85.398438 93.714844 C 84.125 94.992188 82.183594 95.203125 81.167969 94.1875 L 73.101562 86.125 C 72.058594 85.082031 70.375 85.082031 69.34375 86.125 C 68.300781 87.15625 68.300781 88.839844 69.34375 89.882812 L 77.410156 97.949219 C 78.425781 98.964844 78.207031 100.902344 76.933594 102.175781 C 75.664062 103.449219 73.726562 103.667969 72.707031 102.644531 L 64.636719 94.582031 C 63.605469 93.542969 61.917969 93.542969 60.878906 94.582031 C 59.84375 95.621094 59.84375 97.304688 60.878906 98.335938 L 68.945312 106.40625 C 69.96875 107.429688 69.75 109.363281 68.480469 110.636719 C 67.199219 111.914062 65.261719 112.128906 64.246094 111.109375 L 54.425781 101.28125 C 55.828125 99.171875 55.449219 96.113281 53.367188 94.027344 C 51.035156 91.699219 47.449219 91.484375 45.375 93.5625 C 47.449219 91.484375 47.246094 87.902344 44.90625 85.570312 C 42.570312 83.238281 38.992188 83.023438 36.917969 85.097656 C 38.992188 83.023438 38.78125 79.445312 36.445312 77.113281 C 34.113281 74.777344 30.535156 74.566406 28.453125 76.640625 C 30.535156 74.566406 30.320312 70.988281 27.984375 68.648438 C 25.800781 66.464844 22.546875 66.167969 20.429688 67.832031 L 4.527344 51.929688 C 3.492188 50.886719 1.804688 50.886719 0.769531 51.929688 C -0.265625 52.964844 -0.265625 54.648438 0.769531 55.691406 L 16.628906 71.546875 L 11.925781 76.25 C 9.851562 78.324219 10.058594 81.902344 12.398438 84.242188 C 14.730469 86.574219 18.308594 86.789062 20.386719 84.710938 C 18.308594 86.789062 18.519531 90.363281 20.859375 92.699219 C 23.1875 95.027344 26.769531 95.25 28.847656 93.171875 C 26.769531 95.25 26.980469 98.824219 29.316406 101.160156 C 31.652344 103.496094 35.230469 103.707031 37.308594 101.632812 C 35.230469 103.703125 35.441406 107.28125 37.777344 109.621094 C 40.113281 111.953125 43.6875 112.167969 45.769531 110.089844 L 50.734375 105.125 L 60.488281 114.875 C 63.601562 117.984375 68.867188 117.769531 72.238281 114.402344 C 73.878906 112.761719 74.753906 110.664062 74.878906 108.589844 C 76.953125 108.464844 79.054688 107.585938 80.691406 105.941406 C 82.335938 104.296875 83.21875 102.203125 83.34375 100.125 C 85.417969 100.003906 87.507812 99.128906 89.160156 97.480469 C 90.800781 95.835938 91.679688 93.742188 91.800781 91.664062 C 93.878906 91.546875 95.976562 90.667969 97.621094 89.019531 C 100.988281 85.652344 101.195312 80.378906 98.089844 77.273438 L 93.976562 73.15625 L 110.863281 56.273438 C 111.898438 55.242188 111.898438 53.554688 110.863281 52.515625 Z M 86.429688 28.070312 "/>
<path style=" stroke:none;fill-rule:nonzero;fill:rgb(100%,100%,100%);fill-opacity:1;" d="M 126.445312 34.011719 L 104.929688 12.496094 C 102.851562 10.417969 99.484375 10.417969 97.40625 12.496094 L 89.882812 20.011719 C 87.808594 22.085938 87.808594 25.457031 89.882812 27.53125 L 111.402344 49.054688 C 113.480469 51.128906 116.851562 51.128906 118.925781 49.054688 L 126.445312 41.535156 C 128.515625 39.457031 128.515625 36.085938 126.445312 34.011719 Z M 115.152344 44.96875 C 112.742188 44.96875 110.789062 43.019531 110.789062 40.609375 C 110.789062 38.199219 112.742188 36.242188 115.152344 36.242188 C 117.5625 36.242188 119.515625 38.195312 119.515625 40.609375 C 119.515625 43.015625 117.5625 44.96875 115.152344 44.96875 Z M 115.152344 44.96875 "/>
</g>
</svg>
