<?xml version="1.0" encoding="UTF-8"?>
<svg xmlns="http://www.w3.org/2000/svg" xmlns:xlink="http://www.w3.org/1999/xlink" width="128px" height="128px" viewBox="0 0 128 128" version="1.1">
<g id="surface1">
<path style="fill:none;stroke-width:2;stroke-linecap:butt;stroke-linejoin:round;stroke:rgb(100%,100%,100%);stroke-opacity:1;stroke-miterlimit:4;" d="M 4.999512 1.000488 L 43.000488 1.000488 C 45.209473 1.000488 46.999512 2.790527 46.999512 4.999512 L 46.999512 43.000488 C 46.999512 45.209473 45.209473 46.999512 43.000488 46.999512 L 4.999512 46.999512 C 2.790527 46.999512 1.000488 45.209473 1.000488 43.000488 L 1.000488 4.999512 C 1.000488 2.790527 2.790527 1.000488 4.999512 1.000488 Z M 4.999512 1.000488 " transform="matrix(-2.666667,0.000000000000000327,-0.000000000000000327,-2.666667,128,128)"/>
<path style="fill:none;stroke-width:2;stroke-linecap:round;stroke-linejoin:round;stroke:rgb(100%,100%,100%);stroke-opacity:1;stroke-miterlimit:4;" d="M 4.000488 22.000488 L 10.999512 22.000488 L 10.999512 43.999512 L 4.000488 43.999512 Z M 4.000488 22.000488 " transform="matrix(2.666667,0,0,2.666667,0,0)"/>
<path style="fill:none;stroke-width:2;stroke-linecap:round;stroke-linejoin:round;stroke:rgb(100%,100%,100%);stroke-opacity:1;stroke-miterlimit:4;" d="M 15 28.000488 L 22.000488 28.000488 L 22.000488 43.999512 L 15 43.999512 Z M 15 28.000488 " transform="matrix(2.666667,0,0,2.666667,0,0)"/>
<path style="fill:none;stroke-width:2;stroke-linecap:round;stroke-linejoin:round;stroke:rgb(100%,100%,100%);stroke-opacity:1;stroke-miterlimit:4;" d="M 25.999512 19.000488 L 33 19.000488 L 33 43.999512 L 25.999512 43.999512 Z M 25.999512 19.000488 " transform="matrix(2.666667,0,0,2.666667,0,0)"/>
<path style="fill:none;stroke-width:2;stroke-linecap:round;stroke-linejoin:round;stroke:rgb(100%,100%,100%);stroke-opacity:1;stroke-miterlimit:4;" d="M 37.000488 22.999512 L 43.999512 22.999512 L 43.999512 43.999512 L 37.000488 43.999512 Z M 37.000488 22.999512 " transform="matrix(2.666667,0,0,2.666667,0,0)"/>
<path style="fill:none;stroke-width:2;stroke-linecap:round;stroke-linejoin:round;stroke:rgb(100%,100%,100%);stroke-opacity:1;stroke-miterlimit:4;" d="M 9 13.999512 C 9 12.89502 8.10498 12 7.000488 12 C 5.895996 12 4.999512 12.89502 4.999512 13.999512 C 4.999512 15.104004 5.895996 16.000488 7.000488 16.000488 C 8.10498 16.000488 9 15.104004 9 13.999512 Z M 9 13.999512 " transform="matrix(2.666667,0,0,2.666667,0,0)"/>
<path style="fill:none;stroke-width:2;stroke-linecap:round;stroke-linejoin:round;stroke:rgb(100%,100%,100%);stroke-opacity:1;stroke-miterlimit:4;" d="M 21 19.999512 C 21 18.89502 20.10498 18 19.000488 18 C 17.895996 18 16.999512 18.89502 16.999512 19.999512 C 16.999512 21.104004 17.895996 22.000488 19.000488 22.000488 C 20.10498 22.000488 21 21.104004 21 19.999512 Z M 21 19.999512 " transform="matrix(2.666667,0,0,2.666667,0,0)"/>
<path style="fill:none;stroke-width:2;stroke-linecap:round;stroke-linejoin:round;stroke:rgb(100%,100%,100%);stroke-opacity:1;stroke-miterlimit:4;" d="M 31.999512 10.999512 C 31.999512 9.89502 31.104492 9 30 9 C 28.895508 9 28.000488 9.89502 28.000488 10.999512 C 28.000488 12.104004 28.895508 13.000488 30 13.000488 C 31.104492 13.000488 31.999512 12.104004 31.999512 10.999512 Z M 31.999512 10.999512 " transform="matrix(2.666667,0,0,2.666667,0,0)"/>
<path style="fill:none;stroke-width:2;stroke-linecap:round;stroke-linejoin:round;stroke:rgb(100%,100%,100%);stroke-opacity:1;stroke-miterlimit:4;" d="M 43.000488 15 C 43.000488 13.895508 42.104004 13.000488 40.999512 13.000488 C 39.89502 13.000488 39 13.895508 39 15 C 39 16.104492 39.89502 16.999512 40.999512 16.999512 C 42.104004 16.999512 43.000488 16.104492 43.000488 15 Z M 43.000488 15 " transform="matrix(2.666667,0,0,2.666667,0,0)"/>
<path style="fill:none;stroke-width:2;stroke-linecap:round;stroke-linejoin:round;stroke:rgb(100%,100%,100%);stroke-opacity:1;stroke-miterlimit:4;" d="M 9 15 L 16.999512 19.000488 " transform="matrix(2.666667,0,0,2.666667,0,0)"/>
<path style="fill:none;stroke-width:2;stroke-linecap:round;stroke-linejoin:round;stroke:rgb(100%,100%,100%);stroke-opacity:1;stroke-miterlimit:4;" d="M 21 19.000488 L 28.000488 12 " transform="matrix(2.666667,0,0,2.666667,0,0)"/>
<path style="fill:none;stroke-width:2;stroke-linecap:round;stroke-linejoin:round;stroke:rgb(100%,100%,100%);stroke-opacity:1;stroke-miterlimit:4;" d="M 31.999512 12 L 39 13.999512 " transform="matrix(2.666667,0,0,2.666667,0,0)"/>
</g>
</svg>
