<?xml version="1.0" encoding="UTF-8"?>
<svg xmlns="http://www.w3.org/2000/svg" xmlns:xlink="http://www.w3.org/1999/xlink" width="128px" height="128px" viewBox="0 0 128 128" version="1.1">
<g id="surface1">
<path style=" stroke:none;fill-rule:nonzero;fill:rgb(13.725491%,12.156863%,12.54902%);fill-opacity:1;" d="M 127.792969 48.5625 C 127.3125 47.125 126.082031 46.105469 124.605469 45.875 L 85.25 39.855469 L 67.625 2.292969 C 66.957031 0.894531 65.542969 0 64 0 C 62.4375 0 61.042969 0.894531 60.375 2.292969 L 42.75 39.855469 L 3.394531 45.875 C 1.917969 46.105469 0.6875 47.125 0.207031 48.5625 C -0.269531 49.980469 0.0820312 51.542969 1.144531 52.625 L 29.730469 81.9375 L 22.957031 123.332031 C 22.730469 124.855469 23.355469 126.375 24.605469 127.25 C 25.292969 127.75 26.105469 127.980469 26.917969 127.980469 C 27.582031 127.980469 28.25 127.8125 28.855469 127.480469 L 64 108.042969 L 99.144531 127.480469 C 99.75 127.8125 100.417969 127.980469 101.082031 127.980469 C 101.875 127.980469 102.6875 127.75 103.375 127.25 C 104.625 126.375 105.269531 124.855469 105.019531 123.332031 L 98.269531 81.9375 L 126.855469 52.625 C 127.894531 51.542969 128.269531 49.980469 127.792969 48.5625 Z M 127.792969 48.5625 "/>
</g>
</svg>
