<?xml version="1.0" encoding="UTF-8"?>
<svg xmlns="http://www.w3.org/2000/svg" xmlns:xlink="http://www.w3.org/1999/xlink" width="128px" height="128px" viewBox="0 0 128 128" version="1.1">
<g id="surface1">
<path style=" stroke:none;fill-rule:nonzero;fill:rgb(0%,0%,0%);fill-opacity:1;" d="M 114.5 48.4375 C 116.4375 43.1875 117 38.167969 115.605469 33.6875 C 114.957031 33.730469 114.292969 33.769531 113.605469 33.769531 C 93.125 33.769531 56.917969 8.019531 54.1875 4 C 42.894531 20.4375 19.230469 33.082031 8.519531 47.269531 C 4.207031 53 2.042969 57.269531 6.355469 63.832031 L 51.4375 121.792969 C 53.480469 124.542969 57.457031 124.769531 60.292969 122.230469 C 60.292969 122.230469 97.292969 74.769531 124 60.082031 C 122 56.167969 118.644531 52.25 114.5 48.4375 M 50.644531 109.5 L 50.457031 109.644531 L 50.292969 109.792969 C 49.605469 110.394531 49 111.105469 48.480469 111.875 L 9.394531 61.667969 C 6.582031 57.3125 7.375 55.019531 11.519531 49.519531 C 16.230469 43.292969 23.730469 37.25 31.6875 30.855469 C 39.9375 24.207031 48.457031 17.355469 54.707031 9.5625 C 65.019531 18.0625 93.894531 36.8125 112.5625 37.5 C 114.8125 59.5 69.207031 96.5625 50.644531 109.5 "/>
<path style=" stroke:none;fill-rule:nonzero;fill:rgb(0%,0%,0%);fill-opacity:1;" d="M 39.980469 28.3125 L 90.394531 67.8125 L 92.1875 66.207031 L 41.292969 27.144531 Z M 39.980469 28.3125 "/>
<path style=" stroke:none;fill-rule:nonzero;fill:rgb(0%,0%,0%);fill-opacity:1;" d="M 56.417969 49.332031 L 35.792969 32.082031 C 35.792969 32.082031 28.605469 36.667969 19.894531 46.707031 L 38.207031 65.644531 L 56.417969 49.332031 "/>
<path style=" stroke:none;fill-rule:nonzero;fill:rgb(0%,0%,0%);fill-opacity:1;" d="M 11.207031 56.125 L 50.144531 103.832031 L 57.332031 97.417969 L 15.832031 49.9375 C 15.832031 49.9375 12.207031 51.894531 11.207031 56.125 "/>
<path style=" stroke:none;fill-rule:nonzero;fill:rgb(0%,0%,0%);fill-opacity:1;" d="M 54.832031 58.855469 L 77.457031 79.394531 L 84.644531 72.957031 L 61.105469 53.25 Z M 54.832031 58.855469 "/>
<path style=" stroke:none;fill-rule:nonzero;fill:rgb(0%,0%,0%);fill-opacity:1;" d="M 42.332031 70.0625 L 63.082031 92.269531 L 70.269531 85.832031 L 48.582031 64.457031 Z M 42.332031 70.0625 "/>
<path style=" stroke:none;fill-rule:nonzero;fill:rgb(0%,0%,0%);fill-opacity:1;" d="M 55.707031 21.519531 L 52.667969 30.082031 L 54.582031 31.457031 L 64.292969 22.769531 L 62.394531 21.582031 L 55.6875 27.5625 L 58.644531 19.230469 L 56.667969 17.957031 L 47.417969 26.25 L 49.082031 27.457031 Z M 55.707031 21.519531 "/>
<path style=" stroke:none;fill-rule:nonzero;fill:rgb(0%,0%,0%);fill-opacity:1;" d="M 64.019531 38.355469 L 65.875 36.6875 L 60.230469 32.6875 L 62.792969 30.394531 L 67.8125 33.832031 L 69.582031 32.230469 L 64.519531 28.832031 L 66.625 26.9375 L 72.25 30.582031 L 74.0625 28.957031 L 66.3125 24.042969 L 56.457031 32.855469 Z M 64.019531 38.355469 "/>
<path style=" stroke:none;fill-rule:nonzero;fill:rgb(0%,0%,0%);fill-opacity:1;" d="M 70.042969 42.75 L 77.730469 38.082031 L 80.230469 36.5 L 78.5625 38.644531 L 73.625 45.355469 L 76.019531 47.105469 L 90.792969 39.5 L 87.980469 37.730469 L 79.875 42.355469 L 77.8125 43.625 L 79.207031 41.792969 L 84 35.207031 L 81.3125 33.519531 L 73.8125 38.167969 L 71.832031 39.417969 L 73.207031 37.667969 L 77.730469 31.25 L 75.207031 29.667969 L 67.875 41.167969 Z M 70.042969 42.75 "/>
<path style=" stroke:none;fill-rule:nonzero;fill:rgb(0%,0%,0%);fill-opacity:1;" d="M 97.8125 43.417969 C 96 42.269531 94.292969 41.730469 92.707031 41.75 C 91.125 41.792969 89.832031 42.269531 88.832031 43.167969 C 87.707031 44.167969 87.332031 45.207031 87.707031 46.292969 C 87.917969 46.9375 88.605469 47.875 89.769531 49.105469 L 91 50.375 C 91.707031 51.125 92.1875 51.75 92.375 52.230469 C 92.582031 52.707031 92.480469 53.125 92.082031 53.457031 C 91.417969 54.0625 90.542969 54.1875 89.457031 53.8125 C 88.792969 53.5625 88.167969 53.207031 87.582031 52.792969 C 86.4375 51.980469 85.894531 51.1875 85.894531 50.4375 C 85.917969 50.019531 86.144531 49.5625 86.582031 49.019531 L 83.957031 47.1875 C 82.769531 48.25 82.332031 49.4375 82.625 50.75 C 82.917969 52.0625 83.9375 53.375 85.707031 54.644531 C 87.457031 55.9375 89.207031 56.625 90.917969 56.707031 C 92.644531 56.769531 94.082031 56.3125 95.167969 55.332031 C 96.25 54.375 96.644531 53.332031 96.332031 52.230469 C 96.144531 51.519531 95.582031 50.707031 94.707031 49.769531 L 92.707031 47.667969 C 91.957031 46.875 91.5 46.3125 91.355469 46 C 91.105469 45.519531 91.1875 45.105469 91.605469 44.75 C 92.0625 44.332031 92.625 44.167969 93.332031 44.25 C 94.042969 44.3125 94.792969 44.605469 95.5625 45.105469 C 96.269531 45.5625 96.769531 46.019531 97.042969 46.519531 C 97.480469 47.25 97.355469 47.957031 96.707031 48.625 L 99.644531 50.582031 C 100.875 49.394531 101.269531 48.144531 100.8125 46.832031 C 100.355469 45.519531 99.355469 44.375 97.8125 43.417969 "/>
</g>
</svg>
