<?xml version="1.0" encoding="UTF-8"?>
<svg xmlns="http://www.w3.org/2000/svg" xmlns:xlink="http://www.w3.org/1999/xlink" width="128px" height="128px" viewBox="0 0 128 128" version="1.1">
<g id="surface1">
<path style=" stroke:none;fill-rule:nonzero;fill:rgb(100%,100%,100%);fill-opacity:1;" d="M 117.800781 57.765625 L 67.898438 8.429688 L 67.910156 8.453125 C 62.289062 2.816406 54.875 -0.0117188 47.5 0 C 40.132812 -0.0117188 32.722656 2.816406 27.097656 8.453125 C 21.460938 14.078125 18.632812 21.476562 18.644531 28.855469 C 18.632812 36.230469 21.460938 43.644531 27.097656 49.269531 L 38.871094 60.917969 C 38.519531 60.90625 38.164062 60.90625 37.808594 60.90625 C 28.148438 60.90625 19.375 63.335938 12.8125 67.449219 C 9.535156 69.507812 6.796875 71.996094 4.851562 74.894531 C 2.894531 77.78125 1.746094 81.101562 1.746094 84.609375 L 1.746094 104.289062 C 1.746094 107.792969 2.894531 111.113281 4.851562 114 C 7.785156 118.34375 12.445312 121.789062 18.128906 124.210938 C 23.820312 126.625 30.566406 127.988281 37.808594 128 C 47.453125 127.988281 56.226562 125.558594 62.789062 121.445312 C 66.078125 119.398438 68.804688 116.898438 70.761719 114.003906 C 72.710938 111.113281 73.855469 107.792969 73.855469 104.289062 L 73.855469 95.5 L 76.996094 98.609375 L 76.984375 98.582031 C 82.609375 104.21875 90.019531 107.050781 97.398438 107.039062 C 104.761719 107.050781 112.175781 104.21875 117.800781 98.59375 C 123.433594 92.957031 126.253906 85.558594 126.253906 78.179688 C 126.253906 70.804688 123.433594 63.402344 117.800781 57.765625 Z M 35.367188 37.171875 C 30.589844 32.382812 30.589844 24.515625 35.4375 19.667969 C 37.773438 17.332031 40.886719 16.039062 44.210938 16.039062 Z M 7.472656 84.609375 C 7.484375 82.351562 8.183594 80.199219 9.59375 78.089844 C 10.832031 76.246094 12.652344 74.480469 14.929688 72.914062 L 58.757812 98.5625 C 57.761719 99.109375 56.710938 99.625 55.597656 100.09375 C 50.570312 102.238281 44.429688 103.496094 37.808594 103.496094 C 28.964844 103.507812 20.992188 101.242188 15.367188 97.699219 C 12.550781 95.925781 10.328125 93.851562 8.839844 91.628906 C 8.285156 90.804688 7.828125 89.96875 7.472656 89.109375 Z M 68.128906 104.289062 C 68.128906 106.542969 67.417969 108.699219 66.011719 110.804688 C 63.902344 113.945312 60.15625 116.851562 55.242188 118.941406 C 50.339844 121.023438 44.3125 122.273438 37.808594 122.273438 C 29.125 122.273438 21.300781 120.039062 15.859375 116.601562 C 13.132812 114.894531 11.003906 112.890625 9.59375 110.804688 C 8.183594 108.699219 7.484375 106.542969 7.472656 104.289062 L 7.472656 96.167969 C 10.246094 99.234375 14.027344 101.789062 18.484375 103.679688 C 24.050781 106.042969 30.683594 107.394531 37.808594 107.394531 C 47.304688 107.394531 55.917969 104.996094 62.308594 100.988281 C 64.554688 99.589844 66.515625 97.976562 68.128906 96.175781 Z M 68.128906 89.109375 C 68.0625 89.28125 67.992188 89.441406 67.898438 89.613281 C 67.589844 90.300781 67.210938 90.964844 66.765625 91.628906 C 65.804688 93.074219 64.507812 94.4375 62.972656 95.707031 L 19.582031 70.324219 C 19.847656 70.207031 20.097656 70.070312 20.359375 69.96875 C 25.265625 67.882812 31.289062 66.632812 37.808594 66.632812 C 40.375 66.632812 42.859375 66.828125 45.230469 67.195312 C 50.890625 68.054688 55.90625 69.886719 59.746094 72.292969 C 60.214844 72.578125 60.660156 72.890625 61.085938 73.199219 C 63.15625 74.675781 64.796875 76.3125 65.953125 78.023438 C 65.976562 78.042969 66 78.066406 66.011719 78.089844 C 67.417969 80.199219 68.128906 82.351562 68.128906 84.605469 Z M 112.941406 93.726562 C 108.636719 98.023438 103.03125 100.164062 97.398438 100.164062 C 91.75 100.164062 86.148438 98.03125 81.839844 93.726562 L 81.828125 93.714844 L 73.855469 85.832031 L 73.855469 84.609375 C 73.855469 81.101562 72.710938 77.78125 70.761719 74.894531 C 68.3125 71.285156 64.683594 68.296875 60.257812 66.003906 C 60.808594 64.574219 61.507812 63.011719 62.367188 61.414062 C 64.796875 56.851562 68.4375 51.902344 73.261719 48.101562 C 78.0625 44.308594 83.960938 41.605469 91.257812 41.191406 L 112.929688 62.625 L 112.941406 62.625 C 117.238281 66.929688 119.378906 72.546875 119.378906 78.179688 C 119.378906 83.816406 117.238281 89.429688 112.941406 93.726562 Z M 112.941406 93.726562 "/>
</g>
</svg>
