<?xml version="1.0" encoding="UTF-8"?>
<svg xmlns="http://www.w3.org/2000/svg" xmlns:xlink="http://www.w3.org/1999/xlink" width="128px" height="128px" viewBox="0 0 128 128" version="1.1">
<g id="surface1">
<path style=" stroke:none;fill-rule:nonzero;fill:rgb(13.725491%,12.156863%,12.54902%);fill-opacity:1;" d="M 36 20 L 36 128 L 54 128 L 54 106 C 54 104.894531 54.894531 104 56 104 L 72 104 C 73.105469 104 74 104.894531 74 106 L 74 128 L 92 128 L 92 8 C 92 3.582031 88.417969 0 84 0 L 44 0 C 39.582031 0 36 3.582031 36 8 Z M 68 18 C 68 16.894531 68.894531 16 70 16 L 78 16 C 79.105469 16 80 16.894531 80 18 L 80 26 C 80 27.105469 79.105469 28 78 28 L 70 28 C 68.894531 28 68 27.105469 68 26 Z M 68 38 C 68 36.894531 68.894531 36 70 36 L 78 36 C 79.105469 36 80 36.894531 80 38 L 80 46 C 80 47.105469 79.105469 48 78 48 L 70 48 C 68.894531 48 68 47.105469 68 46 Z M 68 58 C 68 56.894531 68.894531 56 70 56 L 78 56 C 79.105469 56 80 56.894531 80 58 L 80 66 C 80 67.105469 79.105469 68 78 68 L 70 68 C 68.894531 68 68 67.105469 68 66 Z M 68 78 C 68 76.894531 68.894531 76 70 76 L 78 76 C 79.105469 76 80 76.894531 80 78 L 80 86 C 80 87.105469 79.105469 88 78 88 L 70 88 C 68.894531 88 68 87.105469 68 86 Z M 48 18 C 48 16.894531 48.894531 16 50 16 L 58 16 C 59.105469 16 60 16.894531 60 18 L 60 26 C 60 27.105469 59.105469 28 58 28 L 50 28 C 48.894531 28 48 27.105469 48 26 Z M 48 38 C 48 36.894531 48.894531 36 50 36 L 58 36 C 59.105469 36 60 36.894531 60 38 L 60 46 C 60 47.105469 59.105469 48 58 48 L 50 48 C 48.894531 48 48 47.105469 48 46 Z M 48 58 C 48 56.894531 48.894531 56 50 56 L 58 56 C 59.105469 56 60 56.894531 60 58 L 60 66 C 60 67.105469 59.105469 68 58 68 L 50 68 C 48.894531 68 48 67.105469 48 66 Z M 48 78 C 48 76.894531 48.894531 76 50 76 L 58 76 C 59.105469 76 60 76.894531 60 78 L 60 86 C 60 87.105469 59.105469 88 58 88 L 50 88 C 48.894531 88 48 87.105469 48 86 Z M 48 78 "/>
<path style=" stroke:none;fill-rule:nonzero;fill:rgb(13.725491%,12.156863%,12.54902%);fill-opacity:1;" d="M 52 60 L 56 60 L 56 64 L 52 64 Z M 52 60 "/>
<path style=" stroke:none;fill-rule:nonzero;fill:rgb(13.725491%,12.156863%,12.54902%);fill-opacity:1;" d="M 52 80 L 56 80 L 56 84 L 52 84 Z M 52 80 "/>
<path style=" stroke:none;fill-rule:nonzero;fill:rgb(13.725491%,12.156863%,12.54902%);fill-opacity:1;" d="M 58 108 L 70 108 L 70 128 L 58 128 Z M 58 108 "/>
<path style=" stroke:none;fill-rule:nonzero;fill:rgb(13.725491%,12.156863%,12.54902%);fill-opacity:1;" d="M 16 100 L 20 100 L 20 104 L 16 104 Z M 16 100 "/>
<path style=" stroke:none;fill-rule:nonzero;fill:rgb(13.725491%,12.156863%,12.54902%);fill-opacity:1;" d="M 52 20 L 56 20 L 56 24 L 52 24 Z M 52 20 "/>
<path style=" stroke:none;fill-rule:nonzero;fill:rgb(13.725491%,12.156863%,12.54902%);fill-opacity:1;" d="M 52 40 L 56 40 L 56 44 L 52 44 Z M 52 40 "/>
<path style=" stroke:none;fill-rule:nonzero;fill:rgb(13.725491%,12.156863%,12.54902%);fill-opacity:1;" d="M 72 40 L 76 40 L 76 44 L 72 44 Z M 72 40 "/>
<path style=" stroke:none;fill-rule:nonzero;fill:rgb(13.725491%,12.156863%,12.54902%);fill-opacity:1;" d="M 72 20 L 76 20 L 76 24 L 72 24 Z M 72 20 "/>
<path style=" stroke:none;fill-rule:nonzero;fill:rgb(13.725491%,12.156863%,12.54902%);fill-opacity:1;" d="M 72 60 L 76 60 L 76 64 L 72 64 Z M 72 60 "/>
<path style=" stroke:none;fill-rule:nonzero;fill:rgb(13.725491%,12.156863%,12.54902%);fill-opacity:1;" d="M 72 80 L 76 80 L 76 84 L 72 84 Z M 72 80 "/>
<path style=" stroke:none;fill-rule:nonzero;fill:rgb(13.725491%,12.156863%,12.54902%);fill-opacity:1;" d="M 16 80 L 20 80 L 20 84 L 16 84 Z M 16 80 "/>
<path style=" stroke:none;fill-rule:nonzero;fill:rgb(13.725491%,12.156863%,12.54902%);fill-opacity:1;" d="M 32 20 L 8 20 C 3.582031 20 0 23.582031 0 28 L 0 120 C 0 124.417969 3.582031 128 8 128 L 32 128 Z M 24 106 C 24 107.105469 23.105469 108 22 108 L 14 108 C 12.894531 108 12 107.105469 12 106 L 12 98 C 12 96.894531 12.894531 96 14 96 L 22 96 C 23.105469 96 24 96.894531 24 98 Z M 24 86 C 24 87.105469 23.105469 88 22 88 L 14 88 C 12.894531 88 12 87.105469 12 86 L 12 78 C 12 76.894531 12.894531 76 14 76 L 22 76 C 23.105469 76 24 76.894531 24 78 Z M 24 66 C 24 67.105469 23.105469 68 22 68 L 14 68 C 12.894531 68 12 67.105469 12 66 L 12 58 C 12 56.894531 12.894531 56 14 56 L 22 56 C 23.105469 56 24 56.894531 24 58 Z M 22 48 L 14 48 C 12.894531 48 12 47.105469 12 46 L 12 38 C 12 36.894531 12.894531 36 14 36 L 22 36 C 23.105469 36 24 36.894531 24 38 L 24 46 C 24 47.105469 23.105469 48 22 48 Z M 22 48 "/>
<path style=" stroke:none;fill-rule:nonzero;fill:rgb(13.725491%,12.156863%,12.54902%);fill-opacity:1;" d="M 108 100 L 112 100 L 112 104 L 108 104 Z M 108 100 "/>
<path style=" stroke:none;fill-rule:nonzero;fill:rgb(13.725491%,12.156863%,12.54902%);fill-opacity:1;" d="M 108 80 L 112 80 L 112 84 L 108 84 Z M 108 80 "/>
<path style=" stroke:none;fill-rule:nonzero;fill:rgb(13.725491%,12.156863%,12.54902%);fill-opacity:1;" d="M 108 60 L 112 60 L 112 64 L 108 64 Z M 108 60 "/>
<path style=" stroke:none;fill-rule:nonzero;fill:rgb(13.725491%,12.156863%,12.54902%);fill-opacity:1;" d="M 120 40 L 96 40 L 96 128 L 120 128 C 124.417969 128 128 124.417969 128 120 L 128 48 C 128 43.582031 124.417969 40 120 40 Z M 116 106 C 116 107.105469 115.105469 108 114 108 L 106 108 C 104.894531 108 104 107.105469 104 106 L 104 98 C 104 96.894531 104.894531 96 106 96 L 114 96 C 115.105469 96 116 96.894531 116 98 Z M 116 86 C 116 87.105469 115.105469 88 114 88 L 106 88 C 104.894531 88 104 87.105469 104 86 L 104 78 C 104 76.894531 104.894531 76 106 76 L 114 76 C 115.105469 76 116 76.894531 116 78 Z M 116 66 C 116 67.105469 115.105469 68 114 68 L 106 68 C 104.894531 68 104 67.105469 104 66 L 104 58 C 104 56.894531 104.894531 56 106 56 L 114 56 C 115.105469 56 116 56.894531 116 58 Z M 116 66 "/>
<path style=" stroke:none;fill-rule:nonzero;fill:rgb(13.725491%,12.156863%,12.54902%);fill-opacity:1;" d="M 16 60 L 20 60 L 20 64 L 16 64 Z M 16 60 "/>
<path style=" stroke:none;fill-rule:nonzero;fill:rgb(13.725491%,12.156863%,12.54902%);fill-opacity:1;" d="M 16 40 L 20 40 L 20 44 L 16 44 Z M 16 40 "/>
</g>
</svg>
