<?xml version="1.0" encoding="UTF-8"?>
<svg xmlns="http://www.w3.org/2000/svg" xmlns:xlink="http://www.w3.org/1999/xlink" width="128px" height="128px" viewBox="0 0 128 128" version="1.1">
<g id="surface1">
<path style=" stroke:none;fill-rule:nonzero;fill:rgb(0%,0%,0%);fill-opacity:1;" d="M 100.214844 30.238281 C 100.210938 26.523438 97.648438 23.296875 94.027344 22.453125 L 92 15.09375 C 91.238281 12.648438 88.960938 11 86.398438 11.039062 L 41.546875 11.039062 C 38.996094 10.984375 36.722656 12.644531 36 15.09375 L 33.972656 22.453125 C 30.214844 23.402344 27.636719 26.847656 27.785156 30.71875 C 27.777344 34.21875 30.082031 37.308594 33.441406 38.292969 L 33.972656 53.066406 C 33.121094 53.207031 32.332031 53.617188 31.734375 54.238281 C 30.972656 55.042969 30.566406 56.121094 30.613281 57.226562 L 31.894531 87.945312 C 31.972656 89.894531 33.429688 91.507812 35.359375 91.785156 L 35.785156 103.625 C 36.015625 111.082031 42.140625 116.996094 49.601562 116.960938 L 78.347656 116.960938 C 85.824219 117.019531 91.980469 111.097656 92.214844 103.625 L 92.640625 91.785156 C 94.546875 91.484375 95.976562 89.875 96.054688 87.945312 L 97.332031 57.226562 C 97.378906 56.121094 96.976562 55.042969 96.214844 54.238281 C 95.632812 53.617188 94.867188 53.203125 94.027344 53.066406 L 94.558594 38.292969 C 98.027344 37.167969 100.335938 33.882812 100.214844 30.238281 Z M 41.546875 16.375 L 86.828125 16.535156 L 88.425781 22.238281 L 39.679688 22.238281 Z M 86.878906 103.464844 C 86.742188 108.058594 82.941406 111.691406 78.347656 111.625 L 49.601562 111.625 C 45.023438 111.671875 41.25 108.042969 41.121094 103.464844 L 40.691406 91.839844 L 87.308594 91.839844 Z M 52.800781 72.425781 C 52.800781 66.242188 57.8125 61.226562 64 61.226562 C 70.1875 61.226562 75.199219 66.242188 75.199219 72.425781 C 75.199219 78.613281 70.1875 83.625 64 83.625 C 57.8125 83.625 52.800781 78.613281 52.800781 72.425781 Z M 88.691406 52.960938 L 39.308594 52.960938 L 38.773438 38.71875 L 89.171875 38.71875 Z M 92.214844 33.386719 L 35.785156 33.386719 C 35 33.359375 34.265625 33.003906 33.757812 32.402344 C 33.25 31.804688 33.015625 31.019531 33.121094 30.238281 C 33.121094 28.765625 34.3125 27.574219 35.785156 27.574219 L 92.214844 27.574219 C 92.996094 27.609375 93.726562 27.96875 94.230469 28.566406 C 94.738281 29.164062 94.972656 29.941406 94.878906 30.71875 C 94.878906 32.191406 93.6875 33.386719 92.214844 33.386719 Z M 92.214844 33.386719 "/>
</g>
</svg>
