<?xml version="1.0" encoding="UTF-8"?>
<svg xmlns="http://www.w3.org/2000/svg" xmlns:xlink="http://www.w3.org/1999/xlink" width="128px" height="128px" viewBox="0 0 128 128" version="1.1">
<g id="surface1">
<path style=" stroke:none;fill-rule:nonzero;fill:rgb(0%,0%,0%);fill-opacity:1;" d="M 64 37.101562 C 73.699219 37.101562 81.5 29.199219 81.5 19.5 C 81.5 9.800781 73.699219 1.898438 64 1.898438 C 54.300781 1.898438 46.398438 9.699219 46.398438 19.5 C 46.398438 29.199219 54.300781 37.101562 64 37.101562 M 81 41.300781 C 89 41.601562 92.398438 48 92.398438 48 L 118.300781 83.601562 C 119.398438 85.199219 120 87.101562 120 89.199219 C 120 94.699219 115.5 99.199219 110 99.199219 C 108.699219 99.199219 107.5 98.898438 106.300781 98.5 L 90.699219 94.101562 L 90.699219 109.699219 L 36.5 109.699219 L 36.5 94.101562 L 20.898438 98.5 C 19.800781 98.898438 18.601562 99.199219 17.199219 99.199219 C 11.699219 99.199219 7.199219 94.699219 7.199219 89.199219 C 7.199219 87.101562 7.800781 85.199219 8.898438 83.601562 L 34.800781 48 C 34.800781 48 38.199219 41.601562 46.199219 41.300781 Z M 63.601562 98.800781 L 83.898438 92.101562 L 83.398438 92 C 69.398438 87.898438 74.800781 69.398438 88.800781 73.5 L 90.699219 74.199219 L 90.699219 53.300781 L 63.601562 62.199219 L 36.398438 53.300781 L 36.398438 74.199219 L 38.300781 73.5 C 52.300781 69.398438 57.699219 87.800781 43.699219 92 L 43.199219 92.101562 Z M 119.398438 123.601562 C 120.800781 123.601562 121.898438 122.199219 121.898438 120.300781 C 121.898438 118.398438 120.800781 117 119.398438 117 L 9.800781 117 C 8.398438 117 7.300781 118.5 7.300781 120.300781 C 7.300781 122.101562 8.398438 123.601562 9.800781 123.601562 Z M 119.398438 123.601562 "/>
</g>
</svg>
