<?xml version="1.0" encoding="UTF-8"?>
<svg xmlns="http://www.w3.org/2000/svg" xmlns:xlink="http://www.w3.org/1999/xlink" width="128px" height="128px" viewBox="0 0 128 128" version="1.1">
<g id="surface1">
<path style=" stroke:none;fill-rule:nonzero;fill:rgb(0%,0%,0%);fill-opacity:1;" d="M 121.71875 115.632812 L 121.71875 107.386719 L 119.574219 107.386719 L 117.605469 58.128906 L 119.203125 51.730469 L 121.71875 51.730469 L 121.71875 39.363281 L 125.839844 39.363281 L 125.839844 27.722656 L 64 0 L 2.160156 27.722656 L 2.160156 39.363281 L 6.28125 39.363281 L 6.28125 51.730469 L 8.796875 51.730469 L 10.394531 58.128906 L 8.425781 107.386719 L 6.28125 107.386719 L 6.28125 115.632812 L 0.0976562 115.632812 L 0.0976562 128 L 127.902344 128 L 127.902344 115.632812 Z M 6.28125 35.238281 L 6.28125 30.390625 L 64 4.519531 L 121.71875 30.390625 L 121.71875 35.238281 Z M 10.40625 111.507812 L 117.59375 111.507812 L 117.59375 115.632812 L 10.40625 115.632812 C 10.40625 115.632812 10.40625 111.507812 10.40625 111.507812 Z M 14.449219 59.976562 L 16.589844 59.976562 L 16.589844 107.386719 L 12.550781 107.386719 Z M 13.046875 51.730469 L 18.070312 51.730469 L 17.039062 55.855469 L 14.078125 55.855469 Z M 20.710938 107.386719 L 20.710938 58.167969 L 22.320312 51.730469 L 25.285156 51.730469 L 26.886719 58.128906 L 24.914062 107.386719 Z M 30.9375 59.976562 L 33.078125 59.976562 L 33.078125 107.386719 L 29.042969 107.386719 Z M 29.535156 51.730469 L 34.5625 51.730469 L 33.53125 55.855469 L 30.566406 55.855469 Z M 37.203125 58.167969 L 38.8125 51.730469 L 41.777344 51.730469 L 43.375 58.128906 L 41.40625 107.386719 L 37.203125 107.386719 Z M 47.429688 59.976562 L 49.570312 59.976562 L 49.570312 107.386719 L 45.53125 107.386719 Z M 46.027344 51.730469 L 51.050781 51.730469 L 50.019531 55.855469 L 47.058594 55.855469 Z M 53.691406 58.167969 L 55.304688 51.730469 L 56.207031 51.730469 L 57.816406 58.167969 L 57.816406 107.386719 L 53.695312 107.386719 L 53.695312 58.167969 Z M 61.488281 55.855469 L 60.457031 51.730469 L 67.542969 51.730469 L 66.511719 55.855469 Z M 66.0625 59.976562 L 66.0625 107.386719 L 61.9375 107.386719 L 61.9375 59.976562 Z M 70.183594 58.167969 L 71.792969 51.730469 L 72.695312 51.730469 L 74.308594 58.167969 L 74.308594 107.386719 L 70.183594 107.386719 Z M 80.941406 55.855469 L 77.976562 55.855469 L 76.949219 51.730469 L 81.972656 51.730469 Z M 82.46875 107.386719 L 78.429688 107.386719 L 78.429688 59.976562 L 80.570312 59.976562 Z M 84.625 58.128906 L 86.222656 51.730469 L 89.1875 51.730469 L 90.796875 58.167969 L 90.796875 107.386719 L 86.59375 107.386719 Z M 97.433594 55.855469 L 94.46875 55.855469 L 93.4375 51.730469 L 98.464844 51.730469 Z M 98.957031 107.386719 L 94.917969 107.386719 L 94.917969 59.976562 L 97.0625 59.976562 Z M 101.113281 58.128906 L 102.714844 51.730469 L 105.679688 51.730469 L 107.289062 58.167969 L 107.289062 107.386719 L 103.085938 107.386719 Z M 113.921875 55.855469 L 110.957031 55.855469 L 109.929688 51.730469 L 114.953125 51.730469 Z M 115.449219 107.386719 L 111.410156 107.386719 L 111.410156 59.976562 L 113.550781 59.976562 Z M 10.40625 47.609375 L 10.40625 39.363281 L 117.59375 39.363281 L 117.59375 47.609375 Z M 4.222656 123.878906 L 4.222656 119.753906 L 123.777344 119.753906 L 123.777344 123.878906 Z M 4.222656 123.878906 "/>
<path style=" stroke:none;fill-rule:nonzero;fill:rgb(0%,0%,0%);fill-opacity:1;" d="M 17.183594 31.117188 L 110.820312 31.117188 L 64 10.3125 Z M 36.609375 26.996094 L 64 14.820312 L 91.390625 26.996094 Z M 36.609375 26.996094 "/>
<path style=" stroke:none;fill-rule:nonzero;fill:rgb(0%,0%,0%);fill-opacity:1;" d="M 37.203125 41.425781 L 41.324219 41.425781 L 41.324219 45.546875 L 37.203125 45.546875 Z M 37.203125 41.425781 "/>
<path style=" stroke:none;fill-rule:nonzero;fill:rgb(0%,0%,0%);fill-opacity:1;" d="M 45.449219 41.425781 L 49.570312 41.425781 L 49.570312 45.546875 L 45.449219 45.546875 Z M 45.449219 41.425781 "/>
<path style=" stroke:none;fill-rule:nonzero;fill:rgb(0%,0%,0%);fill-opacity:1;" d="M 53.691406 41.425781 L 57.816406 41.425781 L 57.816406 45.546875 L 53.691406 45.546875 Z M 53.691406 41.425781 "/>
<path style=" stroke:none;fill-rule:nonzero;fill:rgb(0%,0%,0%);fill-opacity:1;" d="M 61.9375 41.425781 L 66.0625 41.425781 L 66.0625 45.546875 L 61.9375 45.546875 Z M 61.9375 41.425781 "/>
<path style=" stroke:none;fill-rule:nonzero;fill:rgb(0%,0%,0%);fill-opacity:1;" d="M 70.183594 41.425781 L 74.308594 41.425781 L 74.308594 45.546875 L 70.183594 45.546875 Z M 70.183594 41.425781 "/>
<path style=" stroke:none;fill-rule:nonzero;fill:rgb(0%,0%,0%);fill-opacity:1;" d="M 78.429688 41.425781 L 82.550781 41.425781 L 82.550781 45.546875 L 78.429688 45.546875 Z M 78.429688 41.425781 "/>
<path style=" stroke:none;fill-rule:nonzero;fill:rgb(0%,0%,0%);fill-opacity:1;" d="M 86.675781 41.425781 L 90.796875 41.425781 L 90.796875 45.546875 L 86.675781 45.546875 Z M 86.675781 41.425781 "/>
<path style=" stroke:none;fill-rule:nonzero;fill:rgb(0%,0%,0%);fill-opacity:1;" d="M 53.691406 20.8125 L 57.816406 20.8125 L 57.816406 24.933594 L 53.691406 24.933594 Z M 53.691406 20.8125 "/>
<path style=" stroke:none;fill-rule:nonzero;fill:rgb(0%,0%,0%);fill-opacity:1;" d="M 61.9375 20.8125 L 66.0625 20.8125 L 66.0625 24.933594 L 61.9375 24.933594 Z M 61.9375 20.8125 "/>
<path style=" stroke:none;fill-rule:nonzero;fill:rgb(0%,0%,0%);fill-opacity:1;" d="M 70.183594 20.8125 L 74.308594 20.8125 L 74.308594 24.933594 L 70.183594 24.933594 Z M 70.183594 20.8125 "/>
</g>
</svg>
