<?xml version="1.0" encoding="UTF-8"?>
<svg xmlns="http://www.w3.org/2000/svg" xmlns:xlink="http://www.w3.org/1999/xlink" width="128px" height="128px" viewBox="0 0 128 128" version="1.1">
<g id="surface1">
<path style=" stroke:none;fill-rule:nonzero;fill:rgb(100%,100%,100%);fill-opacity:1;" d="M 63.144531 38.339844 C 55.648438 38.339844 49.546875 44.441406 49.546875 51.9375 C 49.546875 53.800781 49.933594 55.640625 50.683594 57.347656 C 50.683594 57.347656 50.6875 57.34375 50.6875 57.34375 C 50.714844 57.3125 50.746094 57.292969 50.769531 57.265625 C 51.199219 56.816406 51.652344 56.394531 52.121094 56 C 52.285156 55.859375 52.464844 55.738281 52.632812 55.601562 C 52.972656 55.335938 53.316406 55.070312 53.675781 54.828125 C 53.882812 54.691406 54.097656 54.566406 54.3125 54.433594 C 54.652344 54.226562 54.992188 54.023438 55.34375 53.839844 C 55.574219 53.71875 55.808594 53.609375 56.042969 53.496094 C 56.394531 53.332031 56.75 53.179688 57.113281 53.035156 C 57.355469 52.941406 57.601562 52.847656 57.847656 52.765625 C 58.226562 52.636719 58.609375 52.527344 58.996094 52.421875 C 59.238281 52.359375 59.476562 52.289062 59.71875 52.234375 C 60.148438 52.140625 60.582031 52.070312 61.019531 52.007812 C 61.230469 51.976562 61.441406 51.933594 61.652344 51.910156 C 62.308594 51.839844 62.964844 51.796875 63.632812 51.796875 C 64.257812 51.796875 64.871094 51.835938 65.480469 51.898438 C 65.59375 51.910156 65.707031 51.925781 65.820312 51.941406 L 68.695312 48.140625 C 69.148438 47.542969 70.003906 47.421875 70.605469 47.878906 C 71.203125 48.332031 71.320312 49.1875 70.867188 49.789062 L 68.769531 52.554688 C 68.867188 52.585938 68.964844 52.625 69.058594 52.652344 C 69.292969 52.726562 69.523438 52.808594 69.753906 52.890625 C 70.101562 53.019531 70.445312 53.15625 70.785156 53.304688 C 71.003906 53.402344 71.222656 53.5 71.441406 53.605469 C 71.785156 53.773438 72.121094 53.957031 72.457031 54.144531 C 72.652344 54.257812 72.847656 54.359375 73.042969 54.480469 C 73.425781 54.71875 73.796875 54.972656 74.15625 55.242188 C 74.285156 55.335938 74.417969 55.417969 74.542969 55.515625 C 75.007812 55.875 75.460938 56.25 75.890625 56.65625 C 76.445312 55.152344 76.730469 53.550781 76.730469 51.9375 C 76.742188 44.441406 70.644531 38.339844 63.144531 38.339844 Z M 63.144531 38.339844 "/>
<path style=" stroke:none;fill-rule:nonzero;fill:rgb(100%,100%,100%);fill-opacity:1;" d="M 73.820312 58.472656 C 73.601562 58.269531 73.371094 58.074219 73.136719 57.886719 C 72.953125 57.738281 72.769531 57.59375 72.578125 57.457031 C 72.335938 57.28125 72.09375 57.113281 71.839844 56.953125 C 71.644531 56.828125 71.445312 56.699219 71.246094 56.582031 C 70.984375 56.433594 70.722656 56.296875 70.457031 56.160156 C 70.25 56.058594 70.046875 55.949219 69.835938 55.855469 C 69.554688 55.734375 69.273438 55.625 68.988281 55.519531 C 68.78125 55.4375 68.570312 55.355469 68.355469 55.285156 C 68.054688 55.183594 67.746094 55.105469 67.4375 55.027344 C 67.234375 54.972656 67.03125 54.910156 66.824219 54.867188 C 66.476562 54.792969 66.125 54.742188 65.773438 54.691406 C 65.597656 54.667969 65.421875 54.628906 65.246094 54.609375 C 64.710938 54.554688 64.175781 54.523438 63.632812 54.523438 C 63.050781 54.523438 62.476562 54.558594 61.910156 54.621094 C 61.71875 54.644531 61.535156 54.683594 61.34375 54.714844 C 60.972656 54.769531 60.597656 54.824219 60.230469 54.910156 C 60.011719 54.960938 59.800781 55.027344 59.582031 55.089844 C 59.257812 55.179688 58.929688 55.265625 58.613281 55.378906 C 58.386719 55.457031 58.167969 55.550781 57.949219 55.644531 C 57.648438 55.761719 57.351562 55.882812 57.0625 56.023438 C 56.839844 56.128906 56.625 56.25 56.410156 56.367188 C 56.132812 56.519531 55.859375 56.671875 55.59375 56.839844 C 55.378906 56.972656 55.175781 57.117188 54.972656 57.261719 C 54.714844 57.441406 54.460938 57.625 54.214844 57.820312 C 54.015625 57.976562 53.828125 58.144531 53.636719 58.3125 C 53.398438 58.523438 53.167969 58.738281 52.941406 58.960938 C 52.761719 59.140625 52.585938 59.328125 52.410156 59.519531 C 52.308594 59.632812 52.214844 59.75 52.117188 59.867188 C 54.671875 63.433594 58.726562 65.535156 63.140625 65.535156 C 67.808594 65.535156 72.117188 63.148438 74.605469 59.25 C 74.515625 59.15625 74.429688 59.054688 74.335938 58.964844 C 74.167969 58.792969 73.996094 58.632812 73.820312 58.472656 Z M 73.820312 58.472656 "/>
<path style=" stroke:none;fill-rule:nonzero;fill:rgb(100%,100%,100%);fill-opacity:1;" d="M 88.71875 64.140625 C 89.542969 60.523438 89.976562 56.832031 89.976562 53.160156 C 89.976562 35.664062 80.636719 19.421875 65.566406 10.546875 L 65.566406 1.363281 C 65.566406 0.609375 64.957031 0 64.207031 0 C 63.453125 0 62.84375 0.609375 62.84375 1.363281 L 62.84375 10.546875 C 47.777344 19.421875 38.433594 35.667969 38.433594 53.160156 C 38.433594 56.726562 38.84375 60.3125 39.621094 63.828125 C 30.351562 72.285156 24.703125 84.964844 24.117188 98.78125 C 24.089844 99.390625 24.472656 99.945312 25.050781 100.136719 C 30.054688 101.78125 35.261719 102.617188 40.523438 102.617188 L 41.136719 102.601562 C 41.683594 102.59375 42.171875 102.265625 42.382812 101.761719 C 44.332031 97.058594 48.804688 93.25 54.539062 91.285156 L 52.238281 105.675781 C 47.054688 106.132812 42.894531 110.203125 42.292969 115.351562 C 36.824219 115.992188 32.566406 120.644531 32.566406 126.28125 C 32.566406 127.035156 33.175781 127.644531 33.925781 127.644531 C 34.679688 127.644531 35.289062 127.035156 35.289062 126.28125 C 35.289062 121.714844 39.007812 118 43.574219 118 C 44.328125 118 44.9375 117.386719 44.9375 116.636719 C 44.9375 112.554688 47.90625 109.167969 51.792969 108.484375 L 51.035156 113.207031 C 50.917969 113.949219 51.421875 114.648438 52.167969 114.769531 C 52.238281 114.777344 52.3125 114.785156 52.382812 114.785156 C 53.039062 114.785156 53.621094 114.308594 53.726562 113.636719 L 57.429688 90.484375 C 61.734375 89.542969 66.34375 89.652344 70.566406 90.796875 L 74.273438 113.992188 C 74.382812 114.664062 74.960938 115.140625 75.621094 115.140625 C 75.691406 115.140625 75.761719 115.132812 75.835938 115.125 C 76.578125 115.003906 77.085938 114.304688 76.964844 113.5625 L 76.210938 108.839844 C 80.097656 109.523438 83.0625 112.914062 83.0625 116.992188 C 83.0625 117.746094 83.675781 118.355469 84.425781 118.355469 C 88.996094 118.355469 92.710938 122.074219 92.710938 126.636719 C 92.710938 127.390625 93.320312 128 94.074219 128 C 94.824219 128 95.4375 127.390625 95.4375 126.636719 C 95.4375 121 91.175781 116.347656 85.703125 115.707031 C 85.109375 110.5625 80.949219 106.488281 75.757812 106.027344 L 73.476562 91.753906 C 78.609375 93.824219 82.503906 97.367188 84.320312 101.714844 C 84.523438 102.199219 84.988281 102.523438 85.511719 102.550781 C 86.300781 102.585938 87.089844 102.609375 87.890625 102.609375 C 93.011719 102.609375 98.074219 101.824219 102.9375 100.273438 C 103.523438 100.085938 103.910156 99.53125 103.886719 98.917969 C 103.335938 85.246094 97.816406 72.628906 88.71875 64.140625 Z M 77.496094 59.710938 C 74.636719 64.984375 69.136719 68.257812 63.144531 68.257812 C 57.449219 68.257812 52.257812 65.351562 49.257812 60.484375 C 47.664062 57.902344 46.820312 54.945312 46.820312 51.9375 C 46.820312 42.9375 54.144531 35.613281 63.144531 35.613281 C 72.144531 35.613281 79.46875 42.9375 79.46875 51.9375 C 79.46875 54.652344 78.785156 57.335938 77.496094 59.710938 Z M 77.496094 59.710938 "/>
</g>
</svg>
