<?xml version="1.0" encoding="UTF-8"?>
<svg xmlns="http://www.w3.org/2000/svg" xmlns:xlink="http://www.w3.org/1999/xlink" width="128px" height="128px" viewBox="0 0 128 128" version="1.1">
<g id="surface1">
<path style=" stroke:none;fill-rule:nonzero;fill:rgb(100%,100%,100%);fill-opacity:1;" d="M 127.957031 77.730469 L 127.644531 65.0625 L 127.355469 65.5 C 127.375 65.082031 127.394531 64.6875 127.394531 64.269531 C 127.375 57.105469 125.332031 49.917969 123 43.4375 C 120.769531 37.292969 118.8125 32.042969 116.082031 27.269531 C 113.375 22.5 109.792969 18.292969 104.730469 14.667969 C 99.394531 10.855469 92.832031 8.667969 85.8125 7.355469 C 78.792969 6.042969 71.292969 5.644531 64 5.644531 C 56.707031 5.644531 49.207031 6.042969 42.1875 7.355469 C 35.167969 8.667969 28.605469 10.855469 23.269531 14.667969 C 18.207031 18.292969 14.625 22.5 11.917969 27.269531 C 9.1875 32.042969 7.230469 37.292969 5 43.4375 C 2.667969 49.917969 0.625 57.105469 0.605469 64.269531 C 0.605469 64.730469 0.644531 65.167969 0.644531 65.605469 L 0.375 65.167969 L 0.0429688 77.730469 C 0.0195312 78.75 0 79.769531 0 80.792969 C 0 84.9375 0.25 88.980469 1.105469 92.875 C 1.957031 96.75 3.457031 100.480469 5.9375 103.792969 C 8.832031 107.625 12.269531 110.769531 16.207031 113.269531 C 22.105469 117 29.019531 119.25 36.917969 120.582031 C 44.855469 121.9375 53.8125 122.355469 64 122.355469 C 77.25 122.355469 88.875 121.3125 98.6875 118.519531 C 103.582031 117.125 108.042969 115.269531 111.980469 112.855469 C 115.917969 110.417969 119.332031 107.417969 122.0625 103.792969 C 124.542969 100.480469 126.042969 96.75 126.894531 92.875 C 127.75 89 128 84.9375 128 80.8125 C 128 79.792969 127.980469 78.769531 127.957031 77.730469 Z M 2.167969 82.0625 L 2.1875 82.082031 Z M 118.519531 70.625 C 117.9375 72.582031 117.042969 74.355469 115.730469 76 C 113.417969 78.894531 110.75 81.1875 107.605469 83.082031 C 102.894531 85.917969 97.019531 87.792969 89.769531 88.9375 C 82.542969 90.105469 73.957031 90.519531 64 90.5 C 50.707031 90.519531 39.894531 89.769531 31.4375 87.542969 C 27.1875 86.4375 23.542969 84.957031 20.394531 83.082031 C 17.25 81.1875 14.582031 78.894531 12.269531 76 C 10.957031 74.355469 10.0625 72.582031 9.480469 70.625 C 8.894531 68.6875 8.625 66.5625 8.625 64.269531 C 8.605469 58.667969 10.332031 52.230469 12.542969 46.167969 C 14.730469 40.0625 16.582031 35.207031 18.855469 31.25 C 21.144531 27.292969 23.769531 24.1875 27.9375 21.167969 C 31.855469 18.332031 37.332031 16.375 43.644531 15.230469 C 49.9375 14.042969 57.019531 13.644531 64 13.644531 C 70.980469 13.644531 78.0625 14.042969 84.355469 15.230469 C 90.667969 16.375 96.144531 18.332031 100.0625 21.167969 C 104.230469 24.1875 106.855469 27.292969 109.144531 31.25 C 111.417969 35.207031 113.269531 40.0625 115.480469 46.167969 C 117.667969 52.207031 119.394531 58.667969 119.375 64.269531 C 119.375 66.5625 119.105469 68.6875 118.519531 70.625 Z M 118.519531 70.625 "/>
<path style=" stroke:none;fill-rule:nonzero;fill:rgb(100%,100%,100%);fill-opacity:1;" d="M 52.605469 66.4375 L 51.667969 73.957031 L 76.332031 73.957031 L 75.394531 66.4375 Z M 52.605469 66.4375 "/>
<path style=" stroke:none;fill-rule:nonzero;fill:rgb(100%,100%,100%);fill-opacity:1;" d="M 73.730469 23.480469 L 54.269531 23.480469 L 53.519531 29.542969 L 74.480469 29.542969 Z M 73.730469 23.480469 "/>
<path style=" stroke:none;fill-rule:nonzero;fill:rgb(100%,100%,100%);fill-opacity:1;" d="M 53.292969 41.75 C 54.082031 40.75 55.105469 39.980469 56.230469 39.375 C 58.5 38.167969 61.230469 37.605469 64 37.605469 C 66.082031 37.605469 68.144531 37.917969 70 38.582031 C 71.832031 39.25 73.519531 40.25 74.730469 41.75 C 75.1875 42.3125 75.542969 42.957031 75.832031 43.644531 L 99.582031 43.644531 L 94.042969 26.832031 C 93.332031 24.6875 91.332031 23.230469 89.082031 23.230469 L 77.5 23.230469 L 78.480469 31.1875 L 78.75 33.3125 L 49.25 33.3125 L 50.5 23.230469 L 38.917969 23.230469 C 36.667969 23.230469 34.667969 24.6875 33.957031 26.832031 L 28.417969 43.644531 L 52.1875 43.644531 C 52.457031 42.957031 52.832031 42.3125 53.292969 41.75 Z M 53.292969 41.75 "/>
<path style=" stroke:none;fill-rule:nonzero;fill:rgb(100%,100%,100%);fill-opacity:1;" d="M 57.582031 48.75 C 59.125 49.605469 61.457031 50.167969 64 50.167969 C 65.917969 50.167969 67.707031 49.855469 69.125 49.332031 C 70.542969 48.8125 71.5625 48.082031 72.0625 47.417969 L 55.9375 47.417969 C 56.269531 47.875 56.832031 48.332031 57.582031 48.75 Z M 57.582031 48.75 "/>
<path style=" stroke:none;fill-rule:nonzero;fill:rgb(100%,100%,100%);fill-opacity:1;" d="M 64 41.375 C 62.3125 41.375 60.667969 41.644531 59.292969 42.144531 C 58.1875 42.519531 57.292969 43.0625 56.667969 43.644531 L 71.332031 43.644531 C 70.980469 43.3125 70.519531 42.980469 70 42.707031 C 68.457031 41.875 66.25 41.375 64 41.375 Z M 64 41.375 "/>
<path style=" stroke:none;fill-rule:nonzero;fill:rgb(100%,100%,100%);fill-opacity:1;" d="M 100.8125 47.417969 L 76.144531 47.417969 C 75.957031 48.230469 75.582031 49 75.105469 49.644531 C 74.355469 50.644531 73.375 51.4375 72.230469 52.0625 C 69.957031 53.292969 67.082031 53.9375 64 53.9375 C 61.6875 53.9375 59.5 53.582031 57.582031 52.875 C 55.6875 52.167969 54.019531 51.144531 52.894531 49.644531 C 52.417969 49 52.042969 48.230469 51.855469 47.417969 L 27.1875 47.417969 L 20.707031 67.125 C 20.1875 68.730469 20.457031 70.480469 21.4375 71.832031 C 22.417969 73.1875 24 74 25.667969 74 L 47.875 74 L 49.292969 62.667969 L 78.730469 62.667969 L 80.125 74 L 102.332031 74 C 104 74 105.582031 73.1875 106.5625 71.832031 C 107.542969 70.480469 107.8125 68.730469 107.292969 67.125 Z M 100.8125 47.417969 "/>
</g>
</svg>
