<?xml version="1.0" encoding="UTF-8"?>
<svg xmlns="http://www.w3.org/2000/svg" xmlns:xlink="http://www.w3.org/1999/xlink" width="24px" height="24px" viewBox="0 0 24 24" version="1.1">
<g id="surface1">
<path style=" stroke:none;fill-rule:nonzero;fill:rgb(100%,100%,100%);fill-opacity:1;" d="M 18.46875 5.507812 C 18.710938 5.832031 19.164062 5.894531 19.484375 5.660156 L 21.867188 3.886719 C 22.191406 3.648438 22.253906 3.191406 22.019531 2.875 L 22.011719 2.859375 C 21.769531 2.535156 21.316406 2.472656 20.996094 2.707031 L 18.613281 4.480469 C 18.289062 4.71875 18.226562 5.175781 18.460938 5.492188 Z M 18.46875 5.507812 "/>
<path style=" stroke:none;fill-rule:nonzero;fill:rgb(100%,100%,100%);fill-opacity:1;" d="M 19.257812 0.136719 C 18.914062 -0.109375 18.441406 -0.0117188 18.21875 0.347656 L 16.628906 2.921875 C 16.425781 3.246094 16.511719 3.671875 16.824219 3.890625 C 17.167969 4.136719 17.640625 4.039062 17.863281 3.679688 L 19.453125 1.105469 C 19.65625 0.78125 19.566406 0.355469 19.257812 0.136719 Z M 19.257812 0.136719 "/>
<path style=" stroke:none;fill-rule:nonzero;fill:rgb(100%,100%,100%);fill-opacity:1;" d="M 20.40625 8.007812 L 23.332031 7.222656 C 23.738281 7.113281 23.96875 6.683594 23.832031 6.289062 C 23.710938 5.925781 23.328125 5.722656 22.957031 5.820312 L 20.027344 6.605469 C 19.621094 6.714844 19.390625 7.144531 19.527344 7.542969 C 19.65625 7.898438 20.035156 8.105469 20.40625 8.007812 Z M 20.40625 8.007812 "/>
<path style=" stroke:none;fill-rule:nonzero;fill:rgb(100%,100%,100%);fill-opacity:1;" d="M 10.335938 1.226562 C 9.914062 1.472656 9.800781 2.007812 10.054688 2.394531 C 9.429688 5.992188 6.945312 9.035156 5.339844 10.6875 C 4.957031 10.402344 4.417969 10.382812 4.015625 10.6875 L 1.65625 12.4375 C 0.308594 13.4375 0.0273438 15.339844 1.027344 16.6875 L 0.835938 16.425781 L 0.382812 16.765625 C 0.101562 16.96875 0.0429688 17.367188 0.253906 17.640625 L 1.65625 19.527344 C 1.859375 19.804688 2.257812 19.863281 2.535156 19.652344 L 2.992188 19.316406 L 2.730469 18.964844 C 3.589844 20.113281 5.101562 20.480469 6.367188 19.9375 L 11.140625 23.90625 C 11.273438 24.023438 11.476562 24.03125 11.617188 23.925781 L 11.785156 23.800781 L 13.609375 22.445312 L 14.363281 21.886719 C 14.542969 21.753906 14.550781 21.492188 14.378906 21.347656 L 13.371094 20.511719 C 13.199219 20.367188 12.949219 20.359375 12.769531 20.496094 C 12.328125 20.824219 11.71875 20.808594 11.292969 20.460938 L 8.683594 18.332031 L 9.34375 17.835938 C 9.746094 17.539062 9.882812 17.019531 9.722656 16.566406 C 11.765625 15.503906 15.394531 14 19.019531 14.441406 C 19.316406 14.800781 19.859375 14.84375 20.21875 14.511719 C 20.527344 14.21875 20.542969 13.726562 20.285156 13.382812 L 17.40625 9.511719 C 18.019531 8.566406 18.019531 7.296875 17.304688 6.335938 C 16.59375 5.375 15.378906 5.015625 14.296875 5.324219 L 11.441406 1.480469 C 11.179688 1.148438 10.707031 1.015625 10.335938 1.226562 Z M 5.789062 18.003906 C 5.324219 18.351562 4.667969 18.253906 4.320312 17.789062 L 2.621094 15.5 C 2.273438 15.035156 2.371094 14.378906 2.835938 14.03125 L 4.496094 12.796875 L 7.449219 16.769531 Z M 5.789062 18.003906 "/>
</g>
</svg>
