<?xml version="1.0" encoding="UTF-8"?>
<svg xmlns="http://www.w3.org/2000/svg" xmlns:xlink="http://www.w3.org/1999/xlink" width="128px" height="128px" viewBox="0 0 128 128" version="1.1">
<g id="surface1">
<path style=" stroke:none;fill-rule:nonzero;fill:rgb(0%,0%,0%);fill-opacity:1;" d="M 98.503906 29.378906 C 99.785156 31.101562 102.214844 31.441406 103.910156 30.1875 L 116.632812 20.730469 C 118.359375 19.453125 118.699219 17.023438 117.445312 15.324219 L 117.390625 15.246094 C 116.109375 13.523438 113.683594 13.183594 111.984375 14.4375 L 99.261719 23.890625 C 97.539062 25.171875 97.199219 27.601562 98.453125 29.300781 Z M 98.503906 29.378906 "/>
<path style=" stroke:none;fill-rule:nonzero;fill:rgb(0%,0%,0%);fill-opacity:1;" d="M 102.710938 0.722656 C 100.882812 -0.585938 98.347656 -0.0625 97.171875 1.84375 L 88.683594 15.585938 C 87.613281 17.308594 88.054688 19.582031 89.726562 20.757812 C 91.554688 22.0625 94.089844 21.542969 95.265625 19.632812 L 103.753906 5.894531 C 104.828125 4.167969 104.355469 1.898438 102.710938 0.722656 Z M 102.710938 0.722656 "/>
<path style=" stroke:none;fill-rule:nonzero;fill:rgb(0%,0%,0%);fill-opacity:1;" d="M 108.824219 42.699219 L 124.445312 38.519531 C 126.613281 37.945312 127.839844 35.648438 127.109375 33.53125 C 126.457031 31.597656 124.417969 30.527344 122.433594 31.050781 L 106.8125 35.230469 C 104.644531 35.804688 103.414062 38.101562 104.148438 40.21875 C 104.828125 42.125 106.863281 43.222656 108.824219 42.699219 Z M 108.824219 42.699219 "/>
<path style=" stroke:none;fill-rule:nonzero;fill:rgb(0%,0%,0%);fill-opacity:1;" d="M 55.113281 6.546875 C 52.867188 7.851562 52.265625 10.699219 53.625 12.765625 C 50.28125 31.964844 37.039062 48.1875 28.46875 56.988281 C 26.433594 55.476562 23.558594 55.371094 21.417969 56.988281 L 8.824219 66.34375 C 1.640625 71.671875 0.152344 81.804688 5.480469 88.992188 L 4.460938 87.605469 L 2.03125 89.410156 C 0.542969 90.503906 0.230469 92.621094 1.355469 94.085938 L 8.824219 104.140625 C 9.921875 105.628906 12.039062 105.945312 13.527344 104.820312 L 15.957031 103.019531 L 14.570312 101.136719 C 19.144531 107.277344 27.214844 109.234375 33.957031 106.335938 L 59.425781 127.496094 C 60.128906 128.121094 61.203125 128.175781 61.957031 127.601562 L 62.847656 126.945312 L 72.589844 119.710938 L 76.613281 116.734375 C 77.554688 116.027344 77.605469 114.617188 76.691406 113.859375 L 71.3125 109.390625 C 70.394531 108.632812 69.0625 108.582031 68.097656 109.3125 C 65.746094 111.0625 62.507812 110.984375 60.234375 109.132812 L 46.3125 97.769531 L 49.835938 95.128906 C 51.980469 93.535156 52.710938 90.765625 51.847656 88.363281 C 62.742188 82.695312 82.097656 74.675781 101.429688 77.027344 C 103.023438 78.933594 105.921875 79.167969 107.832031 77.390625 C 109.476562 75.824219 109.554688 73.210938 108.195312 71.382812 L 92.835938 50.71875 C 96.101562 45.679688 96.101562 38.914062 92.289062 33.792969 C 88.5 28.671875 82.019531 26.738281 76.246094 28.386719 L 61.019531 7.90625 C 59.632812 6.128906 57.101562 5.421875 55.113281 6.546875 Z M 30.871094 96.015625 C 28.390625 97.871094 24.890625 97.351562 23.035156 94.867188 L 13.972656 82.667969 C 12.117188 80.1875 12.640625 76.6875 15.121094 74.832031 L 23.976562 68.25 L 39.726562 89.433594 Z M 30.871094 96.015625 "/>
</g>
</svg>
