<?xml version="1.0" encoding="UTF-8"?>
<svg xmlns="http://www.w3.org/2000/svg" xmlns:xlink="http://www.w3.org/1999/xlink" width="128px" height="128px" viewBox="0 0 128 128" version="1.1">
<g id="surface1">
<path style=" stroke:none;fill-rule:nonzero;fill:rgb(0%,0%,0%);fill-opacity:1;" d="M 14.4375 28.4375 L 14.4375 99.5625 C 48.207031 111.207031 79.769531 87.875 113.5625 99.5625 L 113.5625 28.4375 C 79.769531 16.832031 48.230469 40.1875 14.4375 28.4375 Z M 51.230469 49.5625 L 52.042969 46.980469 C 52.355469 47.894531 52.5 48.355469 52.8125 49.269531 L 55.375 48.730469 L 53.332031 50.730469 C 53.644531 51.625 53.792969 52.0625 54.125 52.980469 L 52.0625 51.894531 L 50 53.792969 C 50.292969 52.769531 50.457031 52.25 50.769531 51.207031 L 48.707031 50.082031 Z M 42.855469 42.769531 C 43.167969 41.769531 43.332031 41.269531 43.644531 40.269531 C 43.957031 41.1875 44.125 41.644531 44.417969 42.605469 C 45.457031 42.480469 45.980469 42.394531 46.980469 42.25 L 44.917969 44.019531 C 45.25 44.9375 45.394531 45.394531 45.707031 46.332031 L 43.644531 45.105469 L 41.582031 46.875 C 41.894531 45.875 42.042969 45.394531 42.355469 44.375 C 41.542969 43.855469 41.125 43.605469 40.3125 43.0625 C 41.3125 42.980469 41.832031 42.9375 42.855469 42.832031 Z M 42.855469 58.457031 C 43.167969 57.4375 43.332031 56.9375 43.644531 55.9375 C 43.957031 56.875 44.125 57.332031 44.417969 58.25 C 45.457031 58.125 45.980469 58.0625 46.980469 57.894531 L 44.917969 59.6875 C 45.25 60.625 45.394531 61.082031 45.707031 62 L 43.644531 60.769531 C 42.832031 61.480469 42.394531 61.8125 41.582031 62.542969 C 41.894531 61.542969 42.042969 61.019531 42.355469 60.042969 L 40.3125 58.667969 C 41.3125 58.667969 41.832031 58.667969 42.855469 58.5 Z M 35.5625 51.3125 C 35.855469 50.355469 36.019531 49.855469 36.332031 48.875 C 36.667969 49.855469 36.8125 50.332031 37.125 51.292969 C 38.144531 51.292969 38.667969 51.292969 39.6875 51.167969 L 37.625 52.792969 C 37.9375 53.75 38.105469 54.230469 38.394531 55.167969 L 36.332031 53.75 L 34.269531 55.230469 C 34.605469 54.25 34.730469 53.769531 35.0625 52.8125 C 34.25 52.207031 33.8125 51.894531 33 51.25 C 33.9375 51.3125 34.457031 51.3125 35.5625 51.3125 Z M 26.519531 42.519531 L 27.332031 40.230469 C 27.625 41.25 27.792969 41.75 28.105469 42.769531 C 29.144531 42.894531 29.644531 42.980469 30.667969 43.0625 L 28.605469 44.332031 C 28.917969 45.355469 29.0625 45.855469 29.394531 46.855469 C 28.542969 46.167969 28.144531 45.8125 27.332031 45.082031 L 25.1875 46.230469 C 25.5 45.3125 25.644531 44.855469 25.980469 43.9375 C 25.144531 43.1875 24.730469 42.8125 23.917969 42 C 24.894531 42.25 25.4375 42.355469 26.457031 42.519531 Z M 26.519531 58.207031 L 27.332031 55.894531 C 27.625 56.917969 27.792969 57.417969 28.105469 58.4375 C 29.144531 58.582031 29.644531 58.625 30.667969 58.730469 L 28.605469 60 C 28.917969 61.019531 29.0625 61.519531 29.394531 62.519531 C 28.542969 61.832031 28.144531 61.480469 27.332031 60.75 C 26.480469 61.230469 26.082031 61.457031 25.269531 61.875 C 25.5625 60.980469 25.730469 60.542969 26.042969 59.605469 C 25.207031 58.855469 24.792969 58.480469 23.980469 57.6875 C 24.894531 57.917969 25.4375 58.019531 26.457031 58.207031 Z M 108.4375 92.1875 C 77.9375 85.480469 50.0625 103.105469 19.644531 96.375 L 19.644531 90.667969 C 50.0625 97.4375 77.9375 79.8125 108.4375 86.542969 Z M 108.4375 81.332031 C 77.9375 74.667969 50.0625 92.230469 19.644531 85.519531 L 19.644531 80.082031 C 50.0625 86.8125 77.9375 69.1875 108.4375 75.917969 Z M 108.4375 70.667969 C 77.9375 64 50.0625 81.582031 19.644531 74.855469 L 19.644531 69.332031 C 50.0625 76.0625 77.9375 58.4375 108.355469 65.144531 Z M 108.4375 60 C 92.4375 56.269531 78.769531 58.667969 63.019531 62.230469 L 63.019531 56.3125 C 78.769531 52.667969 92.4375 50.3125 108.4375 54 Z M 108.4375 48.8125 C 92.4375 45.144531 78.855469 47.5 63.105469 51.144531 L 63.105469 45.8125 C 78.855469 42.25 92.480469 39.8125 108.4375 43.480469 Z M 108.4375 38.144531 C 92.4375 34.480469 78.855469 36.8125 63.105469 40.457031 L 63.105469 33.957031 C 78.769531 30.3125 92.4375 27.9375 108.4375 31.625 Z M 108.4375 38.144531 "/>
</g>
</svg>
