<?xml version="1.0" encoding="UTF-8"?>
<svg xmlns="http://www.w3.org/2000/svg" xmlns:xlink="http://www.w3.org/1999/xlink" width="128px" height="128px" viewBox="0 0 128 128" version="1.1">
<g id="surface1">
<path style=" stroke:none;fill-rule:nonzero;fill:rgb(13.725491%,12.156863%,12.54902%);fill-opacity:1;" d="M 64 0 C 31.542969 0 4.769531 24.144531 0.582031 55.457031 C 0.582031 55.5 0.582031 55.519531 0.5625 55.542969 C 0.457031 56.394531 0.355469 57.230469 0.269531 58.082031 C 0.25 58.480469 0.230469 58.875 0.1875 59.269531 C 0.144531 59.832031 0.105469 60.394531 0.0820312 60.957031 C 0.0195312 61.957031 0 62.980469 0 64 C 0 99.355469 28.644531 128 64 128 C 99.355469 128 128 99.355469 128 64 C 128 28.644531 99.355469 0 64 0 Z M 66.730469 117 C 65.292969 118.582031 62.917969 119.832031 61.375 118.355469 C 60.0625 117.0625 61.167969 115.457031 61.375 113.644531 C 61.625 111.5 60.644531 108.957031 62.707031 108.292969 C 64.375 107.769531 65.644531 108.9375 66.730469 110.3125 C 68.375 112.355469 68.480469 115.042969 66.730469 117 Z M 86.894531 99.75 C 84.542969 100.957031 82.875 100.730469 80.25 101.082031 C 75.332031 101.707031 71.457031 104.125 67.582031 101.082031 C 65.855469 99.6875 65.625 98.1875 64.269531 96.394531 C 62.105469 93.667969 61.5625 88.644531 58.25 89.75 C 56.144531 90.480469 56.207031 92.582031 54.957031 94.4375 C 53.332031 96.75 53.730469 100.019531 50.9375 100.417969 C 49 100.6875 47.9375 99.5 46.292969 98.417969 C 44.457031 97.1875 44.082031 95.730469 42.292969 94.4375 C 40.4375 93.042969 38.917969 93.042969 36.980469 91.769531 C 35.605469 90.832031 35.3125 89.144531 33.644531 89.105469 C 32.144531 89.042969 31.0625 89.792969 30.3125 91.082031 C 28.917969 93.519531 28.4375 100.667969 24.332031 100.417969 C 21.3125 100.207031 14.8125 93.394531 12.355469 91.769531 C 11.542969 91.207031 10.792969 90.667969 10.042969 90.230469 C 6.375 82.730469 4.25 74.332031 4.042969 65.457031 C 5.269531 64.4375 6.519531 63.9375 7.6875 62.480469 C 9.542969 60.230469 8.644531 57.457031 11.019531 55.8125 C 12.792969 54.605469 14.230469 54.792969 16.355469 54.5 C 19.417969 54.042969 21.355469 53.644531 24.332031 54.5 C 27.25 55.3125 28.375 56.980469 31 58.480469 C 33.8125 60.105469 35.105469 62 38.3125 62.480469 C 40.644531 62.8125 42.25 60.6875 44.292969 61.8125 C 45.9375 62.730469 47.105469 63.9375 46.957031 65.8125 C 46.769531 68.25 41.917969 66.6875 41.644531 69.125 C 41.292969 72.25 46.667969 68.75 49.625 69.792969 C 51.582031 70.5 54.125 70.375 54.292969 72.457031 C 54.4375 74.769531 51.0625 74.125 48.980469 75.125 C 46.644531 76.207031 45.4375 77.125 42.957031 77.792969 C 40.707031 78.375 38.332031 76.542969 36.980469 78.4375 C 35.9375 79.9375 36.292969 81.417969 36.980469 83.125 C 38.5625 86.980469 43.6875 85.8125 47.625 84.4375 C 50.394531 83.457031 50.917969 80.980469 53.625 79.769531 C 56.5 78.5 58.730469 77.105469 61.582031 78.4375 C 63.9375 79.5625 63.292969 82.542969 65.605469 83.769531 C 68.105469 85.105469 70.457031 82.3125 72.917969 83.769531 C 74.832031 84.917969 74.707031 86.8125 76.230469 88.417969 C 78.019531 90.3125 79.0625 91.832031 81.5625 92.417969 C 84.144531 93.019531 85.707031 90.292969 88.230469 91.082031 C 90.144531 91.707031 91.730469 92.4375 92.207031 94.4375 C 92.9375 97.269531 89.480469 98.394531 86.894531 99.75 Z M 91.6875 67.6875 C 89.375 70 87.375 70.75 84.144531 71.457031 C 81.269531 72.105469 77.25 74.355469 76.582031 71.457031 C 76.082031 69.167969 78.644531 68.355469 80.375 66.75 C 82.292969 64.957031 84.082031 64.792969 86.019531 62.957031 C 87.769531 61.355469 87.542969 58.894531 89.8125 58.25 C 92.042969 57.605469 94.1875 58.207031 95.457031 60.144531 C 97.3125 62.875 94.019531 65.355469 91.6875 67.6875 Z M 119.980469 58.644531 C 119 59.644531 119.0625 60.730469 118.042969 61.730469 C 116.9375 62.792969 115.394531 62.332031 114.5625 63.667969 C 113.855469 64.8125 114.3125 65.769531 114.1875 67.125 C 114.105469 67.894531 110.332031 69.644531 109.5625 67.894531 C 109.125 66.9375 110.125 66.082031 109.5625 65.1875 C 109.042969 64.394531 108.457031 64.792969 107.75 65.5625 C 107.042969 66.332031 106.207031 67.480469 105.3125 67.894531 C 104.144531 68.4375 104.917969 63.394531 104.519531 61.730469 C 104.230469 60.394531 104.542969 59.5625 104.917969 58.25 C 105.417969 56.4375 106.792969 55.832031 107.230469 54 C 107.625 52.394531 107.292969 51.417969 107.230469 49.75 C 107.144531 47.9375 107.207031 46.894531 106.855469 45.125 C 106.480469 43.25 106.355469 42.082031 105.3125 40.5 C 104.480469 39.25 103.9375 38.5 102.605469 37.792969 C 102.292969 37.605469 101.980469 37.5 101.707031 37.417969 C 101.019531 37.1875 100.394531 37.144531 99.5 37.019531 C 97.730469 36.75 96.457031 37.894531 94.875 37.019531 C 93.957031 36.519531 93.667969 35.875 92.957031 35.082031 C 92.144531 34.230469 91.9375 33.5 91.019531 32.769531 C 90.355469 32.230469 89.917969 31.894531 89.105469 31.605469 C 87.519531 31.082031 86.417969 31.4375 84.855469 32 C 83.3125 32.542969 82.730469 33.417969 81.375 34.3125 C 80.3125 34.917969 79.582031 35.0625 78.667969 35.855469 C 78.125 36.355469 75.5 38.207031 74.417969 38.167969 C 73.332031 38.125 72.707031 37.480469 71.75 37.394531 C 71.605469 37.394531 71.480469 37.394531 71.332031 37.394531 C 71.332031 37.394531 71.332031 37.394531 71.3125 37.394531 C 70.375 37.480469 69.9375 37.9375 69.019531 38.167969 C 66.8125 38.730469 65.394531 37.9375 63.230469 38.5625 C 61.792969 38.957031 61.230469 40.105469 59.75 40.105469 C 58.082031 40.125 57.5 38.625 55.894531 38.167969 C 55.019531 37.9375 54.5 37.917969 53.582031 37.792969 C 52.082031 37.582031 51.230469 37.542969 49.730469 37.417969 C 49.6875 37.417969 48.542969 37.519531 48.355469 37.417969 C 47.5 36.832031 46.894531 36.375 45.855469 35.855469 C 44.707031 35.292969 44.019531 35 42.769531 34.6875 L 42.8125 33.9375 C 42.8125 33.9375 42.8125 32.230469 42.5625 31.519531 C 42.332031 30.792969 42.082031 30.792969 42.5625 29.355469 C 43.0625 27.894531 43.9375 26.980469 43.9375 26.980469 C 44.519531 26.519531 44.957031 26.375 45.457031 25.8125 C 46.480469 24.75 46.894531 23.832031 47.019531 22.355469 C 47.144531 20.394531 44.605469 19.605469 45.082031 17.707031 C 45.5 16.0625 46.875 15.75 48.167969 14.625 C 49.730469 13.292969 51.105469 13.105469 52.417969 11.542969 C 53.417969 10.355469 54.230469 9.605469 54.355469 8.0625 C 54.457031 6.75 53.894531 5.9375 53.207031 5 C 56.707031 4.355469 60.3125 4 64 4 C 93.832031 4 118.582031 25.792969 123.207031 54.3125 C 122.8125 55.019531 123.207031 55.917969 122.667969 56.707031 C 121.957031 57.792969 120.875 57.707031 119.980469 58.644531 Z M 119.980469 58.644531 "/>
</g>
</svg>
